SplineFontDB: 3.2
FontName: Samaano-Wide-Bold-Slanted
FullName: Samaano Wide Bold Slanted
FamilyName: Samaano
Weight: BoldSlanted
Copyright: Copyright 2024 The Samaano Project Authors (https://github.com/mitradranirban/samaano-fonts)
UComments: " fonts.atipra.in"
Version: 1.600
StyleMapFamilyName: Samaano
ItalicAngle: -20
UnderlinePosition: 0
UnderlineWidth: 102
Ascent: 1638
Descent: 410
InvalidEm: 0
UFOAscent: 1638
UFODescent: -410
LayerCount: 2
Layer: 0 1 "Back" 1
Layer: 1 1 "public.default" 0 "glyphs"
StyleMap: 0x0021
FSType: 0
OS2Version: 0
OS2_WeightWidthSlopeOnly: 0
OS2_UseTypoMetrics: 0
CreationTime: 1731342366
ModificationTime: 1731343001
PfmFamily: 16
TTFWeight: 700
TTFWidth: 9
LineGap: 0
VLineGap: 0
Panose: 2 7 8 9 0 0 0 0 0 0
OS2TypoAscent: 2457
OS2TypoAOffset: 0
OS2TypoDescent: -615
OS2TypoDOffset: 0
OS2TypoLinegap: 0
OS2WinAscent: 3225
OS2WinAOffset: 0
OS2WinDescent: 978
OS2WinDOffset: 0
HheadAscent: 2457
HheadAOffset: 0
HheadDescent: -615
HheadDOffset: 0
OS2CapHeight: 1548
OS2XHeight: 1023
OS2FamilyClass: 1031
OS2Vendor: 'anir'
Lookup: 4 0 1 "ligaStandardLigaturesinLatinlookup0" { "ligaStandardLigaturesinLatinlookup0 subtable"  } ['liga' ('latn' <'dflt' > 'DFLT' <'dflt' > ) ]
Lookup: 4 0 0 "nuktNuktaFormsinDevanagari2lookup0" { "nuktNuktaFormsinDevanagari2lookup0 subtable"  } ['nukt' ('dev2' <'dflt' > 'DFLT' <'dflt' > ) ]
Lookup: 4 0 0 "akhnAkhandinDevanagari2lookup0" { "akhnAkhandinDevanagari2lookup0 subtable"  } ['akhn' ('dev2' <'dflt' > 'DFLT' <'dflt' > ) ]
Lookup: 4 0 0 "rphfRephForminDevanagari2lookup0" { "rphfRephForminDevanagari2lookup0 subtable"  } ['rphf' ('dev2' <'dflt' > 'DFLT' <'dflt' > ) ]
Lookup: 4 0 0 "rkrfRakarVariantsinDevanagari2lookup0" { "rkrfRakarVariantsinDevanagari2lookup0 subtable"  } ['rkrf' ('dev2' <'dflt' > 'DFLT' <'dflt' > ) ]
Lookup: 4 0 0 "blwfBelowBaseFormsinDevanagari2lookup0" { "blwfBelowBaseFormsinDevanagari2lookup0 subtable"  } ['blwf' ('dev2' <'dflt' > 'DFLT' <'dflt' > ) ]

StartChar: .notdef
Encoding: 0 0 0
GlifName: _notdef
Width: 2048
VWidth: 0
Flags: W
LayerCount: 2
Fore
SplineSet
519 -16 m 257,0,-1
 1517 -16 l 257,1,-1
 2114 1624 l 257,2,-1
 1116 1624 l 257,3,-1
 519 -16 l 257,0,-1
622 64 m 257,4,-1
 1162 1548 l 257,5,-1
 1293 827 l 257,6,-1
 622 64 l 257,4,-1
714 64 m 257,7,-1
 1303 750 l 257,8,-1
 1394 64 l 257,9,-1
 714 64 l 257,7,-1
1286 1558 m 257,10,-1
 1917 1558 l 257,11,-1
 1363 909 l 257,12,-1
 1286 1558 l 257,10,-1
1373 832 m 257,13,-1
 2013 1559 l 257,14,-1
 1469 64 l 257,15,-1
 1373 832 l 257,13,-1
EndSplineSet
EndChar

StartChar: A
Encoding: 65 65 1
GlifName: A_
Width: 2048
VWidth: 0
GlyphClass: 2
Flags: W
AnchorPoint: "top" 1601 1626 basechar 0
AnchorPoint: "base" 1020 -11 basechar 0
LayerCount: 2
Fore
SplineSet
121 0 m 257,0,-1
 320 0 l 257,1,-1
 883 1548 l 257,2,-1
 684 1548 l 257,3,-1
 121 0 l 257,0,-1
667 1332 m 257,4,-1
 2335 1332 l 257,5,-1
 2413 1548 l 257,6,-1
 745 1548 l 257,7,-1
 667 1332 l 257,4,-1
572 1023 m 257,8,-1
 509 849 l 257,9,-1
 2147 849 l 257,10,-1
 2210 1023 l 257,11,-1
 572 1023 l 257,8,-1
1725 0 m 257,12,-1
 1925 0 l 257,13,-1
 2488 1548 l 257,14,-1
 2288 1548 l 257,15,-1
 1725 0 l 257,12,-1
EndSplineSet
EndChar

StartChar: AE
Encoding: 198 198 2
GlifName: A_E_
Width: 2048
VWidth: 0
GlyphClass: 2
Flags: W
LayerCount: 2
Fore
SplineSet
1225 185 m 257,0,-1
 1158 0 l 257,1,-1
 2020 0 l 257,2,-1
 2087 185 l 257,3,-1
 1225 185 l 257,0,-1
125 0 m 257,4,-1
 324 0 l 257,5,-1
 887 1548 l 257,6,-1
 688 1548 l 257,7,-1
 125 0 l 257,4,-1
671 1332 m 257,8,-1
 2483 1332 l 257,9,-1
 2561 1548 l 257,10,-1
 749 1548 l 257,11,-1
 671 1332 l 257,8,-1
576 1023 m 257,12,-1
 513 849 l 257,13,-1
 2255 849 l 257,14,-1
 2318 1023 l 257,15,-1
 576 1023 l 257,12,-1
1063 0 m 257,16,-1
 1263 0 l 257,17,-1
 1826 1548 l 257,18,-1
 1626 1548 l 257,19,-1
 1063 0 l 257,16,-1
EndSplineSet
EndChar

StartChar: B
Encoding: 66 66 12
GlifName: B_
Width: 2048
VWidth: 0
GlyphClass: 2
Flags: W
AnchorPoint: "top" 1376 1585 basechar 0
AnchorPoint: "base" 1025 -74 basechar 0
LayerCount: 2
Fore
SplineSet
90 0 m 257,0,-1
 298 0 l 257,1,-1
 857 1537 l 257,2,-1
 649 1537 l 257,3,-1
 90 0 l 257,0,-1
1922 1331 m 257,4,-1
 2312 989 l 257,5,-1
 2394 1215 l 257,6,-1
 1997 1537 l 257,7,-1
 1922 1331 l 257,4,-1
1736 820 m 257,8,-1
 2313 991 l 257,9,-1
 2394 1215 l 257,10,-1
 1810 1023 l 257,11,-1
 1736 820 l 257,8,-1
1453 201 m 257,12,-1
 1380 0 l 257,13,-1
 2066 364 l 257,14,-1
 2148 588 l 257,15,-1
 1453 201 l 257,12,-1
1652 567 m 257,16,-1
 2066 364 l 257,17,-1
 2147 586 l 257,18,-1
 1725 766 l 257,19,-1
 1652 567 l 257,16,-1
624 1023 m 257,20,-1
 550 820 l 257,21,-1
 1736 820 l 257,22,-1
 1810 1023 l 257,23,-1
 624 1023 l 257,20,-1
529 766 m 257,24,-1
 456 567 l 257,25,-1
 1652 567 l 257,26,-1
 1725 766 l 257,27,-1
 529 766 l 257,24,-1
261 200 m 257,28,-1
 188 0 l 257,29,-1
 1380 0 l 257,30,-1
 1453 200 l 257,31,-1
 261 200 l 257,28,-1
809 1537 m 257,32,-1
 734 1331 l 257,33,-1
 1922 1331 l 257,34,-1
 1997 1537 l 257,35,-1
 809 1537 l 257,32,-1
EndSplineSet
EndChar

StartChar: C
Encoding: 67 67 13
GlifName: C_
Width: 2048
VWidth: 0
GlyphClass: 2
Flags: W
AnchorPoint: "top" 1618 1629 basechar 0
AnchorPoint: "base" 1007 -88 basechar 0
LayerCount: 2
Fore
SplineSet
630 1537 m 257,0,-1
 71 0 l 257,1,-1
 271 0 l 257,2,-1
 830 1537 l 257,3,-1
 630 1537 l 257,0,-1
729 1537 m 257,4,-1
 657 1338 l 257,5,-1
 2464 1338 l 257,6,-1
 2536 1537 l 257,7,-1
 729 1537 l 257,4,-1
228 199 m 257,8,-1
 156 0 l 257,9,-1
 1975 0 l 257,10,-1
 2047 199 l 257,11,-1
 228 199 l 257,8,-1
EndSplineSet
EndChar

StartChar: D
Encoding: 68 68 19
GlifName: D_
Width: 2048
VWidth: 0
GlyphClass: 2
Flags: W
AnchorPoint: "base" 1013 -67 basechar 0
AnchorPoint: "top" 1408 1645 basechar 0
LayerCount: 2
Fore
SplineSet
681 1548 m 257,0,-1
 118 0 l 257,1,-1
 320 0 l 257,2,-1
 883 1548 l 257,3,-1
 681 1548 l 257,0,-1
2007 1548 m 257,4,-1
 1935 1350 l 257,5,-1
 2207 767 l 257,6,-1
 2300 1023 l 257,7,-1
 2007 1548 l 257,4,-1
1525 201 m 257,8,-1
 1452 0 l 257,9,-1
 2204 769 l 257,10,-1
 2296 1023 l 257,11,-1
 1525 201 l 257,8,-1
845 1548 m 257,12,-1
 773 1349 l 257,13,-1
 1935 1349 l 257,14,-1
 2007 1548 l 257,15,-1
 845 1548 l 257,12,-1
363 200 m 257,16,-1
 290 0 l 257,17,-1
 1452 0 l 257,18,-1
 1525 200 l 257,19,-1
 363 200 l 257,16,-1
EndSplineSet
EndChar

StartChar: Dcroat
Encoding: 272 272 21
GlifName: D_croat
Width: 2048
VWidth: 0
GlyphClass: 2
Flags: W
AnchorPoint: "top" 1504 1645 basechar 0
AnchorPoint: "base" 1031 -159 basechar 0
LayerCount: 2
Fore
SplineSet
340 935 m 257,0,-1
 266 730 l 257,1,-1
 866 730 l 257,2,-1
 940 935 l 257,3,-1
 340 935 l 257,0,-1
670 1548 m 257,4,-1
 107 0 l 257,5,-1
 309 0 l 257,6,-1
 872 1548 l 257,7,-1
 670 1548 l 257,4,-1
2020 1548 m 257,8,-1
 1948 1350 l 257,9,-1
 2219 767 l 257,10,-1
 2312 1023 l 257,11,-1
 2020 1548 l 257,8,-1
1538 201 m 257,12,-1
 1465 0 l 257,13,-1
 2217 769 l 257,14,-1
 2309 1023 l 257,15,-1
 1538 201 l 257,12,-1
834 1548 m 257,16,-1
 762 1349 l 257,17,-1
 1948 1349 l 257,18,-1
 2020 1548 l 257,19,-1
 834 1548 l 257,16,-1
352 200 m 257,20,-1
 279 0 l 257,21,-1
 1465 0 l 257,22,-1
 1538 200 l 257,23,-1
 352 200 l 257,20,-1
EndSplineSet
EndChar

StartChar: E
Encoding: 69 69 22
GlifName: E_
Width: 2048
VWidth: 0
GlyphClass: 2
Flags: W
AnchorPoint: "top" 1516 1637 basechar 0
AnchorPoint: "base" 1035 -100 basechar 0
LayerCount: 2
Fore
SplineSet
675 1537 m 257,0,-1
 116 0 l 257,1,-1
 316 0 l 257,2,-1
 875 1537 l 257,3,-1
 675 1537 l 257,0,-1
753 1537 m 257,4,-1
 679 1333 l 257,5,-1
 2397 1333 l 257,6,-1
 2471 1537 l 257,7,-1
 753 1537 l 257,4,-1
256 203 m 257,8,-1
 182 0 l 257,9,-1
 1928 0 l 257,10,-1
 2002 203 l 257,11,-1
 256 203 l 257,8,-1
505 888 m 257,12,-1
 432 688 l 257,13,-1
 1932 688 l 257,14,-1
 2005 888 l 257,15,-1
 505 888 l 257,12,-1
EndSplineSet
EndChar

StartChar: Eng
Encoding: 330 330 31
GlifName: E_ng
Width: 2048
VWidth: 0
GlyphClass: 2
Flags: W
AnchorPoint: "top" 1620 1672 basechar 0
AnchorPoint: "base" 884 -400 basechar 0
LayerCount: 2
Fore
SplineSet
1471 -211 m 257,0,-1
 1400 -408 l 257,1,-1
 1786 -408 l 257,2,-1
 1858 -211 l 257,3,-1
 1471 -211 l 257,0,-1
675 1547 m 257,4,-1
 112 0 l 257,5,-1
 313 0 l 257,6,-1
 876 1547 l 257,7,-1
 675 1547 l 257,4,-1
2272 1476 m 257,8,-1
 1586 -408 l 257,9,-1
 1788 -408 l 257,10,-1
 2473 1476 l 257,11,-1
 2272 1476 l 257,8,-1
650 1477 m 257,12,-1
 578 1280 l 257,13,-1
 2401 1280 l 257,14,-1
 2473 1477 l 257,15,-1
 650 1477 l 257,12,-1
EndSplineSet
EndChar

StartChar: Eth
Encoding: 208 208 33
GlifName: E_th
Width: 2048
VWidth: 0
GlyphClass: 2
Flags: W
AnchorPoint: "top" 2028 1655 basechar 0
AnchorPoint: "base" 1030 -118 basechar 0
LayerCount: 2
Fore
SplineSet
681 935 m 257,0,-1
 531 730 l 257,1,-1
 1007 730 l 257,2,-1
 1157 935 l 257,3,-1
 681 935 l 257,0,-1
1234 1548 m 257,4,-1
 107 0 l 257,5,-1
 309 0 l 257,6,-1
 1436 1548 l 257,7,-1
 1234 1548 l 257,4,-1
2584 1548 m 257,8,-1
 2440 1350 l 257,9,-1
 2498 767 l 257,10,-1
 2685 1023 l 257,11,-1
 2584 1548 l 257,8,-1
1611 201 m 257,12,-1
 1465 0 l 257,13,-1
 2497 769 l 257,14,-1
 2682 1023 l 257,15,-1
 1611 201 l 257,12,-1
1398 1548 m 257,16,-1
 1253 1349 l 257,17,-1
 2439 1349 l 257,18,-1
 2584 1548 l 257,19,-1
 1398 1548 l 257,16,-1
425 200 m 257,20,-1
 279 0 l 257,21,-1
 1465 0 l 257,22,-1
 1611 200 l 257,23,-1
 425 200 l 257,20,-1
EndSplineSet
EndChar

StartChar: Euro
Encoding: 8364 8364 34
GlifName: E_uro
Width: 2048
VWidth: 0
GlyphClass: 2
Flags: W
LayerCount: 2
Fore
SplineSet
815 520 m 257,0,-1
 761 372 l 257,1,-1
 1557 372 l 257,2,-1
 1611 520 l 257,3,-1
 815 520 l 257,0,-1
978 935 m 257,4,-1
 925 788 l 257,5,-1
 1705 788 l 257,6,-1
 1758 935 l 257,7,-1
 978 935 l 257,4,-1
1266 1023 m 257,8,-1
 959 179 l 257,9,-1
 1149 179 l 257,10,-1
 1456 1023 l 257,11,-1
 1266 1023 l 257,8,-1
1806 1633 m 257,12,-1
 1266 1023 l 257,13,-1
 1456 1023 l 257,14,-1
 1915 1601 l 257,15,-1
 1806 1633 l 257,12,-1
959 179 m 257,16,-1
 1090 -406 l 257,17,-1
 1242 -406 l 257,18,-1
 1149 179 l 257,19,-1
 959 179 l 257,16,-1
EndSplineSet
EndChar

StartChar: F
Encoding: 70 70 35
GlifName: F_
Width: 2048
VWidth: 0
GlyphClass: 2
Flags: W
AnchorPoint: "top" 1568 1611 basechar 0
AnchorPoint: "base" 266 -71 basechar 0
LayerCount: 2
Fore
SplineSet
716 1548 m 257,0,-1
 153 0 l 257,1,-1
 353 0 l 257,2,-1
 916 1548 l 257,3,-1
 716 1548 l 257,0,-1
818 1548 m 257,4,-1
 745 1347 l 257,5,-1
 2379 1347 l 257,6,-1
 2452 1548 l 257,7,-1
 818 1548 l 257,4,-1
561 875 m 257,8,-1
 488 672 l 257,9,-1
 2037 672 l 257,10,-1
 2110 875 l 257,11,-1
 561 875 l 257,8,-1
EndSplineSet
EndChar

StartChar: G
Encoding: 71 71 36
GlifName: G_
Width: 2048
VWidth: 0
GlyphClass: 2
Flags: W
AnchorPoint: "top" 1586 1604 basechar 0
AnchorPoint: "base" 1018 -102 basechar 0
LayerCount: 2
Fore
SplineSet
690 1548 m 257,0,-1
 127 0 l 257,1,-1
 329 0 l 257,2,-1
 892 1548 l 257,3,-1
 690 1548 l 257,0,-1
748 1548 m 257,4,-1
 675 1347 l 257,5,-1
 2375 1347 l 257,6,-1
 2448 1548 l 257,7,-1
 748 1548 l 257,4,-1
232 202 m 257,8,-1
 158 0 l 257,9,-1
 1921 0 l 257,10,-1
 1995 202 l 257,11,-1
 232 202 l 257,8,-1
1926 561 m 257,12,-1
 1729 18 l 257,13,-1
 1928 18 l 257,14,-1
 2125 561 l 257,15,-1
 1926 561 l 257,12,-1
EndSplineSet
EndChar

StartChar: H
Encoding: 72 72 40
GlifName: H_
Width: 2048
VWidth: 0
GlyphClass: 2
Flags: W
AnchorPoint: "top" 1696 1638 basechar 0
AnchorPoint: "base" 1026 -45 basechar 0
LayerCount: 2
Fore
SplineSet
685 1537 m 257,0,-1
 126 0 l 257,1,-1
 326 0 l 257,2,-1
 885 1537 l 257,3,-1
 685 1537 l 257,0,-1
2271 1537 m 257,4,-1
 1712 0 l 257,5,-1
 1922 0 l 257,6,-1
 2481 1537 l 257,7,-1
 2271 1537 l 257,4,-1
618 1023 m 257,8,-1
 544 818 l 257,9,-1
 2090 818 l 257,10,-1
 2164 1023 l 257,11,-1
 618 1023 l 257,8,-1
EndSplineSet
EndChar

StartChar: Hbar
Encoding: 294 294 41
GlifName: H_bar
Width: 2048
VWidth: 0
GlyphClass: 2
Flags: W
LayerCount: 2
Fore
SplineSet
648 1537 m 257,0,-1
 89 0 l 257,1,-1
 289 0 l 257,2,-1
 848 1537 l 257,3,-1
 648 1537 l 257,0,-1
2258 1537 m 257,4,-1
 1699 0 l 257,5,-1
 1909 0 l 257,6,-1
 2468 1537 l 257,7,-1
 2258 1537 l 257,4,-1
581 1023 m 257,8,-1
 507 818 l 257,9,-1
 2077 818 l 257,10,-1
 2151 1023 l 257,11,-1
 581 1023 l 257,8,-1
550 1434 m 257,12,-1
 474 1226 l 257,13,-1
 2423 1226 l 257,14,-1
 2499 1434 l 257,15,-1
 550 1434 l 257,12,-1
EndSplineSet
EndChar

StartChar: I
Encoding: 73 73 43
GlifName: I_
Width: 2048
VWidth: 0
GlyphClass: 2
Flags: W
AnchorPoint: "top" 1637 1626 basechar 0
AnchorPoint: "base" 1029 -86 basechar 0
LayerCount: 2
Fore
SplineSet
703 1537 m 257,0,-1
 630 1335 l 257,1,-1
 2375 1335 l 257,2,-1
 2448 1537 l 257,3,-1
 703 1537 l 257,0,-1
1509 1468 m 257,4,-1
 1006 84 l 257,5,-1
 1206 84 l 257,6,-1
 1709 1468 l 257,7,-1
 1509 1468 l 257,4,-1
198 204 m 257,8,-1
 126 6 l 257,9,-1
 1926 6 l 257,10,-1
 1998 204 l 257,11,-1
 198 204 l 257,8,-1
EndSplineSet
EndChar

StartChar: J
Encoding: 74 74 54
GlifName: J_
Width: 2048
VWidth: 0
GlyphClass: 2
Flags: W
AnchorPoint: "base" 1023 -95 basechar 0
AnchorPoint: "top" 2387 1630 basechar 0
LayerCount: 2
Fore
SplineSet
2268 1527 m 257,0,-1
 1712 0 l 257,1,-1
 1912 0 l 257,2,-1
 2468 1527 l 257,3,-1
 2268 1527 l 257,0,-1
214 208 m 257,4,-1
 138 0 l 257,5,-1
 1752 0 l 257,6,-1
 1828 208 l 257,7,-1
 214 208 l 257,4,-1
319 503 m 257,8,-1
 155 52 l 257,9,-1
 353 52 l 257,10,-1
 517 503 l 257,11,-1
 319 503 l 257,8,-1
EndSplineSet
EndChar

StartChar: K
Encoding: 75 75 56
GlifName: K_
Width: 2048
VWidth: 0
GlyphClass: 2
Flags: W
AnchorPoint: "base" 1011 -95 basechar 0
AnchorPoint: "top" 790 1630 basechar 0
LayerCount: 2
Fore
SplineSet
671 1537 m 257,0,-1
 114 5 l 257,1,-1
 315 5 l 257,2,-1
 872 1537 l 257,3,-1
 671 1537 l 257,0,-1
521 999 m 257,4,-1
 580 835 l 257,5,-1
 2440 1529 l 257,6,-1
 2173 1529 l 257,7,-1
 521 999 l 257,4,-1
577 798 m 257,8,-1
 384 643 l 257,9,-1
 1655 0 l 257,10,-1
 1936 0 l 257,11,-1
 577 798 l 257,8,-1
EndSplineSet
EndChar

StartChar: L
Encoding: 76 76 57
GlifName: L_
Width: 2048
VWidth: 0
GlyphClass: 2
Flags: W
AnchorPoint: "base" 1050 -62 basechar 0
AnchorPoint: "top" 792 1640 basechar 0
LayerCount: 2
Fore
SplineSet
690 1542 m 257,0,-1
 129 0 l 257,1,-1
 327 0 l 257,2,-1
 888 1542 l 257,3,-1
 690 1542 l 257,0,-1
312 202 m 257,4,-1
 238 0 l 257,5,-1
 1914 0 l 257,6,-1
 1988 202 l 257,7,-1
 312 202 l 257,4,-1
EndSplineSet
EndChar

StartChar: Lcaron
Encoding: 317 317 59
GlifName: L_caron
Width: 2048
VWidth: 0
GlyphClass: 2
Flags: W
LayerCount: 2
Fore
SplineSet
614 1542 m 257,0,-1
 53 0 l 257,1,-1
 251 0 l 257,2,-1
 812 1542 l 257,3,-1
 614 1542 l 257,0,-1
236 202 m 257,4,-1
 162 0 l 257,5,-1
 1912 0 l 257,6,-1
 1986 202 l 257,7,-1
 236 202 l 257,4,-1
991 1496 m 257,8,-1
 907 1264 l 257,9,-1
 1037 1264 l 257,10,-1
 1122 1496 l 257,11,-1
 991 1496 l 257,8,-1
EndSplineSet
EndChar

StartChar: Lslash
Encoding: 321 321 61
GlifName: L_slash
Width: 2048
VWidth: 0
GlyphClass: 2
Flags: W
LayerCount: 2
Fore
SplineSet
732 1542 m 257,0,-1
 171 0 l 257,1,-1
 369 0 l 257,2,-1
 930 1542 l 257,3,-1
 732 1542 l 257,0,-1
354 202 m 257,4,-1
 280 0 l 257,5,-1
 2030 0 l 257,6,-1
 2104 202 l 257,7,-1
 354 202 l 257,4,-1
344 902 m 257,8,-1
 362 730 l 257,9,-1
 869 932 l 257,10,-1
 852 1104 l 257,11,-1
 344 902 l 257,8,-1
EndSplineSet
EndChar

StartChar: M
Encoding: 77 77 62
GlifName: M_
Width: 2048
VWidth: 0
GlyphClass: 2
Flags: W
AnchorPoint: "base" 1019 -30 basechar 0
AnchorPoint: "top" 1623 1635 basechar 0
LayerCount: 2
Fore
SplineSet
701 1548 m 257,0,-1
 138 0 l 257,1,-1
 340 0 l 257,2,-1
 903 1548 l 257,3,-1
 701 1548 l 257,0,-1
2267 1537 m 257,4,-1
 1708 0 l 257,5,-1
 1910 0 l 257,6,-1
 2469 1537 l 257,7,-1
 2267 1537 l 257,4,-1
694 1429 m 257,8,-1
 1265 1031 l 257,9,-1
 1453 1031 l 257,10,-1
 879 1548 l 257,11,-1
 694 1429 l 257,8,-1
2295 1537 m 257,12,-1
 1260 1023 l 257,13,-1
 1448 1023 l 257,14,-1
 2444 1488 l 257,15,-1
 2295 1537 l 257,12,-1
EndSplineSet
EndChar

StartChar: N
Encoding: 78 78 63
GlifName: N_
Width: 2048
VWidth: 0
GlyphClass: 2
Flags: W
AnchorPoint: "top" 1658 1630 basechar 0
AnchorPoint: "base" 1027 -36 basechar 0
LayerCount: 2
Fore
SplineSet
697 1548 m 257,0,-1
 134 0 l 257,1,-1
 338 0 l 257,2,-1
 901 1548 l 257,3,-1
 697 1548 l 257,0,-1
2273 1548 m 257,4,-1
 1710 0 l 257,5,-1
 1912 0 l 257,6,-1
 2475 1548 l 257,7,-1
 2273 1548 l 257,4,-1
697 1548 m 257,8,-1
 1712 0 l 257,9,-1
 1914 0 l 257,10,-1
 903 1548 l 257,11,-1
 697 1548 l 257,8,-1
EndSplineSet
EndChar

StartChar: O
Encoding: 79 79 67
GlifName: O_
Width: 2048
VWidth: 0
GlyphClass: 2
Flags: W
AnchorPoint: "top" 1700 1633 basechar 0
AnchorPoint: "base" 1023 -59 basechar 0
LayerCount: 2
Fore
SplineSet
708 1537 m 257,0,-1
 149 0 l 257,1,-1
 350 0 l 257,2,-1
 909 1537 l 257,3,-1
 708 1537 l 257,0,-1
2255 1537 m 257,4,-1
 1696 0 l 257,5,-1
 1899 0 l 257,6,-1
 2458 1537 l 257,7,-1
 2255 1537 l 257,4,-1
772 1537 m 257,8,-1
 700 1337 l 257,9,-1
 2293 1337 l 257,10,-1
 2365 1537 l 257,11,-1
 772 1537 l 257,8,-1
263 204 m 257,12,-1
 189 0 l 257,13,-1
 1812 0 l 257,14,-1
 1886 204 l 257,15,-1
 263 204 l 257,12,-1
EndSplineSet
EndChar

StartChar: OE
Encoding: 338 338 68
GlifName: O_E_
Width: 2048
VWidth: 0
GlyphClass: 2
Flags: W
AnchorPoint: "top" 1697 1657 basechar 0
AnchorPoint: "base" 1024 -85 basechar 0
LayerCount: 2
Fore
SplineSet
674 1548 m 257,0,-1
 111 0 l 257,1,-1
 312 0 l 257,2,-1
 875 1548 l 257,3,-1
 674 1548 l 257,0,-1
1578 1548 m 257,4,-1
 1015 0 l 257,5,-1
 1216 0 l 257,6,-1
 1779 1548 l 257,7,-1
 1578 1548 l 257,4,-1
711 1548 m 257,8,-1
 639 1349 l 257,9,-1
 2395 1349 l 257,10,-1
 2467 1548 l 257,11,-1
 711 1548 l 257,8,-1
223 200 m 257,12,-1
 150 0 l 257,13,-1
 1912 0 l 257,14,-1
 1985 200 l 257,15,-1
 223 200 l 257,12,-1
1431 859 m 257,16,-1
 1358 659 l 257,17,-1
 2114 659 l 257,18,-1
 2187 859 l 257,19,-1
 1431 859 l 257,16,-1
EndSplineSet
EndChar

StartChar: Oslash
Encoding: 216 216 76
GlifName: O_slash
Width: 2048
VWidth: 0
GlyphClass: 2
Flags: W
AnchorPoint: "top" 1615 1635 basechar 0
AnchorPoint: "base" 1031 -91 basechar 0
LayerCount: 2
Fore
SplineSet
2419 1667 m 257,0,-1
 19 -45 l 257,1,-1
 180 -118 l 257,2,-1
 2580 1594 l 257,3,-1
 2419 1667 l 257,0,-1
669 1537 m 257,4,-1
 110 0 l 257,5,-1
 311 0 l 257,6,-1
 870 1537 l 257,7,-1
 669 1537 l 257,4,-1
2290 1537 m 257,8,-1
 1731 0 l 257,9,-1
 1934 0 l 257,10,-1
 2493 1537 l 257,11,-1
 2290 1537 l 257,8,-1
733 1537 m 257,12,-1
 661 1337 l 257,13,-1
 2328 1337 l 257,14,-1
 2400 1537 l 257,15,-1
 733 1537 l 257,12,-1
224 204 m 257,16,-1
 150 0 l 257,17,-1
 1847 0 l 257,18,-1
 1921 204 l 257,19,-1
 224 204 l 257,16,-1
EndSplineSet
EndChar

StartChar: P
Encoding: 80 80 78
GlifName: P_
Width: 2048
VWidth: 0
GlyphClass: 2
Flags: W
AnchorPoint: "base" 1029 -73 basechar 0
AnchorPoint: "top" 1558 1642 basechar 0
LayerCount: 2
Fore
SplineSet
735 1548 m 257,0,-1
 175 9 l 257,1,-1
 365 9 l 257,2,-1
 925 1548 l 257,3,-1
 735 1548 l 257,0,-1
813 1548 m 257,4,-1
 740 1346 l 257,5,-1
 2346 1346 l 257,6,-1
 2419 1548 l 257,7,-1
 813 1548 l 257,4,-1
2239 1548 m 257,8,-1
 1997 881 l 257,9,-1
 2197 881 l 257,10,-1
 2439 1548 l 257,11,-1
 2239 1548 l 257,8,-1
623 1068 m 257,12,-1
 550 868 l 257,13,-1
 2188 868 l 257,14,-1
 2261 1068 l 257,15,-1
 623 1068 l 257,12,-1
EndSplineSet
EndChar

StartChar: Q
Encoding: 81 81 79
GlifName: Q_
Width: 2048
VWidth: 0
GlyphClass: 2
Flags: W
AnchorPoint: "base" 1010 -88 basechar 0
AnchorPoint: "top" 1592 1651 basechar 0
LayerCount: 2
Fore
SplineSet
708 1537 m 257,0,-1
 151 5 l 257,1,-1
 350 5 l 257,2,-1
 907 1537 l 257,3,-1
 708 1537 l 257,0,-1
2257 1537 m 257,4,-1
 1698 0 l 257,5,-1
 1899 0 l 257,6,-1
 2458 1537 l 257,7,-1
 2257 1537 l 257,4,-1
772 1537 m 257,8,-1
 700 1337 l 257,9,-1
 2293 1337 l 257,10,-1
 2365 1537 l 257,11,-1
 772 1537 l 257,8,-1
264 205 m 257,12,-1
 189 0 l 257,13,-1
 1812 0 l 257,14,-1
 1887 205 l 257,15,-1
 264 205 l 257,12,-1
1255 21 m 257,16,-1
 1329 -285 l 257,17,-1
 1562 -169 l 257,18,-1
 1488 137 l 257,19,-1
 1255 21 l 257,16,-1
EndSplineSet
EndChar

StartChar: R
Encoding: 82 82 80
GlifName: R_
Width: 2048
VWidth: 0
GlyphClass: 2
Flags: W
AnchorPoint: "base" 1027 -41 basechar 0
AnchorPoint: "top" 1542 1648 basechar 0
LayerCount: 2
Fore
SplineSet
661 1537 m 257,0,-1
 102 0 l 257,1,-1
 303 0 l 257,2,-1
 862 1537 l 257,3,-1
 661 1537 l 257,0,-1
740 1537 m 257,4,-1
 667 1335 l 257,5,-1
 2323 1335 l 257,6,-1
 2396 1537 l 257,7,-1
 740 1537 l 257,4,-1
2223 1537 m 257,8,-1
 1981 872 l 257,9,-1
 2181 872 l 257,10,-1
 2423 1537 l 257,11,-1
 2223 1537 l 257,8,-1
558 1079 m 257,12,-1
 481 868 l 257,13,-1
 2168 868 l 257,14,-1
 2245 1079 l 257,15,-1
 558 1079 l 257,12,-1
630 892 m 257,16,-1
 1706 0 l 257,17,-1
 1946 0 l 257,18,-1
 829 892 l 257,19,-1
 630 892 l 257,16,-1
EndSplineSet
EndChar

StartChar: S
Encoding: 83 83 83
GlifName: S_
Width: 2048
VWidth: 0
GlyphClass: 2
Flags: W
AnchorPoint: "top" 1590 1641 basechar 0
AnchorPoint: "base" 1020 -67 basechar 0
LayerCount: 2
Fore
SplineSet
697 1537 m 257,0,-1
 624 1336 l 257,1,-1
 2222 1336 l 257,2,-1
 2295 1537 l 257,3,-1
 697 1537 l 257,0,-1
699 1542 m 257,4,-1
 512 1028 l 257,5,-1
 714 1028 l 257,6,-1
 901 1542 l 257,7,-1
 699 1542 l 257,4,-1
238 199 m 257,8,-1
 166 0 l 257,9,-1
 1874 0 l 257,10,-1
 1946 199 l 257,11,-1
 238 199 l 257,8,-1
1709 0 m 257,12,-1
 1910 0 l 257,13,-1
 2039 355 l 257,14,-1
 1838 355 l 257,15,-1
 1709 0 l 257,12,-1
512 1028 m 257,16,-1
 1838 355 l 257,17,-1
 2039 355 l 257,18,-1
 714 1028 l 257,19,-1
 512 1028 l 257,16,-1
EndSplineSet
EndChar

StartChar: T
Encoding: 84 84 88
GlifName: T_
Width: 2048
VWidth: 0
GlyphClass: 2
Flags: W
AnchorPoint: "top" 1582 1604 basechar 0
AnchorPoint: "base" 1013 -120 basechar 0
LayerCount: 2
Fore
SplineSet
688 1548 m 257,0,-1
 616 1348 l 257,1,-1
 2414 1348 l 257,2,-1
 2486 1548 l 257,3,-1
 688 1548 l 257,0,-1
1447 1436 m 257,4,-1
 926 6 l 257,5,-1
 1126 6 l 257,6,-1
 1647 1436 l 257,7,-1
 1447 1436 l 257,4,-1
EndSplineSet
EndChar

StartChar: Thorn
Encoding: 222 222 90
GlifName: T_horn
Width: 2048
VWidth: 0
GlyphClass: 2
Flags: W
LayerCount: 2
Fore
SplineSet
673 1542 m 257,0,-1
 115 9 l 257,1,-1
 305 9 l 257,2,-1
 863 1542 l 257,3,-1
 673 1542 l 257,0,-1
640 1234 m 257,4,-1
 568 1035 l 257,5,-1
 2248 1035 l 257,6,-1
 2320 1234 l 257,7,-1
 640 1234 l 257,4,-1
2140 1233 m 257,8,-1
 1898 569 l 257,9,-1
 2098 569 l 257,10,-1
 2340 1233 l 257,11,-1
 2140 1233 l 257,8,-1
428 684 m 257,12,-1
 355 484 l 257,13,-1
 2066 484 l 257,14,-1
 2139 684 l 257,15,-1
 428 684 l 257,12,-1
EndSplineSet
EndChar

StartChar: U
Encoding: 85 85 91
GlifName: U_
Width: 2048
VWidth: 0
GlyphClass: 2
Flags: W
AnchorPoint: "top" 1643 1626 basechar 0
AnchorPoint: "base" 1041 -110 basechar 0
LayerCount: 2
Fore
SplineSet
715 1537 m 257,0,-1
 156 0 l 257,1,-1
 356 0 l 257,2,-1
 915 1537 l 257,3,-1
 715 1537 l 257,0,-1
2251 1537 m 257,4,-1
 1692 0 l 257,5,-1
 1890 0 l 257,6,-1
 2449 1537 l 257,7,-1
 2251 1537 l 257,4,-1
277 200 m 257,8,-1
 204 0 l 257,9,-1
 1848 0 l 257,10,-1
 1921 200 l 257,11,-1
 277 200 l 257,8,-1
EndSplineSet
EndChar

StartChar: V
Encoding: 86 86 102
GlifName: V_
Width: 2048
VWidth: 0
GlyphClass: 2
Flags: W
AnchorPoint: "top" 1584 1639 basechar 0
AnchorPoint: "base" 1041 -60 basechar 0
LayerCount: 2
Fore
SplineSet
681 1548 m 257,0,-1
 890 0 l 257,1,-1
 1112 0 l 257,2,-1
 883 1548 l 257,3,-1
 681 1548 l 257,0,-1
2291 1548 m 257,4,-1
 1016 0 l 257,5,-1
 1238 0 l 257,6,-1
 2493 1548 l 257,7,-1
 2291 1548 l 257,4,-1
EndSplineSet
EndChar

StartChar: W
Encoding: 87 87 103
GlifName: W_
Width: 2048
VWidth: 0
GlyphClass: 2
Flags: W
AnchorPoint: "base" 1021 -80 basechar 0
AnchorPoint: "top" 1571 1643 basechar 0
LayerCount: 2
Fore
SplineSet
667 1548 m 257,0,-1
 104 0 l 257,1,-1
 304 0 l 257,2,-1
 867 1548 l 257,3,-1
 667 1548 l 257,0,-1
2307 1548 m 257,4,-1
 1748 12 l 257,5,-1
 1950 12 l 257,6,-1
 2509 1548 l 257,7,-1
 2307 1548 l 257,4,-1
1300 1028 m 257,8,-1
 926 0 l 257,9,-1
 1128 0 l 257,10,-1
 1502 1028 l 257,11,-1
 1300 1028 l 257,8,-1
175 201 m 257,12,-1
 102 0 l 257,13,-1
 1946 0 l 257,14,-1
 2019 201 l 257,15,-1
 175 201 l 257,12,-1
EndSplineSet
EndChar

StartChar: X
Encoding: 88 88 108
GlifName: X_
Width: 2048
VWidth: 0
GlyphClass: 2
Flags: W
AnchorPoint: "top" 1596 1633 basechar 0
AnchorPoint: "base" 1013 -26 basechar 0
LayerCount: 2
Fore
SplineSet
645 1548 m 257,0,-1
 1766 0 l 257,1,-1
 1966 0 l 257,2,-1
 844 1548 l 257,3,-1
 645 1548 l 257,0,-1
87 6 m 257,4,-1
 288 6 l 257,5,-1
 2521 1548 l 257,6,-1
 2322 1548 l 257,7,-1
 87 6 l 257,4,-1
EndSplineSet
EndChar

StartChar: Y
Encoding: 89 89 109
GlifName: Y_
Width: 2048
VWidth: 0
GlyphClass: 2
Flags: W
AnchorPoint: "top" 1555 1642 basechar 0
AnchorPoint: "base" 1004 -82 basechar 0
LayerCount: 2
Fore
SplineSet
1240 897 m 257,0,-1
 914 0 l 257,1,-1
 1116 0 l 257,2,-1
 1442 897 l 257,3,-1
 1240 897 l 257,0,-1
673 1548 m 257,4,-1
 423 859 l 257,5,-1
 623 859 l 257,6,-1
 873 1548 l 257,7,-1
 673 1548 l 257,4,-1
2301 1548 m 257,8,-1
 2051 859 l 257,9,-1
 2251 859 l 257,10,-1
 2501 1548 l 257,11,-1
 2301 1548 l 257,8,-1
550 1023 m 257,12,-1
 491 859 l 257,13,-1
 2161 859 l 257,14,-1
 2220 1023 l 257,15,-1
 550 1023 l 257,12,-1
EndSplineSet
EndChar

StartChar: Z
Encoding: 90 90 114
GlifName: Z_
Width: 2048
VWidth: 0
GlyphClass: 2
Flags: W
AnchorPoint: "top" 1743 1637 basechar 0
AnchorPoint: "base" 1021 -55 basechar 0
LayerCount: 2
Fore
SplineSet
670 1548 m 257,0,-1
 593 1336 l 257,1,-1
 2427 1336 l 257,2,-1
 2504 1548 l 257,3,-1
 670 1548 l 257,0,-1
185 212 m 257,4,-1
 108 0 l 257,5,-1
 1936 0 l 257,6,-1
 2013 212 l 257,7,-1
 185 212 l 257,4,-1
2166 1335 m 257,8,-1
 185 211 l 257,9,-1
 392 211 l 257,10,-1
 2411 1335 l 257,11,-1
 2166 1335 l 257,8,-1
EndSplineSet
EndChar

StartChar: a
Encoding: 97 97 118
GlifName: a
Width: 2048
VWidth: 0
GlyphClass: 2
Flags: W
AnchorPoint: "top" 1574 1116 basechar 0
AnchorPoint: "base" 1027 -82 basechar 0
LayerCount: 2
Fore
SplineSet
550 1023 m 257,0,-1
 478 824 l 257,1,-1
 2084 824 l 257,2,-1
 2156 1023 l 257,3,-1
 550 1023 l 257,0,-1
2043 1023 m 257,4,-1
 1671 0 l 257,5,-1
 1865 0 l 257,6,-1
 2237 1023 l 257,7,-1
 2043 1023 l 257,4,-1
400 599 m 257,8,-1
 328 400 l 257,9,-1
 1952 400 l 257,10,-1
 2024 599 l 257,11,-1
 400 599 l 257,8,-1
391 575 m 257,12,-1
 182 0 l 257,13,-1
 383 0 l 257,14,-1
 592 575 l 257,15,-1
 391 575 l 257,12,-1
253 201 m 257,16,-1
 180 0 l 257,17,-1
 1870 0 l 257,18,-1
 1943 201 l 257,19,-1
 253 201 l 257,16,-1
EndSplineSet
EndChar

StartChar: acute
Encoding: 180 180 122
GlifName: acute
Width: 2048
VWidth: 0
GlyphClass: 2
Flags: W
LayerCount: 2
Fore
SplineSet
1088 1556 m 257,0,-1
 866 1302 l 257,1,-1
 937 1256 l 257,2,-1
 1161 1511 l 257,3,-1
 1088 1556 l 257,0,-1
EndSplineSet
EndChar

StartChar: acutecomb
Encoding: 769 769 123
GlifName: acutecomb
Width: 0
VWidth: 0
GlyphClass: 4
Flags: W
AnchorPoint: "top" -16 794 mark 0
LayerCount: 2
Fore
SplineSet
188 1118 m 257,0,-1
 -35 864 l 257,1,-1
 37 818 l 257,2,-1
 262 1073 l 257,3,-1
 188 1118 l 257,0,-1
EndSplineSet
EndChar

StartChar: ae
Encoding: 230 230 125
GlifName: ae
Width: 2048
VWidth: 0
GlyphClass: 2
Flags: W
AnchorPoint: "top" 1459 1109 basechar 0
AnchorPoint: "base" 1011 -118 basechar 0
LayerCount: 2
Fore
SplineSet
420 1023 m 257,0,-1
 348 824 l 257,1,-1
 2191 824 l 257,2,-1
 2263 1023 l 257,3,-1
 420 1023 l 257,0,-1
1333 1023 m 257,4,-1
 961 0 l 257,5,-1
 1155 0 l 257,6,-1
 1527 1023 l 257,7,-1
 1333 1023 l 257,4,-1
289 599 m 257,8,-1
 217 400 l 257,9,-1
 2038 400 l 257,10,-1
 2110 599 l 257,11,-1
 289 599 l 257,8,-1
280 575 m 257,12,-1
 71 0 l 257,13,-1
 272 0 l 257,14,-1
 481 575 l 257,15,-1
 280 575 l 257,12,-1
142 201 m 257,16,-1
 69 0 l 257,17,-1
 2013 0 l 257,18,-1
 2086 201 l 257,19,-1
 142 201 l 257,16,-1
2169 1023 m 257,20,-1
 1943 400 l 257,21,-1
 2138 400 l 257,22,-1
 2364 1023 l 257,23,-1
 2169 1023 l 257,20,-1
EndSplineSet
EndChar

StartChar: ampersand
Encoding: 38 38 128
GlifName: ampersand
Width: 2048
VWidth: 0
GlyphClass: 2
Flags: W
LayerCount: 2
Fore
SplineSet
1331 1537 m 257,0,-1
 1224 12 l 257,1,-1
 1386 56 l 257,2,-1
 1493 1537 l 257,3,-1
 1331 1537 l 257,0,-1
1826 1401 m 257,4,-1
 1875 1537 l 257,5,-1
 1409 1537 l 257,6,-1
 1360 1401 l 257,7,-1
 1826 1401 l 257,4,-1
1682 1446 m 257,8,-1
 1490 917 l 257,9,-1
 1650 917 l 257,10,-1
 1842 1446 l 257,11,-1
 1682 1446 l 257,8,-1
1000 1045 m 257,12,-1
 927 843 l 257,13,-1
 1623 843 l 257,14,-1
 1696 1045 l 257,15,-1
 1000 1045 l 257,12,-1
1000 1045 m 257,16,-1
 629 24 l 257,17,-1
 839 24 l 257,18,-1
 1210 1045 l 257,19,-1
 1000 1045 l 257,16,-1
689 190 m 257,20,-1
 622 6 l 257,21,-1
 1430 6 l 257,22,-1
 1497 190 l 257,23,-1
 689 190 l 257,20,-1
EndSplineSet
EndChar

StartChar: asciicircum
Encoding: 94 94 131
GlifName: asciicircum
Width: 2048
VWidth: 0
GlyphClass: 2
Flags: W
LayerCount: 2
Fore
SplineSet
1472 1023 m 257,0,-1
 1322 1023 l 257,1,-1
 834 407 l 257,2,-1
 962 345 l 257,3,-1
 1472 1023 l 257,0,-1
1285 904 m 257,4,-1
 1337 343 l 257,5,-1
 1508 400 l 257,6,-1
 1472 1023 l 257,7,-1
 1285 904 l 257,4,-1
EndSplineSet
EndChar

StartChar: asciitilde
Encoding: 126 126 132
GlifName: asciitilde
Width: 2048
VWidth: 0
GlyphClass: 2
Flags: W
LayerCount: 2
Fore
SplineSet
1175 815 m 257,0,-1
 1139 716 l 257,1,-1
 1466 655 l 257,2,-1
 1502 754 l 257,3,-1
 1175 815 l 257,0,-1
916 757 m 257,4,-1
 894 659 l 257,5,-1
 1139 716 l 257,6,-1
 1175 815 l 257,7,-1
 916 757 l 257,4,-1
1502 754 m 257,8,-1
 1466 655 l 257,9,-1
 1698 796 l 257,10,-1
 1709 892 l 257,11,-1
 1502 754 l 257,8,-1
EndSplineSet
EndChar

StartChar: asterisk
Encoding: 42 42 133
GlifName: asterisk
Width: 2048
VWidth: 0
GlyphClass: 2
Flags: W
LayerCount: 2
Fore
SplineSet
1406 1297 m 257,0,-1
 1043 300 l 257,1,-1
 1273 300 l 257,2,-1
 1636 1297 l 257,3,-1
 1406 1297 l 257,0,-1
977 1099 m 257,4,-1
 1436 360 l 257,5,-1
 1647 504 l 257,6,-1
 1184 1241 l 257,7,-1
 977 1099 l 257,4,-1
1777 1232 m 257,8,-1
 797 525 l 257,9,-1
 883 372 l 257,10,-1
 1864 1079 l 257,11,-1
 1777 1232 l 257,8,-1
EndSplineSet
EndChar

StartChar: at
Encoding: 64 64 134
GlifName: at
Width: 2048
VWidth: 0
GlyphClass: 2
Flags: W
LayerCount: 2
Fore
SplineSet
985 1023 m 257,0,-1
 933 879 l 257,1,-1
 1752 879 l 257,2,-1
 1804 1023 l 257,3,-1
 985 1023 l 257,0,-1
1364 592 m 257,4,-1
 1149 0 l 257,5,-1
 1302 0 l 257,6,-1
 1517 592 l 257,7,-1
 1364 592 l 257,4,-1
1034 600 m 257,8,-1
 978 444 l 257,9,-1
 1403 444 l 257,10,-1
 1459 600 l 257,11,-1
 1034 600 l 257,8,-1
1027 589 m 257,12,-1
 817 12 l 257,13,-1
 991 12 l 257,14,-1
 1201 589 l 257,15,-1
 1027 589 l 257,12,-1
879 188 m 257,16,-1
 811 0 l 257,17,-1
 1305 0 l 257,18,-1
 1373 188 l 257,19,-1
 879 188 l 257,16,-1
897 1023 m 257,20,-1
 444 -223 l 257,21,-1
 620 -223 l 257,22,-1
 1073 1023 l 257,23,-1
 897 1023 l 257,20,-1
492 -86 m 257,24,-1
 429 -258 l 257,25,-1
 1377 -258 l 257,26,-1
 1440 -86 l 257,27,-1
 492 -86 l 257,24,-1
1742 1011 m 257,28,-1
 1374 0 l 257,29,-1
 1525 0 l 257,30,-1
 1893 1011 l 257,31,-1
 1742 1011 l 257,28,-1
1310 175 m 257,32,-1
 1246 0 l 257,33,-1
 1455 0 l 257,34,-1
 1519 175 l 257,35,-1
 1310 175 l 257,32,-1
EndSplineSet
EndChar

StartChar: b
Encoding: 98 98 136
GlifName: b
Width: 2048
VWidth: 0
GlyphClass: 2
Flags: W
AnchorPoint: "base" 1108 -57 basechar 0
AnchorPoint: "top" 830 1625 basechar 0
LayerCount: 2
Fore
SplineSet
702 1537 m 257,0,-1
 143 0 l 257,1,-1
 342 0 l 257,2,-1
 901 1537 l 257,3,-1
 702 1537 l 257,0,-1
616 1033 m 257,4,-1
 544 834 l 257,5,-1
 2070 834 l 257,6,-1
 2142 1033 l 257,7,-1
 616 1033 l 257,4,-1
2082 1033 m 257,8,-1
 1706 0 l 257,9,-1
 1905 0 l 257,10,-1
 2281 1033 l 257,11,-1
 2082 1033 l 257,8,-1
343 207 m 257,12,-1
 268 0 l 257,13,-1
 1826 0 l 257,14,-1
 1901 207 l 257,15,-1
 343 207 l 257,12,-1
EndSplineSet
EndChar

StartChar: backslash
Encoding: 92 92 137
GlifName: backslash
Width: 2048
VWidth: 0
GlyphClass: 2
Flags: W
LayerCount: 2
Fore
SplineSet
1139 1441 m 257,0,-1
 1237 -13 l 257,1,-1
 1457 65 l 257,2,-1
 1360 1519 l 257,3,-1
 1139 1441 l 257,0,-1
EndSplineSet
EndChar

StartChar: bar
Encoding: 124 124 138
GlifName: bar
Width: 2048
VWidth: 0
GlyphClass: 2
Flags: W
LayerCount: 2
Fore
SplineSet
1444 1435 m 257,0,-1
 889 -90 l 257,1,-1
 1093 -90 l 257,2,-1
 1648 1435 l 257,3,-1
 1444 1435 l 257,0,-1
EndSplineSet
EndChar

StartChar: braceleft
Encoding: 123 123 139
GlifName: braceleft
Width: 2048
VWidth: 0
GlyphClass: 2
Flags: W
LayerCount: 2
Fore
SplineSet
1587 1548 m 257,0,-1
 1329 838 l 257,1,-1
 1475 838 l 257,2,-1
 1733 1548 l 257,3,-1
 1587 1548 l 257,0,-1
1190 424 m 257,4,-1
 932 -286 l 257,5,-1
 1078 -286 l 257,6,-1
 1336 424 l 257,7,-1
 1190 424 l 257,4,-1
986 690 m 257,8,-1
 964 630 l 257,9,-1
 1475 838 l 257,10,-1
 1329 838 l 257,11,-1
 986 690 l 257,8,-1
986 690 m 257,12,-1
 964 630 l 257,13,-1
 1189 425 l 257,14,-1
 1338 425 l 257,15,-1
 986 690 l 257,12,-1
1608 1603 m 257,16,-1
 1553 1452 l 257,17,-1
 1866 1574 l 257,18,-1
 1880 1603 l 257,19,-1
 1608 1603 l 257,16,-1
986 -140 m 257,20,-1
 933 -287 l 257,21,-1
 1209 -287 l 257,22,-1
 1213 -274 l 257,23,-1
 986 -140 l 257,20,-1
EndSplineSet
EndChar

StartChar: braceright
Encoding: 125 125 140
GlifName: braceright
Width: 2048
VWidth: 0
GlyphClass: 2
Flags: W
LayerCount: 2
Fore
SplineSet
1603 1548 m 257,0,-1
 1441 1548 l 257,1,-1
 1183 838 l 257,2,-1
 1341 838 l 257,3,-1
 1603 1548 l 257,0,-1
1180 424 m 257,4,-1
 1020 424 l 257,5,-1
 762 -286 l 257,6,-1
 922 -286 l 257,7,-1
 1180 424 l 257,4,-1
1564 690 m 257,8,-1
 1340 838 l 257,9,-1
 1179 838 l 257,10,-1
 1542 630 l 257,11,-1
 1564 690 l 257,8,-1
1564 690 m 257,12,-1
 1020 424 l 257,13,-1
 1180 424 l 257,14,-1
 1542 630 l 257,15,-1
 1564 690 l 257,12,-1
1624 1603 m 257,16,-1
 1349 1603 l 257,17,-1
 1343 1574 l 257,18,-1
 1566 1452 l 257,19,-1
 1624 1603 l 257,16,-1
960 -140 m 257,20,-1
 635 -274 l 257,21,-1
 632 -284 l 257,22,-1
 908 -284 l 257,23,-1
 960 -140 l 257,20,-1
EndSplineSet
EndChar

StartChar: bracketleft
Encoding: 91 91 141
GlifName: bracketleft
Width: 2048
VWidth: 0
GlyphClass: 2
Flags: W
LayerCount: 2
Fore
SplineSet
1451 1542 m 257,0,-1
 802 -242 l 257,1,-1
 924 -242 l 257,2,-1
 1573 1542 l 257,3,-1
 1451 1542 l 257,0,-1
1506 1543 m 257,4,-1
 1459 1416 l 257,5,-1
 1668 1416 l 257,6,-1
 1715 1543 l 257,7,-1
 1506 1543 l 257,4,-1
911 -91 m 257,8,-1
 856 -242 l 257,9,-1
 1070 -242 l 257,10,-1
 1125 -91 l 257,11,-1
 911 -91 l 257,8,-1
EndSplineSet
EndChar

StartChar: bracketright
Encoding: 93 93 142
GlifName: bracketright
Width: 2048
VWidth: 0
GlyphClass: 2
Flags: W
LayerCount: 2
Fore
SplineSet
1597 1542 m 257,0,-1
 948 -242 l 257,1,-1
 1070 -242 l 257,2,-1
 1719 1542 l 257,3,-1
 1597 1542 l 257,0,-1
1448 1543 m 257,4,-1
 1401 1416 l 257,5,-1
 1609 1416 l 257,6,-1
 1656 1543 l 257,7,-1
 1448 1543 l 257,4,-1
853 -91 m 257,8,-1
 798 -242 l 257,9,-1
 1012 -242 l 257,10,-1
 1067 -91 l 257,11,-1
 853 -91 l 257,8,-1
EndSplineSet
EndChar

StartChar: breve
Encoding: 728 728 143
GlifName: breve
Width: 2048
VWidth: 0
GlyphClass: 2
Flags: W
LayerCount: 2
Fore
SplineSet
1665 1548 m 257,0,-1
 1641 1480 l 257,1,-1
 1830 1548 l 257,2,-1
 1866 1645 l 257,3,-1
 1665 1548 l 257,0,-1
1341 1548 m 257,4,-1
 1317 1480 l 257,5,-1
 1641 1480 l 257,6,-1
 1665 1548 l 257,7,-1
 1341 1548 l 257,4,-1
1200 1630 m 257,8,-1
 1170 1548 l 257,9,-1
 1317 1480 l 257,10,-1
 1341 1548 l 257,11,-1
 1200 1630 l 257,8,-1
EndSplineSet
EndChar

StartChar: brokenbar
Encoding: 166 166 144
GlifName: brokenbar
Width: 2048
VWidth: 0
GlyphClass: 2
Flags: W
LayerCount: 2
Fore
SplineSet
846 -332 m 257,0,-1
 956 -332 l 257,1,-1
 1325 682 l 257,2,-1
 1215 682 l 257,3,-1
 846 -332 l 257,0,-1
1258 790 m 257,4,-1
 1369 790 l 257,5,-1
 1676 1636 l 257,6,-1
 1565 1636 l 257,7,-1
 1258 790 l 257,4,-1
EndSplineSet
EndChar

StartChar: bullet
Encoding: 8226 8226 145
GlifName: bullet
Width: 2048
VWidth: 0
GlyphClass: 2
Flags: W
LayerCount: 2
Fore
SplineSet
1254 1023 m 257,0,-1
 1160 765 l 257,1,-1
 1444 765 l 257,2,-1
 1538 1023 l 257,3,-1
 1254 1023 l 257,0,-1
EndSplineSet
EndChar

StartChar: c
Encoding: 99 99 146
GlifName: c
Width: 2048
VWidth: 0
GlyphClass: 2
Flags: W
AnchorPoint: "base" 1014 -91 basechar 0
AnchorPoint: "top" 1398 1123 basechar 0
LayerCount: 2
Fore
SplineSet
543 1023 m 257,0,-1
 472 826 l 257,1,-1
 2178 826 l 257,2,-1
 2249 1023 l 257,3,-1
 543 1023 l 257,0,-1
531 984 m 257,4,-1
 173 0 l 257,5,-1
 375 0 l 257,6,-1
 733 984 l 257,7,-1
 531 984 l 257,4,-1
352 201 m 257,8,-1
 279 0 l 257,9,-1
 1871 0 l 257,10,-1
 1944 201 l 257,11,-1
 352 201 l 257,8,-1
EndSplineSet
EndChar

StartChar: caron
Encoding: 711 711 148
GlifName: caron
Width: 2048
VWidth: 0
GlyphClass: 2
Flags: W
LayerCount: 2
Fore
SplineSet
1400 1158 m 257,0,-1
 1393 1430 l 257,1,-1
 1324 1405 l 257,2,-1
 1340 1158 l 257,3,-1
 1400 1158 l 257,0,-1
1360 1206 m 257,4,-1
 1400 1158 l 257,5,-1
 1596 1408 l 257,6,-1
 1544 1430 l 257,7,-1
 1360 1206 l 257,4,-1
EndSplineSet
EndChar

StartChar: cedilla
Encoding: 184 184 153
GlifName: cedilla
Width: 2048
VWidth: 0
GlyphClass: 2
Flags: W
LayerCount: 2
Fore
SplineSet
867 185 m 257,0,-1
 749 -139 l 257,1,-1
 905 -139 l 257,2,-1
 1023 185 l 257,3,-1
 867 185 l 257,0,-1
699 -283 m 257,4,-1
 654 -406 l 257,5,-1
 1100 -406 l 257,6,-1
 1145 -283 l 257,7,-1
 699 -283 l 257,4,-1
1098 5 m 257,8,-1
 962 -367 l 257,9,-1
 1114 -367 l 257,10,-1
 1250 5 l 257,11,-1
 1098 5 l 257,8,-1
804 5 m 257,12,-1
 747 -151 l 257,13,-1
 1193 -151 l 257,14,-1
 1250 5 l 257,15,-1
 804 5 l 257,12,-1
EndSplineSet
EndChar

StartChar: cent
Encoding: 162 162 154
GlifName: cent
Width: 2048
VWidth: 0
GlyphClass: 2
Flags: W
LayerCount: 2
Fore
SplineSet
1634 1183 m 257,0,-1
 1487 1183 l 257,1,-1
 1025 -86 l 257,2,-1
 1172 -86 l 257,3,-1
 1634 1183 l 257,0,-1
1048 1023 m 257,4,-1
 977 826 l 257,5,-1
 1673 826 l 257,6,-1
 1744 1023 l 257,7,-1
 1048 1023 l 257,4,-1
1036 984 m 257,8,-1
 678 0 l 257,9,-1
 880 0 l 257,10,-1
 1238 984 l 257,11,-1
 1036 984 l 257,8,-1
857 201 m 257,12,-1
 784 0 l 257,13,-1
 1366 0 l 257,14,-1
 1439 201 l 257,15,-1
 857 201 l 257,12,-1
EndSplineSet
EndChar

StartChar: circumflex
Encoding: 710 710 155
GlifName: circumflex
Width: 2048
VWidth: 0
GlyphClass: 2
Flags: W
LayerCount: 2
Fore
SplineSet
1557 1298 m 257,0,-1
 1497 1298 l 257,1,-1
 1302 1051 l 257,2,-1
 1352 1026 l 257,3,-1
 1557 1298 l 257,0,-1
1482 1250 m 257,4,-1
 1504 1026 l 257,5,-1
 1572 1048 l 257,6,-1
 1557 1298 l 257,7,-1
 1482 1250 l 257,4,-1
EndSplineSet
EndChar

StartChar: colon
Encoding: 58 58 156
GlifName: colon
Width: 2048
VWidth: 0
GlyphClass: 2
Flags: W
LayerCount: 2
Fore
SplineSet
1069 430 m 257,0,-1
 985 201 l 257,1,-1
 1233 201 l 257,2,-1
 1317 430 l 257,3,-1
 1069 430 l 257,0,-1
1359 1294 m 257,4,-1
 1269 1047 l 257,5,-1
 1535 1047 l 257,6,-1
 1625 1294 l 257,7,-1
 1359 1294 l 257,4,-1
EndSplineSet
EndChar

StartChar: comma
Encoding: 44 44 157
GlifName: comma
Width: 2048
VWidth: 0
GlyphClass: 2
Flags: W
LayerCount: 2
Fore
SplineSet
996 237 m 257,0,-1
 913 8 l 257,1,-1
 1161 8 l 257,2,-1
 1244 237 l 257,3,-1
 996 237 l 257,0,-1
1057 135 m 257,4,-1
 837 -146 l 257,5,-1
 959 -206 l 257,6,-1
 1156 0 l 257,7,-1
 1057 135 l 257,4,-1
EndSplineSet
EndChar

StartChar: copyright
Encoding: 169 169 158
GlifName: copyright
Width: 2048
VWidth: 0
GlyphClass: 2
Flags: W
LayerCount: 2
Fore
SplineSet
583 1537 m 257,0,-1
 24 0 l 257,1,-1
 224 0 l 257,2,-1
 783 1537 l 257,3,-1
 583 1537 l 257,0,-1
2381 1537 m 257,4,-1
 1822 0 l 257,5,-1
 2024 0 l 257,6,-1
 2583 1537 l 257,7,-1
 2381 1537 l 257,4,-1
693 1537 m 257,8,-1
 621 1337 l 257,9,-1
 2311 1337 l 257,10,-1
 2383 1537 l 257,11,-1
 693 1537 l 257,8,-1
232 204 m 257,12,-1
 158 0 l 257,13,-1
 1830 0 l 257,14,-1
 1904 204 l 257,15,-1
 232 204 l 257,12,-1
706 1197 m 257,16,-1
 633 996 l 257,17,-1
 2067 996 l 257,18,-1
 2140 1197 l 257,19,-1
 706 1197 l 257,16,-1
690 1154 m 257,20,-1
 394 340 l 257,21,-1
 564 340 l 257,22,-1
 860 1154 l 257,23,-1
 690 1154 l 257,20,-1
450 495 m 257,24,-1
 377 294 l 257,25,-1
 1817 294 l 257,26,-1
 1890 495 l 257,27,-1
 450 495 l 257,24,-1
EndSplineSet
EndChar

StartChar: currency
Encoding: 164 164 159
GlifName: currency
Width: 2048
VWidth: 0
GlyphClass: 2
Flags: W
LayerCount: 2
Fore
SplineSet
553 1202 m 257,0,-1
 182 180 l 257,1,-1
 382 180 l 257,2,-1
 753 1202 l 257,3,-1
 553 1202 l 257,0,-1
2169 1204 m 257,4,-1
 1797 180 l 257,5,-1
 1999 180 l 257,6,-1
 2371 1204 l 257,7,-1
 2169 1204 l 257,4,-1
677 1204 m 257,8,-1
 604 1002 l 257,9,-1
 2190 1002 l 257,10,-1
 2263 1204 l 257,11,-1
 677 1204 l 257,8,-1
381 380 m 257,12,-1
 309 181 l 257,13,-1
 1881 181 l 257,14,-1
 1953 380 l 257,15,-1
 381 380 l 257,12,-1
551 1372 m 257,16,-1
 461 1125 l 257,17,-1
 727 1125 l 257,18,-1
 817 1372 l 257,19,-1
 551 1372 l 257,16,-1
2229 1371 m 257,20,-1
 2139 1124 l 257,21,-1
 2405 1124 l 257,22,-1
 2495 1371 l 257,23,-1
 2229 1371 l 257,20,-1
148 270 m 257,24,-1
 58 23 l 257,25,-1
 324 23 l 257,26,-1
 414 270 l 257,27,-1
 148 270 l 257,24,-1
1834 279 m 257,28,-1
 1744 32 l 257,29,-1
 2010 32 l 257,30,-1
 2100 279 l 257,31,-1
 1834 279 l 257,28,-1
EndSplineSet
EndChar

StartChar: d
Encoding: 100 100 160
GlifName: d
Width: 2048
VWidth: 0
GlyphClass: 2
Flags: W
AnchorPoint: "base" 1015 -59 basechar 0
AnchorPoint: "top" 2372 1632 basechar 0
LayerCount: 2
Fore
SplineSet
2260 1527 m 257,0,-1
 1704 0 l 257,1,-1
 1904 0 l 257,2,-1
 2460 1527 l 257,3,-1
 2260 1527 l 257,0,-1
612 1023 m 257,4,-1
 539 822 l 257,5,-1
 2091 822 l 257,6,-1
 2164 1023 l 257,7,-1
 612 1023 l 257,4,-1
516 1023 m 257,8,-1
 144 0 l 257,9,-1
 344 0 l 257,10,-1
 716 1023 l 257,11,-1
 516 1023 l 257,8,-1
311 195 m 257,12,-1
 240 0 l 257,13,-1
 1856 0 l 257,14,-1
 1927 195 l 257,15,-1
 311 195 l 257,12,-1
EndSplineSet
EndChar

StartChar: dagger
Encoding: 8224 8224 161
GlifName: dagger
Width: 2048
VWidth: 0
GlyphClass: 2
Flags: W
LayerCount: 2
Fore
SplineSet
1176 1251 m 257,0,-1
 1116 1086 l 257,1,-1
 1722 1086 l 257,2,-1
 1782 1251 l 257,3,-1
 1176 1251 l 257,0,-1
1508 1548 m 257,4,-1
 945 0 l 257,5,-1
 1090 0 l 257,6,-1
 1653 1548 l 257,7,-1
 1508 1548 l 257,4,-1
EndSplineSet
EndChar

StartChar: daggerdbl
Encoding: 8225 8225 162
GlifName: daggerdbl
Width: 2048
VWidth: 0
GlyphClass: 2
Flags: W
LayerCount: 2
Fore
SplineSet
1062 937 m 257,0,-1
 1002 772 l 257,1,-1
 1608 772 l 257,2,-1
 1668 937 l 257,3,-1
 1062 937 l 257,0,-1
1176 1251 m 257,4,-1
 1116 1086 l 257,5,-1
 1722 1086 l 257,6,-1
 1782 1251 l 257,7,-1
 1176 1251 l 257,4,-1
1508 1548 m 257,8,-1
 945 0 l 257,9,-1
 1090 0 l 257,10,-1
 1653 1548 l 257,11,-1
 1508 1548 l 257,8,-1
EndSplineSet
EndChar

StartChar: dcaron
Encoding: 271 271 163
GlifName: dcaron
Width: 2048
VWidth: 0
GlyphClass: 2
Flags: W
LayerCount: 2
Fore
SplineSet
2193 1527 m 257,0,-1
 1637 0 l 257,1,-1
 1838 0 l 257,2,-1
 2394 1527 l 257,3,-1
 2193 1527 l 257,0,-1
521 1023 m 257,4,-1
 448 822 l 257,5,-1
 2025 822 l 257,6,-1
 2098 1023 l 257,7,-1
 521 1023 l 257,4,-1
425 1023 m 257,8,-1
 53 0 l 257,9,-1
 254 0 l 257,10,-1
 626 1023 l 257,11,-1
 425 1023 l 257,8,-1
220 195 m 257,12,-1
 149 0 l 257,13,-1
 1790 0 l 257,14,-1
 1861 195 l 257,15,-1
 220 195 l 257,12,-1
2428 1496 m 257,16,-1
 2344 1264 l 257,17,-1
 2474 1264 l 257,18,-1
 2558 1496 l 257,19,-1
 2428 1496 l 257,16,-1
EndSplineSet
EndChar

StartChar: dcroat
Encoding: 273 273 164
GlifName: dcroat
Width: 2048
VWidth: 0
GlyphClass: 2
Flags: W
AnchorPoint: "top" 2374 1659 basechar 0
AnchorPoint: "base" 1032 -128 basechar 0
LayerCount: 2
Fore
SplineSet
2272 1527 m 257,0,-1
 1716 0 l 257,1,-1
 1917 0 l 257,2,-1
 2473 1527 l 257,3,-1
 2272 1527 l 257,0,-1
600 1023 m 257,4,-1
 527 822 l 257,5,-1
 2104 822 l 257,6,-1
 2177 1023 l 257,7,-1
 600 1023 l 257,4,-1
504 1023 m 257,8,-1
 132 0 l 257,9,-1
 333 0 l 257,10,-1
 705 1023 l 257,11,-1
 504 1023 l 257,8,-1
299 195 m 257,12,-1
 228 0 l 257,13,-1
 1869 0 l 257,14,-1
 1940 195 l 257,15,-1
 299 195 l 257,12,-1
2090 1403 m 257,16,-1
 2016 1202 l 257,17,-1
 2460 1202 l 257,18,-1
 2534 1403 l 257,19,-1
 2090 1403 l 257,16,-1
EndSplineSet
EndChar

StartChar: degree
Encoding: 176 176 165
GlifName: degree
Width: 2048
VWidth: 0
GlyphClass: 2
Flags: W
LayerCount: 2
Fore
SplineSet
1479 1456 m 257,0,-1
 1627 1456 l 257,1,-1
 1580 1326 l 257,2,-1
 1432 1326 l 257,3,-1
 1479 1456 l 257,0,-1
1407 1548 m 257,4,-1
 1295 1238 l 257,5,-1
 1655 1238 l 257,6,-1
 1767 1548 l 257,7,-1
 1407 1548 l 257,4,-1
EndSplineSet
EndChar

StartChar: dieresis
Encoding: 168 168 166
GlifName: dieresis
Width: 2048
VWidth: 0
GlyphClass: 2
Flags: W
LayerCount: 2
Fore
SplineSet
1094 1016 m 257,0,-1
 1039 865 l 257,1,-1
 1207 865 l 257,2,-1
 1262 1016 l 257,3,-1
 1094 1016 l 257,0,-1
1458 1016 m 257,4,-1
 1403 865 l 257,5,-1
 1571 865 l 257,6,-1
 1626 1016 l 257,7,-1
 1458 1016 l 257,4,-1
EndSplineSet
EndChar

StartChar: divide
Encoding: 247 247 167
GlifName: divide
Width: 2048
VWidth: 0
GlyphClass: 2
Flags: W
LayerCount: 2
Fore
SplineSet
1069 430 m 257,0,-1
 985 201 l 257,1,-1
 1233 201 l 257,2,-1
 1317 430 l 257,3,-1
 1069 430 l 257,0,-1
1359 1294 m 257,4,-1
 1269 1047 l 257,5,-1
 1535 1047 l 257,6,-1
 1625 1294 l 257,7,-1
 1359 1294 l 257,4,-1
905 808 m 257,8,-1
 829 600 l 257,9,-1
 1655 600 l 257,10,-1
 1731 808 l 257,11,-1
 905 808 l 257,8,-1
EndSplineSet
EndChar

StartChar: dollar
Encoding: 36 36 168
GlifName: dollar
Width: 2048
VWidth: 0
GlyphClass: 2
Flags: W
LayerCount: 2
Fore
SplineSet
1197 1537 m 257,0,-1
 1132 1358 l 257,1,-1
 1730 1358 l 257,2,-1
 1795 1537 l 257,3,-1
 1197 1537 l 257,0,-1
1199 1542 m 257,4,-1
 1012 1028 l 257,5,-1
 1217 1028 l 257,6,-1
 1404 1542 l 257,7,-1
 1199 1542 l 257,4,-1
725 163 m 257,8,-1
 666 0 l 257,9,-1
 1374 0 l 257,10,-1
 1433 163 l 257,11,-1
 725 163 l 257,8,-1
1204 0 m 257,12,-1
 1410 0 l 257,13,-1
 1539 355 l 257,14,-1
 1333 355 l 257,15,-1
 1204 0 l 257,12,-1
1012 1028 m 257,16,-1
 1333 355 l 257,17,-1
 1539 355 l 257,18,-1
 1217 1028 l 257,19,-1
 1012 1028 l 257,16,-1
1492 1636 m 257,20,-1
 819 -215 l 257,21,-1
 1033 -215 l 257,22,-1
 1706 1636 l 257,23,-1
 1492 1636 l 257,20,-1
EndSplineSet
EndChar

StartChar: dotaccent
Encoding: 729 729 169
GlifName: dotaccent
Width: 2048
VWidth: 0
GlyphClass: 2
Flags: W
LayerCount: 2
Fore
SplineSet
1280 1023 m 257,0,-1
 1245 926 l 257,1,-1
 1357 926 l 257,2,-1
 1392 1023 l 257,3,-1
 1280 1023 l 257,0,-1
EndSplineSet
EndChar

StartChar: dotbelowcomb
Encoding: 803 803 170
GlifName: dotbelowcomb
Width: 0
VWidth: 0
GlyphClass: 4
Flags: W
AnchorPoint: "base" -14 -187 mark 0
LayerCount: 2
Fore
SplineSet
-206 -204 m 257,0,-1
 -296 -451 l 257,1,-1
 -32 -451 l 257,2,-1
 58 -204 l 257,3,-1
 -206 -204 l 257,0,-1
EndSplineSet
EndChar

StartChar: dotlessi
Encoding: 305 305 171
GlifName: dotlessi
Width: 2048
VWidth: 0
GlyphClass: 2
Flags: W
AnchorPoint: "top" 1394 1114 basechar 0
AnchorPoint: "base" 1105 -35 basechar 0
LayerCount: 2
Fore
SplineSet
1294 1018 m 257,0,-1
 974 139 l 257,1,-1
 1176 139 l 257,2,-1
 1496 1018 l 257,3,-1
 1294 1018 l 257,0,-1
227 204 m 257,4,-1
 155 6 l 257,5,-1
 1897 6 l 257,6,-1
 1969 204 l 257,7,-1
 227 204 l 257,4,-1
574 1018 m 257,8,-1
 501 818 l 257,9,-1
 1377 818 l 257,10,-1
 1450 1018 l 257,11,-1
 574 1018 l 257,8,-1
EndSplineSet
EndChar

StartChar: e
Encoding: 101 101 172
GlifName: e
Width: 2048
VWidth: 0
GlyphClass: 2
Flags: W
AnchorPoint: "top" 1444 1113 basechar 0
AnchorPoint: "base" 1019 -82 basechar 0
LayerCount: 2
Fore
SplineSet
602 1023 m 257,0,-1
 526 812 l 257,1,-1
 2160 812 l 257,2,-1
 2236 1023 l 257,3,-1
 602 1023 l 257,0,-1
552 1023 m 257,4,-1
 180 0 l 257,5,-1
 382 0 l 257,6,-1
 754 1023 l 257,7,-1
 552 1023 l 257,4,-1
355 201 m 257,8,-1
 282 0 l 257,9,-1
 1864 0 l 257,10,-1
 1937 201 l 257,11,-1
 355 201 l 257,8,-1
477 625 m 257,12,-1
 412 446 l 257,13,-1
 2002 446 l 257,14,-1
 2067 625 l 257,15,-1
 477 625 l 257,12,-1
2029 993 m 257,16,-1
 1830 445 l 257,17,-1
 2024 445 l 257,18,-1
 2223 993 l 257,19,-1
 2029 993 l 257,16,-1
EndSplineSet
EndChar

StartChar: eight
Encoding: 56 56 180
GlifName: eight
Width: 2048
VWidth: 0
GlyphClass: 2
Flags: W
LayerCount: 2
Fore
SplineSet
619 1548 m 257,0,-1
 56 0 l 257,1,-1
 1993 0 l 257,2,-1
 2556 1548 l 257,3,-1
 619 1548 l 257,0,-1
2067 759 m 257,4,-1
 1863 197 l 257,5,-1
 332 197 l 257,6,-1
 536 759 l 257,7,-1
 2067 759 l 257,4,-1
2141 959 m 257,8,-1
 609 959 l 257,9,-1
 751 1350 l 257,10,-1
 2283 1350 l 257,11,-1
 2141 959 l 257,8,-1
EndSplineSet
EndChar

StartChar: ellipsis
Encoding: 8230 8230 181
GlifName: ellipsis
Width: 2048
VWidth: 0
GlyphClass: 2
Flags: W
LayerCount: 2
Fore
SplineSet
733 114 m 257,0,-1
 692 0 l 257,1,-1
 834 0 l 257,2,-1
 875 114 l 257,3,-1
 733 114 l 257,0,-1
989 114 m 257,4,-1
 948 0 l 257,5,-1
 1092 0 l 257,6,-1
 1133 114 l 257,7,-1
 989 114 l 257,4,-1
1255 114 m 257,8,-1
 1214 0 l 257,9,-1
 1356 0 l 257,10,-1
 1397 114 l 257,11,-1
 1255 114 l 257,8,-1
EndSplineSet
EndChar

StartChar: emdash
Encoding: 8212 8212 183
GlifName: emdash
Width: 2048
VWidth: 0
GlyphClass: 2
Flags: W
LayerCount: 2
Fore
SplineSet
305 600 m 257,0,-1
 2168 600 l 257,1,-1
 2244 808 l 257,2,-1
 381 808 l 257,3,-1
 305 600 l 257,0,-1
EndSplineSet
EndChar

StartChar: endash
Encoding: 8211 8211 184
GlifName: endash
Width: 2048
VWidth: 0
GlyphClass: 2
Flags: W
LayerCount: 2
Fore
SplineSet
829 600 m 257,0,-1
 1655 600 l 257,1,-1
 1731 808 l 257,2,-1
 905 808 l 257,3,-1
 829 600 l 257,0,-1
EndSplineSet
EndChar

StartChar: eng
Encoding: 331 331 185
GlifName: eng
Width: 2048
VWidth: 0
GlyphClass: 2
Flags: W
AnchorPoint: "top" 1412 1160 basechar 0
AnchorPoint: "base" 916 -400 basechar 0
LayerCount: 2
Fore
SplineSet
1403 -211 m 257,0,-1
 1332 -408 l 257,1,-1
 1718 -408 l 257,2,-1
 1790 -211 l 257,3,-1
 1403 -211 l 257,0,-1
604 990 m 257,4,-1
 244 0 l 257,5,-1
 445 0 l 257,6,-1
 805 990 l 257,7,-1
 604 990 l 257,4,-1
2022 976 m 257,8,-1
 1518 -408 l 257,9,-1
 1720 -408 l 257,10,-1
 2223 976 l 257,11,-1
 2022 976 l 257,8,-1
437 1023 m 257,12,-1
 366 826 l 257,13,-1
 2168 826 l 257,14,-1
 2239 1023 l 257,15,-1
 437 1023 l 257,12,-1
EndSplineSet
EndChar

StartChar: equal
Encoding: 61 61 187
GlifName: equal
Width: 2048
VWidth: 0
GlyphClass: 2
Flags: W
LayerCount: 2
Fore
SplineSet
949 914 m 257,0,-1
 880 724 l 257,1,-1
 1696 724 l 257,2,-1
 1765 914 l 257,3,-1
 949 914 l 257,0,-1
813 540 m 257,4,-1
 743 350 l 257,5,-1
 1559 350 l 257,6,-1
 1629 540 l 257,7,-1
 813 540 l 257,4,-1
EndSplineSet
EndChar

StartChar: eth
Encoding: 240 240 188
GlifName: eth
Width: 2048
VWidth: 0
GlyphClass: 2
Flags: W
AnchorPoint: "top" 1940 1664 basechar 0
AnchorPoint: "base" 1084 -112 basechar 0
LayerCount: 2
Fore
SplineSet
1828 1548 m 257,0,-1
 1716 0 l 257,1,-1
 1917 0 l 257,2,-1
 2029 1548 l 257,3,-1
 1828 1548 l 257,0,-1
600 1023 m 257,4,-1
 527 822 l 257,5,-1
 1892 822 l 257,6,-1
 1965 1023 l 257,7,-1
 600 1023 l 257,4,-1
504 1023 m 257,8,-1
 132 0 l 257,9,-1
 333 0 l 257,10,-1
 705 1023 l 257,11,-1
 504 1023 l 257,8,-1
299 195 m 257,12,-1
 228 0 l 257,13,-1
 1869 0 l 257,14,-1
 1940 195 l 257,15,-1
 299 195 l 257,12,-1
1700 1416 m 257,16,-1
 1632 1229 l 257,17,-1
 2164 1229 l 257,18,-1
 2232 1416 l 257,19,-1
 1700 1416 l 257,16,-1
EndSplineSet
EndChar

StartChar: exclam
Encoding: 33 33 189
GlifName: exclam
Width: 2048
VWidth: 0
GlyphClass: 2
Flags: W
LayerCount: 2
Fore
SplineSet
998 126 m 257,0,-1
 1142 126 l 257,1,-1
 1232 374 l 257,2,-1
 1088 374 l 257,3,-1
 998 126 l 257,0,-1
1184 611 m 257,4,-1
 1312 611 l 257,5,-1
 1683 1629 l 257,6,-1
 1555 1629 l 257,7,-1
 1184 611 l 257,4,-1
EndSplineSet
EndChar

StartChar: exclamdown
Encoding: 161 161 190
GlifName: exclamdown
Width: 2048
VWidth: 0
GlyphClass: 2
Flags: W
LayerCount: 2
Fore
SplineSet
1649 1520 m 257,0,-1
 1505 1520 l 257,1,-1
 1415 1272 l 257,2,-1
 1559 1272 l 257,3,-1
 1649 1520 l 257,0,-1
1463 1035 m 257,4,-1
 1335 1035 l 257,5,-1
 964 17 l 257,6,-1
 1092 17 l 257,7,-1
 1463 1035 l 257,4,-1
EndSplineSet
EndChar

StartChar: f
Encoding: 102 102 191
GlifName: f
Width: 2048
VWidth: 0
GlyphClass: 2
Flags: W
AnchorPoint: "top" 1868 1641 basechar 0
AnchorPoint: "base" 822 -147 basechar 0
LayerCount: 2
Fore
SplineSet
1254 1537 m 257,0,-1
 692 -6 l 257,1,-1
 874 -6 l 257,2,-1
 1436 1537 l 257,3,-1
 1254 1537 l 257,0,-1
1312 1537 m 257,4,-1
 1242 1345 l 257,5,-1
 2320 1345 l 257,6,-1
 2390 1537 l 257,7,-1
 1312 1537 l 257,4,-1
275 959 m 257,8,-1
 202 756 l 257,9,-1
 2010 756 l 257,10,-1
 2083 959 l 257,11,-1
 275 959 l 257,8,-1
EndSplineSet
EndChar

StartChar: five
Encoding: 53 53 192
GlifName: five
Width: 2048
VWidth: 0
GlyphClass: 2
Flags: W
LayerCount: 2
Fore
SplineSet
2072 759 m 257,0,-1
 1868 198 l 257,1,-1
 131 198 l 257,2,-1
 59 0 l 257,3,-1
 2001 0 l 257,4,-1
 2350 959 l 257,5,-1
 609 959 l 257,6,-1
 752 1352 l 257,7,-1
 2503 1352 l 257,8,-1
 2574 1548 l 257,9,-1
 623 1548 l 257,10,-1
 336 759 l 257,11,-1
 2072 759 l 257,0,-1
EndSplineSet
EndChar

StartChar: four
Encoding: 52 52 193
GlifName: four
Width: 2048
VWidth: 0
GlyphClass: 2
Flags: W
LayerCount: 2
Fore
SplineSet
368 761 m 257,0,-1
 2034 761 l 257,1,-1
 1760 7 l 257,2,-1
 1956 7 l 257,3,-1
 2516 1548 l 257,4,-1
 2317 1548 l 257,5,-1
 2104 961 l 257,6,-1
 641 961 l 257,7,-1
 854 1548 l 257,8,-1
 654 1548 l 257,9,-1
 368 761 l 257,0,-1
EndSplineSet
EndChar

StartChar: g
Encoding: 103 103 194
GlifName: g
Width: 2048
VWidth: 0
GlyphClass: 2
Flags: W
AnchorPoint: "top" 1430 1144 basechar 0
AnchorPoint: "base" 1003 -450 basechar 0
LayerCount: 2
Fore
SplineSet
610 1023 m 257,0,-1
 238 0 l 257,1,-1
 430 0 l 257,2,-1
 802 1023 l 257,3,-1
 610 1023 l 257,0,-1
650 1023 m 257,4,-1
 578 823 l 257,5,-1
 2094 823 l 257,6,-1
 2166 1023 l 257,7,-1
 650 1023 l 257,4,-1
1994 1023 m 257,8,-1
 1472 -411 l 257,9,-1
 1666 -411 l 257,10,-1
 2188 1023 l 257,11,-1
 1994 1023 l 257,8,-1
373 198 m 257,12,-1
 301 0 l 257,13,-1
 1758 0 l 257,14,-1
 1830 198 l 257,15,-1
 373 198 l 257,12,-1
154 -214 m 257,16,-1
 82 -413 l 257,17,-1
 1617 -413 l 257,18,-1
 1689 -214 l 257,19,-1
 154 -214 l 257,16,-1
EndSplineSet
EndChar

StartChar: germandbls
Encoding: 223 223 198
GlifName: germandbls
Width: 2048
VWidth: 0
GlyphClass: 2
Flags: W
LayerCount: 2
Fore
SplineSet
462 1221 m 257,0,-1
 390 1023 l 257,1,-1
 641 1023 l 257,2,-1
 713 1221 l 257,3,-1
 462 1221 l 257,0,-1
767 1548 m 257,4,-1
 204 0 l 257,5,-1
 410 0 l 257,6,-1
 973 1548 l 257,7,-1
 767 1548 l 257,4,-1
973 1548 m 257,8,-1
 893 1328 l 257,9,-1
 2312 1328 l 257,10,-1
 2392 1548 l 257,11,-1
 973 1548 l 257,8,-1
2277 1548 m 257,12,-1
 2086 1023 l 257,13,-1
 2285 1023 l 257,14,-1
 2476 1548 l 257,15,-1
 2277 1548 l 257,12,-1
2101 1062 m 257,16,-1
 877 1062 l 257,17,-1
 791 826 l 257,18,-1
 2015 826 l 257,19,-1
 2101 1062 l 257,16,-1
2023 848 m 257,20,-1
 1778 175 l 257,21,-1
 1978 175 l 257,22,-1
 2223 848 l 257,23,-1
 2023 848 l 257,20,-1
638 251 m 257,24,-1
 562 40 l 257,25,-1
 1929 40 l 257,26,-1
 2005 251 l 257,27,-1
 638 251 l 257,24,-1
EndSplineSet
EndChar

StartChar: grave
Encoding: 96 96 199
GlifName: grave
Width: 2048
VWidth: 0
GlyphClass: 2
Flags: W
LayerCount: 2
Fore
SplineSet
1371 1358 m 257,0,-1
 1407 1057 l 257,1,-1
 1582 1129 l 257,2,-1
 1545 1430 l 257,3,-1
 1371 1358 l 257,0,-1
EndSplineSet
EndChar

StartChar: gravecomb
Encoding: 768 768 200
GlifName: gravecomb
Width: 0
VWidth: 0
GlyphClass: 4
Flags: W
AnchorPoint: "top" 28 812 mark 0
LayerCount: 2
Fore
SplineSet
-58 1061 m 257,0,-1
 -24 825 l 257,1,-1
 85 871 l 257,2,-1
 51 1108 l 257,3,-1
 -58 1061 l 257,0,-1
EndSplineSet
EndChar

StartChar: greater
Encoding: 62 62 201
GlifName: greater
Width: 2048
VWidth: 0
GlyphClass: 2
Flags: W
LayerCount: 2
Fore
SplineSet
1719 777 m 257,0,-1
 983 1013 l 257,1,-1
 908 807 l 257,2,-1
 1644 568 l 257,3,-1
 1719 777 l 257,0,-1
1719 777 m 257,4,-1
 732 319 l 257,5,-1
 660 122 l 257,6,-1
 1644 568 l 257,7,-1
 1719 777 l 257,4,-1
EndSplineSet
EndChar

StartChar: guillemotleft
Encoding: 171 171 202
GlifName: guillemotleft
Width: 2048
VWidth: 0
GlyphClass: 2
Flags: W
LayerCount: 2
Fore
SplineSet
854 609 m 257,0,-1
 797 454 l 257,1,-1
 1231 631 l 257,2,-1
 1286 784 l 257,3,-1
 854 609 l 257,0,-1
854 609 m 257,4,-1
 797 454 l 257,5,-1
 1044 122 l 257,6,-1
 1098 268 l 257,7,-1
 854 609 l 257,4,-1
1269 609 m 257,8,-1
 1212 454 l 257,9,-1
 1646 631 l 257,10,-1
 1701 784 l 257,11,-1
 1269 609 l 257,8,-1
1269 609 m 257,12,-1
 1212 454 l 257,13,-1
 1459 122 l 257,14,-1
 1513 268 l 257,15,-1
 1269 609 l 257,12,-1
EndSplineSet
EndChar

StartChar: guillemotright
Encoding: 187 187 203
GlifName: guillemotright
Width: 2048
VWidth: 0
GlyphClass: 2
Flags: W
LayerCount: 2
Fore
SplineSet
1638 609 m 257,0,-1
 1332 784 l 257,1,-1
 1277 631 l 257,2,-1
 1581 454 l 257,3,-1
 1638 609 l 257,0,-1
1638 609 m 257,4,-1
 1146 268 l 257,5,-1
 1092 122 l 257,6,-1
 1581 454 l 257,7,-1
 1638 609 l 257,4,-1
1223 609 m 257,8,-1
 917 784 l 257,9,-1
 862 631 l 257,10,-1
 1166 454 l 257,11,-1
 1223 609 l 257,8,-1
1223 609 m 257,12,-1
 731 268 l 257,13,-1
 677 122 l 257,14,-1
 1166 454 l 257,15,-1
 1223 609 l 257,12,-1
EndSplineSet
EndChar

StartChar: guilsinglleft
Encoding: 8249 8249 204
GlifName: guilsinglleft
Width: 2048
VWidth: 0
GlyphClass: 2
Flags: W
LayerCount: 2
Fore
SplineSet
897 777 m 257,0,-1
 821 569 l 257,1,-1
 1726 807 l 257,2,-1
 1801 1013 l 257,3,-1
 897 777 l 257,0,-1
897 777 m 257,4,-1
 821 569 l 257,5,-1
 1474 122 l 257,6,-1
 1546 319 l 257,7,-1
 897 777 l 257,4,-1
EndSplineSet
EndChar

StartChar: guilsinglright
Encoding: 8250 8250 205
GlifName: guilsinglright
Width: 2048
VWidth: 0
GlyphClass: 2
Flags: W
LayerCount: 2
Fore
SplineSet
1719 777 m 257,0,-1
 983 1013 l 257,1,-1
 908 807 l 257,2,-1
 1644 568 l 257,3,-1
 1719 777 l 257,0,-1
1719 777 m 257,4,-1
 732 319 l 257,5,-1
 660 122 l 257,6,-1
 1644 568 l 257,7,-1
 1719 777 l 257,4,-1
EndSplineSet
EndChar

StartChar: h
Encoding: 104 104 206
GlifName: h
Width: 2048
VWidth: 0
GlyphClass: 2
Flags: W
AnchorPoint: "top" 876 1633 basechar 0
AnchorPoint: "base" 1025 -63 basechar 0
LayerCount: 2
Fore
SplineSet
745 1537 m 257,0,-1
 188 6 l 257,1,-1
 388 6 l 257,2,-1
 945 1537 l 257,3,-1
 745 1537 l 257,0,-1
695 1023 m 257,4,-1
 624 826 l 257,5,-1
 2155 826 l 257,6,-1
 2226 1023 l 257,7,-1
 695 1023 l 257,4,-1
2035 1023 m 257,8,-1
 1663 0 l 257,9,-1
 1862 0 l 257,10,-1
 2234 1023 l 257,11,-1
 2035 1023 l 257,8,-1
EndSplineSet
EndChar

StartChar: hbar
Encoding: 295 295 207
GlifName: hbar
Width: 2048
VWidth: 0
GlyphClass: 2
Flags: W
LayerCount: 2
Fore
SplineSet
733 1537 m 257,0,-1
 176 6 l 257,1,-1
 376 6 l 257,2,-1
 933 1537 l 257,3,-1
 733 1537 l 257,0,-1
683 1023 m 257,4,-1
 612 826 l 257,5,-1
 2167 826 l 257,6,-1
 2238 1023 l 257,7,-1
 683 1023 l 257,4,-1
2047 1023 m 257,8,-1
 1675 0 l 257,9,-1
 1874 0 l 257,10,-1
 2246 1023 l 257,11,-1
 2047 1023 l 257,8,-1
558 1429 m 257,12,-1
 482 1221 l 257,13,-1
 938 1221 l 257,14,-1
 1014 1429 l 257,15,-1
 558 1429 l 257,12,-1
EndSplineSet
EndChar

StartChar: hookabovecomb
Encoding: 777 777 209
GlifName: hookabovecomb
Width: 0
VWidth: 0
GlyphClass: 4
Flags: W
AnchorPoint: "top" 6 784 mark 0
LayerCount: 2
Fore
SplineSet
98 1263 m 257,0,-1
 70 1186 l 257,1,-1
 293 1186 l 257,2,-1
 321 1263 l 257,3,-1
 98 1263 l 257,0,-1
279 1263 m 257,4,-1
 192 1026 l 257,5,-1
 236 1026 l 257,6,-1
 323 1263 l 257,7,-1
 279 1263 l 257,4,-1
60 1041 m 257,8,-1
 37 979 l 257,9,-1
 219 979 l 257,10,-1
 242 1041 l 257,11,-1
 60 1041 l 257,8,-1
60 1041 m 257,12,-1
 -7 858 l 257,13,-1
 45 858 l 257,14,-1
 112 1041 l 257,15,-1
 60 1041 l 257,12,-1
EndSplineSet
EndChar

StartChar: hungarumlaut
Encoding: 733 733 210
GlifName: hungarumlaut
Width: 2048
VWidth: 0
GlyphClass: 2
Flags: W
LayerCount: 2
Fore
SplineSet
1165 1134 m 257,0,-1
 1309 1134 l 257,1,-1
 1399 1382 l 257,2,-1
 1255 1382 l 257,3,-1
 1165 1134 l 257,0,-1
1565 1134 m 257,4,-1
 1709 1134 l 257,5,-1
 1799 1382 l 257,6,-1
 1655 1382 l 257,7,-1
 1565 1134 l 257,4,-1
EndSplineSet
EndChar

StartChar: hyphen
Encoding: 45 45 211
GlifName: hyphen
Width: 2048
VWidth: 0
GlyphClass: 2
Flags: W
LayerCount: 2
Fore
SplineSet
905 808 m 257,0,-1
 829 600 l 257,1,-1
 1655 600 l 257,2,-1
 1731 808 l 257,3,-1
 905 808 l 257,0,-1
EndSplineSet
EndChar

StartChar: i
Encoding: 105 105 212
GlifName: i
Width: 2048
VWidth: 0
GlyphClass: 2
Flags: W
AnchorPoint: "top" 1259 1440 basechar 0
AnchorPoint: "base" 1026 -95 basechar 0
LayerCount: 2
Fore
SplineSet
1294 1018 m 257,0,-1
 974 139 l 257,1,-1
 1176 139 l 257,2,-1
 1496 1018 l 257,3,-1
 1294 1018 l 257,0,-1
227 204 m 257,4,-1
 155 6 l 257,5,-1
 1897 6 l 257,6,-1
 1969 204 l 257,7,-1
 227 204 l 257,4,-1
1144 1333 m 257,8,-1
 1071 1133 l 257,9,-1
 1278 1133 l 257,10,-1
 1351 1333 l 257,11,-1
 1144 1333 l 257,8,-1
868 1018 m 257,12,-1
 794 816 l 257,13,-1
 1414 816 l 257,14,-1
 1488 1018 l 257,15,-1
 868 1018 l 257,12,-1
EndSplineSet
EndChar

StartChar: j
Encoding: 106 106 222
GlifName: j
Width: 2048
VWidth: 0
GlyphClass: 2
Flags: W
AnchorPoint: "top" 2220 1424 basechar 0
AnchorPoint: "base" 1025 -476 basechar 0
LayerCount: 2
Fore
SplineSet
2012 1023 m 257,0,-1
 1490 -411 l 257,1,-1
 1688 -411 l 257,2,-1
 2210 1023 l 257,3,-1
 2012 1023 l 257,0,-1
134 -209 m 257,4,-1
 62 -406 l 257,5,-1
 1592 -406 l 257,6,-1
 1664 -209 l 257,7,-1
 134 -209 l 257,4,-1
208 -6 m 257,8,-1
 82 -351 l 257,9,-1
 282 -351 l 257,10,-1
 408 -6 l 257,11,-1
 208 -6 l 257,8,-1
2103 1307 m 257,12,-1
 2032 1112 l 257,13,-1
 2258 1112 l 257,14,-1
 2329 1307 l 257,15,-1
 2103 1307 l 257,12,-1
EndSplineSet
EndChar

StartChar: k
Encoding: 107 107 224
GlifName: k
Width: 2048
VWidth: 0
GlyphClass: 2
Flags: W
AnchorPoint: "base" 1041 -48 basechar 0
AnchorPoint: "top" 767 1638 basechar 0
LayerCount: 2
Fore
SplineSet
662 1537 m 257,0,-1
 105 5 l 257,1,-1
 305 5 l 257,2,-1
 862 1537 l 257,3,-1
 662 1537 l 257,0,-1
340 516 m 257,4,-1
 309 298 l 257,5,-1
 2260 1023 l 257,6,-1
 2043 1023 l 257,7,-1
 340 516 l 257,4,-1
684 596 m 257,8,-1
 433 483 l 257,9,-1
 1707 0 l 257,10,-1
 1945 0 l 257,11,-1
 684 596 l 257,8,-1
EndSplineSet
EndChar

StartChar: l
Encoding: 108 108 225
GlifName: l
Width: 2048
VWidth: 0
GlyphClass: 2
Flags: W
AnchorPoint: "base" 1027 -75 basechar 0
AnchorPoint: "top" 1636 1637 basechar 0
LayerCount: 2
Fore
SplineSet
283 209 m 257,0,-1
 210 9 l 257,1,-1
 1844 9 l 257,2,-1
 1917 209 l 257,3,-1
 283 209 l 257,0,-1
1487 1548 m 257,4,-1
 955 86 l 257,5,-1
 1155 86 l 257,6,-1
 1687 1548 l 257,7,-1
 1487 1548 l 257,4,-1
831 1548 m 257,8,-1
 759 1349 l 257,9,-1
 1494 1349 l 257,10,-1
 1566 1548 l 257,11,-1
 831 1548 l 257,8,-1
EndSplineSet
EndChar

StartChar: lcaron
Encoding: 318 318 227
GlifName: lcaron
Width: 2048
VWidth: 0
GlyphClass: 2
Flags: W
LayerCount: 2
Fore
SplineSet
209 209 m 257,0,-1
 136 9 l 257,1,-1
 1794 9 l 257,2,-1
 1867 209 l 257,3,-1
 209 209 l 257,0,-1
1425 1548 m 257,4,-1
 893 86 l 257,5,-1
 1093 86 l 257,6,-1
 1625 1548 l 257,7,-1
 1425 1548 l 257,4,-1
757 1548 m 257,8,-1
 685 1349 l 257,9,-1
 1432 1349 l 257,10,-1
 1504 1548 l 257,11,-1
 757 1548 l 257,8,-1
1854 1496 m 257,12,-1
 1769 1264 l 257,13,-1
 1899 1264 l 257,14,-1
 1984 1496 l 257,15,-1
 1854 1496 l 257,12,-1
EndSplineSet
EndChar

StartChar: less
Encoding: 60 60 229
GlifName: less
Width: 2048
VWidth: 0
GlyphClass: 2
Flags: W
LayerCount: 2
Fore
SplineSet
897 777 m 257,0,-1
 821 569 l 257,1,-1
 1726 807 l 257,2,-1
 1801 1013 l 257,3,-1
 897 777 l 257,0,-1
897 777 m 257,4,-1
 821 569 l 257,5,-1
 1474 122 l 257,6,-1
 1546 319 l 257,7,-1
 897 777 l 257,4,-1
EndSplineSet
EndChar

StartChar: logicalnot
Encoding: 172 172 230
GlifName: logicalnot
Width: 2048
VWidth: 0
GlyphClass: 2
Flags: W
LayerCount: 2
Fore
SplineSet
1519 935 m 257,0,-1
 1412 640 l 257,1,-1
 1522 640 l 257,2,-1
 1629 935 l 257,3,-1
 1519 935 l 257,0,-1
1089 935 m 257,4,-1
 1053 835 l 257,5,-1
 1603 835 l 257,6,-1
 1639 935 l 257,7,-1
 1089 935 l 257,4,-1
EndSplineSet
EndChar

StartChar: lslash
Encoding: 322 322 231
GlifName: lslash
Width: 2048
VWidth: 0
GlyphClass: 2
Flags: W
LayerCount: 2
Fore
SplineSet
271 209 m 257,0,-1
 198 9 l 257,1,-1
 1856 9 l 257,2,-1
 1929 209 l 257,3,-1
 271 209 l 257,0,-1
1487 1548 m 257,4,-1
 955 86 l 257,5,-1
 1155 86 l 257,6,-1
 1687 1548 l 257,7,-1
 1487 1548 l 257,4,-1
819 1548 m 257,8,-1
 747 1349 l 257,9,-1
 1494 1349 l 257,10,-1
 1566 1548 l 257,11,-1
 819 1548 l 257,8,-1
1882 1213 m 257,12,-1
 646 830 l 257,13,-1
 685 656 l 257,14,-1
 1920 1039 l 257,15,-1
 1882 1213 l 257,12,-1
EndSplineSet
EndChar

StartChar: m
Encoding: 109 109 232
GlifName: m
Width: 2048
VWidth: 0
GlyphClass: 2
Flags: W
AnchorPoint: "base" 1025 -105 basechar 0
AnchorPoint: "top" 1447 1103 basechar 0
LayerCount: 2
Fore
SplineSet
509 993 m 257,0,-1
 148 0 l 257,1,-1
 348 0 l 257,2,-1
 709 993 l 257,3,-1
 509 993 l 257,0,-1
1316 972 m 257,4,-1
 962 0 l 257,5,-1
 1162 0 l 257,6,-1
 1516 972 l 257,7,-1
 1316 972 l 257,4,-1
2133 976 m 257,8,-1
 1778 0 l 257,9,-1
 1978 0 l 257,10,-1
 2333 976 l 257,11,-1
 2133 976 l 257,8,-1
442 1023 m 257,12,-1
 371 826 l 257,13,-1
 2277 826 l 257,14,-1
 2348 1023 l 257,15,-1
 442 1023 l 257,12,-1
EndSplineSet
EndChar

StartChar: macron
Encoding: 175 175 233
GlifName: macron
Width: 2048
VWidth: 0
GlyphClass: 2
Flags: W
LayerCount: 2
Fore
SplineSet
1130 1023 m 257,0,-1
 1100 941 l 257,1,-1
 1660 941 l 257,2,-1
 1690 1023 l 257,3,-1
 1130 1023 l 257,0,-1
EndSplineSet
EndChar

StartChar: mu
Encoding: 181 181 235
GlifName: mu
Width: 2048
VWidth: 0
GlyphClass: 2
Flags: W
LayerCount: 2
Fore
SplineSet
2076 935 m 257,0,-1
 1736 0 l 257,1,-1
 1846 0 l 257,2,-1
 2186 935 l 257,3,-1
 2076 935 l 257,0,-1
346 120 m 257,4,-1
 302 0 l 257,5,-1
 1816 0 l 257,6,-1
 1860 120 l 257,7,-1
 346 120 l 257,4,-1
542 935 m 257,8,-1
 45 -430 l 257,9,-1
 139 -430 l 257,10,-1
 636 935 l 257,11,-1
 542 935 l 257,8,-1
EndSplineSet
EndChar

StartChar: multiply
Encoding: 215 215 236
GlifName: multiply
Width: 2048
VWidth: 0
GlyphClass: 2
Flags: W
LayerCount: 2
Fore
SplineSet
201 302 m 257,0,-1
 524 302 l 257,1,-1
 2433 1323 l 257,2,-1
 2122 1323 l 257,3,-1
 201 302 l 257,0,-1
575 1325 m 257,4,-1
 1755 298 l 257,5,-1
 2066 298 l 257,6,-1
 899 1325 l 257,7,-1
 575 1325 l 257,4,-1
EndSplineSet
EndChar

StartChar: n
Encoding: 110 110 237
GlifName: n
Width: 2048
VWidth: 0
GlyphClass: 2
Flags: W
AnchorPoint: "base" 1032 -71 basechar 0
AnchorPoint: "top" 1514 1127 basechar 0
LayerCount: 2
Fore
SplineSet
674 990 m 257,0,-1
 314 0 l 257,1,-1
 514 0 l 257,2,-1
 874 990 l 257,3,-1
 674 990 l 257,0,-1
2067 976 m 257,4,-1
 1712 0 l 257,5,-1
 1914 0 l 257,6,-1
 2269 976 l 257,7,-1
 2067 976 l 257,4,-1
506 1023 m 257,8,-1
 435 826 l 257,9,-1
 2213 826 l 257,10,-1
 2284 1023 l 257,11,-1
 506 1023 l 257,8,-1
EndSplineSet
EndChar

StartChar: nine
Encoding: 57 57 240
GlifName: nine
Width: 2048
VWidth: 0
GlyphClass: 2
Flags: W
LayerCount: 2
Fore
SplineSet
2081 759 m 257,0,-1
 1878 200 l 257,1,-1
 152 200 l 257,2,-1
 79 0 l 257,3,-1
 2001 0 l 257,4,-1
 2567 1554 l 257,5,-1
 623 1554 l 257,6,-1
 616 1537 l 257,7,-1
 333 759 l 257,8,-1
 2081 759 l 257,0,-1
2151 959 m 257,9,-1
 606 959 l 257,10,-1
 750 1354 l 257,11,-1
 2295 1354 l 257,12,-1
 2151 959 l 257,9,-1
EndSplineSet
EndChar

StartChar: numbersign
Encoding: 35 35 242
GlifName: numbersign
Width: 2048
VWidth: 0
GlyphClass: 2
Flags: W
LayerCount: 2
Fore
SplineSet
1230 1347 m 257,0,-1
 854 313 l 257,1,-1
 994 313 l 257,2,-1
 1370 1347 l 257,3,-1
 1230 1347 l 257,0,-1
1643 1350 m 257,4,-1
 1254 279 l 257,5,-1
 1420 279 l 257,6,-1
 1809 1350 l 257,7,-1
 1643 1350 l 257,4,-1
1033 1157 m 257,8,-1
 980 1010 l 257,9,-1
 1798 1010 l 257,10,-1
 1851 1157 l 257,11,-1
 1033 1157 l 257,8,-1
891 767 m 257,12,-1
 827 592 l 257,13,-1
 1653 592 l 257,14,-1
 1717 767 l 257,15,-1
 891 767 l 257,12,-1
EndSplineSet
EndChar

StartChar: o
Encoding: 111 111 243
GlifName: o
Width: 2048
VWidth: 0
GlyphClass: 2
Flags: W
AnchorPoint: "top" 1416 1124 basechar 0
AnchorPoint: "base" 1025 -72 basechar 0
LayerCount: 2
Fore
SplineSet
488 1023 m 257,0,-1
 116 0 l 257,1,-1
 316 0 l 257,2,-1
 688 1023 l 257,3,-1
 488 1023 l 257,0,-1
2104 1023 m 257,4,-1
 1732 0 l 257,5,-1
 1934 0 l 257,6,-1
 2306 1023 l 257,7,-1
 2104 1023 l 257,4,-1
612 1023 m 257,8,-1
 539 822 l 257,9,-1
 2125 822 l 257,10,-1
 2198 1023 l 257,11,-1
 612 1023 l 257,8,-1
317 200 m 257,12,-1
 244 0 l 257,13,-1
 1816 0 l 257,14,-1
 1889 200 l 257,15,-1
 317 200 l 257,12,-1
EndSplineSet
EndChar

StartChar: oe
Encoding: 339 339 248
GlifName: oe
Width: 2048
VWidth: 0
GlyphClass: 2
Flags: W
AnchorPoint: "top" 1468 1152 basechar 0
AnchorPoint: "base" 1076 -128 basechar 0
LayerCount: 2
Fore
SplineSet
1344 645 m 257,0,-1
 1271 446 l 257,1,-1
 2010 446 l 257,2,-1
 2083 645 l 257,3,-1
 1344 645 l 257,0,-1
2195 1023 m 257,4,-1
 1985 445 l 257,5,-1
 2185 445 l 257,6,-1
 2395 1023 l 257,7,-1
 2195 1023 l 257,4,-1
475 1023 m 257,8,-1
 103 0 l 257,9,-1
 303 0 l 257,10,-1
 675 1023 l 257,11,-1
 475 1023 l 257,8,-1
1335 1023 m 257,12,-1
 963 0 l 257,13,-1
 1163 0 l 257,14,-1
 1535 1023 l 257,15,-1
 1335 1023 l 257,12,-1
530 1023 m 257,16,-1
 458 823 l 257,17,-1
 2183 823 l 257,18,-1
 2255 1023 l 257,19,-1
 530 1023 l 257,16,-1
222 200 m 257,20,-1
 149 0 l 257,21,-1
 2023 0 l 257,22,-1
 2096 200 l 257,23,-1
 222 200 l 257,20,-1
EndSplineSet
EndChar

StartChar: ogonek
Encoding: 731 731 249
GlifName: ogonek
Width: 2048
VWidth: 0
GlyphClass: 2
Flags: W
LayerCount: 2
Fore
SplineSet
653 -274 m 257,0,-1
 609 -396 l 257,1,-1
 1151 -396 l 257,2,-1
 1195 -274 l 257,3,-1
 653 -274 l 257,0,-1
758 14 m 257,4,-1
 609 -396 l 257,5,-1
 727 -396 l 257,6,-1
 876 14 l 257,7,-1
 758 14 l 257,4,-1
758 14 m 257,8,-1
 714 -107 l 257,9,-1
 1256 -107 l 257,10,-1
 1300 14 l 257,11,-1
 758 14 l 257,8,-1
EndSplineSet
EndChar

StartChar: one
Encoding: 49 49 253
GlifName: one
Width: 2048
VWidth: 0
GlyphClass: 2
Flags: W
LayerCount: 2
Fore
SplineSet
1022 0 m 257,0,-1
 1220 0 l 257,1,-1
 1783 1548 l 257,2,-1
 1585 1548 l 257,3,-1
 1022 0 l 257,0,-1
1589 1548 m 257,4,-1
 1284 1252 l 257,5,-1
 1397 1152 l 257,6,-1
 1703 1449 l 257,7,-1
 1589 1548 l 257,4,-1
EndSplineSet
EndChar

StartChar: onehalf
Encoding: 189 189 254
GlifName: onehalf
Width: 2048
VWidth: 0
GlyphClass: 2
Flags: W
LayerCount: 2
Fore
SplineSet
1832 1483 m 257,0,-1
 269 6 l 257,1,-1
 433 -30 l 257,2,-1
 1996 1447 l 257,3,-1
 1832 1483 l 257,0,-1
612 863 m 257,4,-1
 695 863 l 257,5,-1
 944 1548 l 257,6,-1
 861 1548 l 257,7,-1
 612 863 l 257,4,-1
863 1548 m 257,8,-1
 734 1419 l 257,9,-1
 780 1374 l 257,10,-1
 910 1506 l 257,11,-1
 863 1548 l 257,8,-1
1871 633 m 257,12,-1
 2142 633 l 257,13,-1
 2071 437 l 257,14,-1
 1802 437 l 257,15,-1
 1654 30 l 257,16,-1
 2005 30 l 257,17,-1
 2038 120 l 257,18,-1
 1777 120 l 257,19,-1
 1859 347 l 257,20,-1
 2127 347 l 257,21,-1
 2264 723 l 257,22,-1
 1904 723 l 257,23,-1
 1871 633 l 257,12,-1
EndSplineSet
EndChar

StartChar: onequarter
Encoding: 188 188 255
GlifName: onequarter
Width: 2048
VWidth: 0
GlyphClass: 2
Flags: W
LayerCount: 2
Fore
SplineSet
1815 1482 m 257,0,-1
 85 10 l 257,1,-1
 296 10 l 257,2,-1
 2026 1482 l 257,3,-1
 1815 1482 l 257,0,-1
921 1046 m 257,4,-1
 1032 1046 l 257,5,-1
 1214 1548 l 257,6,-1
 1103 1548 l 257,7,-1
 921 1046 l 257,4,-1
1111 1542 m 257,8,-1
 845 1428 l 257,9,-1
 872 1391 l 257,10,-1
 1171 1542 l 257,11,-1
 1111 1542 l 257,8,-1
1218 381 m 257,12,-1
 1845 381 l 257,13,-1
 1709 9 l 257,14,-1
 1828 9 l 257,15,-1
 2105 770 l 257,16,-1
 1982 770 l 257,17,-1
 1865 447 l 257,18,-1
 1363 447 l 257,19,-1
 1481 772 l 257,20,-1
 1360 772 l 257,21,-1
 1218 381 l 257,12,-1
EndSplineSet
EndChar

StartChar: ordfeminine
Encoding: 170 170 256
GlifName: ordfeminine
Width: 2048
VWidth: 0
GlyphClass: 2
Flags: W
LayerCount: 2
Fore
SplineSet
697 1319 m 257,0,-1
 624 1119 l 257,1,-1
 2230 1119 l 257,2,-1
 2303 1319 l 257,3,-1
 697 1319 l 257,0,-1
2190 1320 m 257,4,-1
 1818 296 l 257,5,-1
 2012 296 l 257,6,-1
 2384 1320 l 257,7,-1
 2190 1320 l 257,4,-1
546 894 m 257,8,-1
 474 695 l 257,9,-1
 2098 695 l 257,10,-1
 2170 894 l 257,11,-1
 546 894 l 257,8,-1
538 870 m 257,12,-1
 328 293 l 257,13,-1
 529 293 l 257,14,-1
 739 870 l 257,15,-1
 538 870 l 257,12,-1
400 496 m 257,16,-1
 327 296 l 257,17,-1
 2017 296 l 257,18,-1
 2090 496 l 257,19,-1
 400 496 l 257,16,-1
185 162 m 257,20,-1
 126 0 l 257,21,-1
 1922 0 l 257,22,-1
 1981 162 l 257,23,-1
 185 162 l 257,20,-1
EndSplineSet
EndChar

StartChar: ordmasculine
Encoding: 186 186 257
GlifName: ordmasculine
Width: 2048
VWidth: 0
GlyphClass: 2
Flags: W
LayerCount: 2
Fore
SplineSet
544 1023 m 257,0,-1
 172 0 l 257,1,-1
 372 0 l 257,2,-1
 744 1023 l 257,3,-1
 544 1023 l 257,0,-1
2159 1023 m 257,4,-1
 1787 0 l 257,5,-1
 1989 0 l 257,6,-1
 2361 1023 l 257,7,-1
 2159 1023 l 257,4,-1
667 1023 m 257,8,-1
 594 822 l 257,9,-1
 2180 822 l 257,10,-1
 2253 1023 l 257,11,-1
 667 1023 l 257,8,-1
372 200 m 257,12,-1
 299 0 l 257,13,-1
 1871 0 l 257,14,-1
 1944 200 l 257,15,-1
 372 200 l 257,12,-1
-31 -84 m 257,16,-1
 -79 -216 l 257,17,-1
 1969 -216 l 257,18,-1
 2017 -84 l 257,19,-1
 -31 -84 l 257,16,-1
EndSplineSet
EndChar

StartChar: oslash
Encoding: 248 248 258
GlifName: oslash
Width: 2048
VWidth: 0
GlyphClass: 2
Flags: W
AnchorPoint: "top" 1480 1110 basechar 0
AnchorPoint: "base" 1020 -131 basechar 0
LayerCount: 2
Fore
SplineSet
2285 1164 m 257,0,-1
 7 -5 l 257,1,-1
 134 -103 l 257,2,-1
 2412 1066 l 257,3,-1
 2285 1164 l 257,0,-1
476 1023 m 257,4,-1
 104 0 l 257,5,-1
 304 0 l 257,6,-1
 676 1023 l 257,7,-1
 476 1023 l 257,4,-1
2115 1023 m 257,8,-1
 1743 0 l 257,9,-1
 1945 0 l 257,10,-1
 2317 1023 l 257,11,-1
 2115 1023 l 257,8,-1
599 1023 m 257,12,-1
 526 822 l 257,13,-1
 2136 822 l 257,14,-1
 2209 1023 l 257,15,-1
 599 1023 l 257,12,-1
304 200 m 257,16,-1
 231 0 l 257,17,-1
 1827 0 l 257,18,-1
 1900 200 l 257,19,-1
 304 200 l 257,16,-1
EndSplineSet
EndChar

StartChar: p
Encoding: 112 112 260
GlifName: p
Width: 2048
VWidth: 0
GlyphClass: 2
Flags: W
AnchorPoint: "base" 128 -496 basechar 0
AnchorPoint: "top" 753 1339 basechar 0
LayerCount: 2
Fore
SplineSet
640 1203 m 257,0,-1
 54 -406 l 257,1,-1
 254 -406 l 257,2,-1
 840 1203 l 257,3,-1
 640 1203 l 257,0,-1
672 1023 m 257,4,-1
 599 821 l 257,5,-1
 2137 821 l 257,6,-1
 2210 1023 l 257,7,-1
 672 1023 l 257,4,-1
378 202 m 257,8,-1
 304 0 l 257,9,-1
 1844 0 l 257,10,-1
 1918 202 l 257,11,-1
 378 202 l 257,8,-1
1961 876 m 257,12,-1
 1706 175 l 257,13,-1
 1904 175 l 257,14,-1
 2159 876 l 257,15,-1
 1961 876 l 257,12,-1
EndSplineSet
EndChar

StartChar: paragraph
Encoding: 182 182 261
GlifName: paragraph
Width: 2048
VWidth: 0
GlyphClass: 2
Flags: W
LayerCount: 2
Fore
SplineSet
1013 1130 m 257,0,-1
 961 985 l 257,1,-1
 1525 985 l 257,2,-1
 1577 1130 l 257,3,-1
 1013 1130 l 257,0,-1
1165 1548 m 257,4,-1
 966 1000 l 257,5,-1
 1126 1000 l 257,6,-1
 1325 1548 l 257,7,-1
 1165 1548 l 257,4,-1
1165 1548 m 257,8,-1
 1124 1435 l 257,9,-1
 1944 1435 l 257,10,-1
 1985 1548 l 257,11,-1
 1165 1548 l 257,8,-1
1635 1548 m 257,12,-1
 1072 0 l 257,13,-1
 1216 0 l 257,14,-1
 1779 1548 l 257,15,-1
 1635 1548 l 257,12,-1
1905 1548 m 257,16,-1
 1342 0 l 257,17,-1
 1446 0 l 257,18,-1
 2009 1548 l 257,19,-1
 1905 1548 l 257,16,-1
EndSplineSet
EndChar

StartChar: parenleft
Encoding: 40 40 262
GlifName: parenleft
Width: 2048
VWidth: 0
GlyphClass: 2
Flags: W
LayerCount: 2
Fore
SplineSet
1208 1023 m 257,0,-1
 901 179 l 257,1,-1
 1091 179 l 257,2,-1
 1398 1023 l 257,3,-1
 1208 1023 l 257,0,-1
1748 1633 m 257,4,-1
 1210 1028 l 257,5,-1
 1398 1028 l 257,6,-1
 1781 1640 l 257,7,-1
 1748 1633 l 257,4,-1
901 179 m 257,8,-1
 1032 -406 l 257,9,-1
 1064 -406 l 257,10,-1
 1091 179 l 257,11,-1
 901 179 l 257,8,-1
EndSplineSet
EndChar

StartChar: parenright
Encoding: 41 41 263
GlifName: parenright
Width: 2048
VWidth: 0
GlyphClass: 2
Flags: W
LayerCount: 2
Fore
SplineSet
1372 1023 m 257,0,-1
 1065 179 l 257,1,-1
 1255 179 l 257,2,-1
 1562 1023 l 257,3,-1
 1372 1023 l 257,0,-1
1451 1629 m 257,4,-1
 1372 1023 l 257,5,-1
 1562 1023 l 257,6,-1
 1489 1629 l 257,7,-1
 1451 1629 l 257,4,-1
1065 179 m 257,8,-1
 710 -406 l 257,9,-1
 738 -406 l 257,10,-1
 1255 179 l 257,11,-1
 1065 179 l 257,8,-1
EndSplineSet
EndChar

StartChar: percent
Encoding: 37 37 264
GlifName: percent
Width: 2048
VWidth: 0
GlyphClass: 2
Flags: W
LayerCount: 2
Fore
SplineSet
780 522 m 257,0,-1
 771 377 l 257,1,-1
 1719 716 l 257,2,-1
 1727 860 l 257,3,-1
 780 522 l 257,0,-1
1148 1148 m 257,4,-1
 1029 822 l 257,5,-1
 1107 822 l 257,6,-1
 1226 1148 l 257,7,-1
 1148 1148 l 257,4,-1
1149 1152 m 257,8,-1
 1115 1057 l 257,9,-1
 1463 1057 l 257,10,-1
 1497 1152 l 257,11,-1
 1149 1152 l 257,8,-1
1047 871 m 257,12,-1
 1017 789 l 257,13,-1
 1361 789 l 257,14,-1
 1391 871 l 257,15,-1
 1047 871 l 257,12,-1
1405 1152 m 257,16,-1
 1274 791 l 257,17,-1
 1366 791 l 257,18,-1
 1497 1152 l 257,19,-1
 1405 1152 l 257,16,-1
1217 436 m 257,20,-1
 1098 110 l 257,21,-1
 1176 110 l 257,22,-1
 1295 436 l 257,23,-1
 1217 436 l 257,20,-1
1218 440 m 257,24,-1
 1184 345 l 257,25,-1
 1530 345 l 257,26,-1
 1564 440 l 257,27,-1
 1218 440 l 257,24,-1
1116 159 m 257,28,-1
 1086 77 l 257,29,-1
 1430 77 l 257,30,-1
 1460 159 l 257,31,-1
 1116 159 l 257,28,-1
1472 440 m 257,32,-1
 1341 79 l 257,33,-1
 1433 79 l 257,34,-1
 1564 440 l 257,35,-1
 1472 440 l 257,32,-1
EndSplineSet
EndChar

StartChar: period
Encoding: 46 46 265
GlifName: period
Width: 2048
VWidth: 0
GlyphClass: 2
Flags: W
LayerCount: 2
Fore
SplineSet
982 246 m 257,0,-1
 892 0 l 257,1,-1
 1156 0 l 257,2,-1
 1246 246 l 257,3,-1
 982 246 l 257,0,-1
EndSplineSet
EndChar

StartChar: periodcentered
Encoding: 183 183 266
GlifName: periodcentered
Width: 2048
VWidth: 0
GlyphClass: 2
Flags: W
LayerCount: 2
Fore
SplineSet
1309 1146 m 257,0,-1
 1219 899 l 257,1,-1
 1483 899 l 257,2,-1
 1573 1146 l 257,3,-1
 1309 1146 l 257,0,-1
EndSplineSet
EndChar

StartChar: perthousand
Encoding: 8240 8240 267
GlifName: perthousand
Width: 2048
VWidth: 0
GlyphClass: 2
Flags: W
LayerCount: 2
Fore
SplineSet
1333 436 m 257,0,-1
 1214 110 l 257,1,-1
 1292 110 l 257,2,-1
 1411 436 l 257,3,-1
 1333 436 l 257,0,-1
1334 440 m 257,4,-1
 1300 345 l 257,5,-1
 1646 345 l 257,6,-1
 1680 440 l 257,7,-1
 1334 440 l 257,4,-1
1232 159 m 257,8,-1
 1202 77 l 257,9,-1
 1546 77 l 257,10,-1
 1576 159 l 257,11,-1
 1232 159 l 257,8,-1
1588 440 m 257,12,-1
 1457 79 l 257,13,-1
 1549 79 l 257,14,-1
 1680 440 l 257,15,-1
 1588 440 l 257,12,-1
718 522 m 257,16,-1
 707 377 l 257,17,-1
 1655 716 l 257,18,-1
 1663 860 l 257,19,-1
 718 522 l 257,16,-1
1086 1148 m 257,20,-1
 967 822 l 257,21,-1
 1045 822 l 257,22,-1
 1164 1148 l 257,23,-1
 1086 1148 l 257,20,-1
1087 1152 m 257,24,-1
 1053 1057 l 257,25,-1
 1399 1057 l 257,26,-1
 1433 1152 l 257,27,-1
 1087 1152 l 257,24,-1
985 871 m 257,28,-1
 955 789 l 257,29,-1
 1299 789 l 257,30,-1
 1329 871 l 257,31,-1
 985 871 l 257,28,-1
1341 1152 m 257,32,-1
 1210 791 l 257,33,-1
 1302 791 l 257,34,-1
 1433 1152 l 257,35,-1
 1341 1152 l 257,32,-1
931 436 m 257,36,-1
 812 110 l 257,37,-1
 890 110 l 257,38,-1
 1009 436 l 257,39,-1
 931 436 l 257,36,-1
932 440 m 257,40,-1
 898 345 l 257,41,-1
 1246 345 l 257,42,-1
 1280 440 l 257,43,-1
 932 440 l 257,40,-1
830 159 m 257,44,-1
 800 77 l 257,45,-1
 1144 77 l 257,46,-1
 1174 159 l 257,47,-1
 830 159 l 257,44,-1
1188 440 m 257,48,-1
 1057 79 l 257,49,-1
 1149 79 l 257,50,-1
 1280 440 l 257,51,-1
 1188 440 l 257,48,-1
EndSplineSet
EndChar

StartChar: plus
Encoding: 43 43 268
GlifName: plus
Width: 2048
VWidth: 0
GlyphClass: 2
Flags: W
LayerCount: 2
Fore
SplineSet
1340 1221 m 257,0,-1
 956 165 l 257,1,-1
 1181 165 l 257,2,-1
 1565 1221 l 257,3,-1
 1340 1221 l 257,0,-1
872 821 m 257,4,-1
 796 613 l 257,5,-1
 1698 613 l 257,6,-1
 1774 821 l 257,7,-1
 872 821 l 257,4,-1
EndSplineSet
EndChar

StartChar: plusminus
Encoding: 177 177 269
GlifName: plusminus
Width: 2048
VWidth: 0
GlyphClass: 2
Flags: W
LayerCount: 2
Fore
SplineSet
650 108 m 257,0,-1
 575 -100 l 257,1,-1
 1401 -100 l 257,2,-1
 1476 108 l 257,3,-1
 650 108 l 257,0,-1
1340 1221 m 257,4,-1
 956 165 l 257,5,-1
 1181 165 l 257,6,-1
 1565 1221 l 257,7,-1
 1340 1221 l 257,4,-1
872 821 m 257,8,-1
 796 613 l 257,9,-1
 1698 613 l 257,10,-1
 1774 821 l 257,11,-1
 872 821 l 257,8,-1
EndSplineSet
EndChar

StartChar: q
Encoding: 113 113 270
GlifName: q
Width: 2048
VWidth: 0
GlyphClass: 2
Flags: W
AnchorPoint: "top" 1968 1279 basechar 0
AnchorPoint: "base" 1385 -489 basechar 0
LayerCount: 2
Fore
SplineSet
1861 1201 m 257,0,-1
 1276 -406 l 257,1,-1
 1474 -406 l 257,2,-1
 2059 1201 l 257,3,-1
 1861 1201 l 257,0,-1
522 1023 m 257,4,-1
 450 823 l 257,5,-1
 1900 823 l 257,6,-1
 1972 1023 l 257,7,-1
 522 1023 l 257,4,-1
226 203 m 257,8,-1
 152 0 l 257,9,-1
 1568 0 l 257,10,-1
 1642 203 l 257,11,-1
 226 203 l 257,8,-1
461 855 m 257,12,-1
 189 107 l 257,13,-1
 389 107 l 257,14,-1
 661 855 l 257,15,-1
 461 855 l 257,12,-1
1364 -268 m 257,16,-1
 1314 -406 l 257,17,-1
 1750 -406 l 257,18,-1
 1800 -268 l 257,19,-1
 1364 -268 l 257,16,-1
EndSplineSet
EndChar

StartChar: question
Encoding: 63 63 271
GlifName: question
Width: 2048
VWidth: 0
GlyphClass: 2
Flags: W
LayerCount: 2
Fore
SplineSet
970 247 m 257,0,-1
 880 0 l 257,1,-1
 1126 0 l 257,2,-1
 1216 247 l 257,3,-1
 970 247 l 257,0,-1
1257 1519 m 257,4,-1
 1189 1333 l 257,5,-1
 1825 1333 l 257,6,-1
 1893 1519 l 257,7,-1
 1257 1519 l 257,4,-1
1701 1514 m 257,8,-1
 1502 966 l 257,9,-1
 1696 966 l 257,10,-1
 1895 1514 l 257,11,-1
 1701 1514 l 257,8,-1
1249 1015 m 257,12,-1
 1177 816 l 257,13,-1
 1641 816 l 257,14,-1
 1713 1015 l 257,15,-1
 1249 1015 l 257,12,-1
1248 1011 m 257,16,-1
 1023 392 l 257,17,-1
 1271 392 l 257,18,-1
 1496 1011 l 257,19,-1
 1248 1011 l 257,16,-1
EndSplineSet
EndChar

StartChar: questiondown
Encoding: 191 191 272
GlifName: questiondown
Width: 2048
VWidth: 0
GlyphClass: 2
Flags: W
LayerCount: 2
Fore
SplineSet
1631 1273 m 257,0,-1
 1721 1519 l 257,1,-1
 1471 1519 l 257,2,-1
 1381 1272 l 257,3,-1
 1631 1273 l 257,0,-1
1344 0 m 257,4,-1
 1412 186 l 257,5,-1
 776 186 l 257,6,-1
 708 0 l 257,7,-1
 1344 0 l 257,4,-1
900 5 m 257,8,-1
 1099 553 l 257,9,-1
 905 553 l 257,10,-1
 706 5 l 257,11,-1
 900 5 l 257,8,-1
1351 504 m 257,12,-1
 1424 703 l 257,13,-1
 960 703 l 257,14,-1
 887 504 l 257,15,-1
 1351 504 l 257,12,-1
1353 508 m 257,16,-1
 1578 1127 l 257,17,-1
 1330 1127 l 257,18,-1
 1105 508 l 257,19,-1
 1353 508 l 257,16,-1
EndSplineSet
EndChar

StartChar: quotedbl
Encoding: 34 34 273
GlifName: quotedbl
Width: 2048
VWidth: 0
GlyphClass: 2
Flags: W
LayerCount: 2
Fore
SplineSet
1235 1326 m 257,0,-1
 1379 1326 l 257,1,-1
 1469 1574 l 257,2,-1
 1325 1574 l 257,3,-1
 1235 1326 l 257,0,-1
1635 1326 m 257,4,-1
 1779 1326 l 257,5,-1
 1869 1574 l 257,6,-1
 1725 1574 l 257,7,-1
 1635 1326 l 257,4,-1
EndSplineSet
EndChar

StartChar: quotedblbase
Encoding: 8222 8222 274
GlifName: quotedblbase
Width: 2048
VWidth: 0
GlyphClass: 2
Flags: W
LayerCount: 2
Fore
SplineSet
284 237 m 257,0,-1
 201 8 l 257,1,-1
 449 8 l 257,2,-1
 532 237 l 257,3,-1
 284 237 l 257,0,-1
346 135 m 257,4,-1
 126 -146 l 257,5,-1
 247 -206 l 257,6,-1
 444 0 l 257,7,-1
 346 135 l 257,4,-1
683 237 m 257,8,-1
 600 8 l 257,9,-1
 848 8 l 257,10,-1
 931 237 l 257,11,-1
 683 237 l 257,8,-1
745 135 m 257,12,-1
 525 -146 l 257,13,-1
 646 -206 l 257,14,-1
 843 0 l 257,15,-1
 745 135 l 257,12,-1
EndSplineSet
EndChar

StartChar: quotedblleft
Encoding: 8220 8220 275
GlifName: quotedblleft
Width: 2048
VWidth: 0
GlyphClass: 2
Flags: W
LayerCount: 2
Fore
SplineSet
1640 1842 m 257,0,-1
 1724 2071 l 257,1,-1
 1476 2071 l 257,2,-1
 1392 1842 l 257,3,-1
 1640 1842 l 257,0,-1
1580 1944 m 257,4,-1
 1800 2225 l 257,5,-1
 1678 2285 l 257,6,-1
 1479 2075 l 257,7,-1
 1580 1944 l 257,4,-1
1976 1842 m 257,8,-1
 2060 2071 l 257,9,-1
 1812 2071 l 257,10,-1
 1728 1842 l 257,11,-1
 1976 1842 l 257,8,-1
1916 1944 m 257,12,-1
 2136 2225 l 257,13,-1
 2014 2285 l 257,14,-1
 1815 2075 l 257,15,-1
 1916 1944 l 257,12,-1
EndSplineSet
EndChar

StartChar: quotedblright
Encoding: 8221 8221 276
GlifName: quotedblright
Width: 2048
VWidth: 0
GlyphClass: 2
Flags: W
LayerCount: 2
Fore
SplineSet
1900 2285 m 257,0,-1
 1816 2056 l 257,1,-1
 2064 2056 l 257,2,-1
 2148 2285 l 257,3,-1
 1900 2285 l 257,0,-1
1963 2183 m 257,4,-1
 1742 1902 l 257,5,-1
 1862 1842 l 257,6,-1
 2061 2052 l 257,7,-1
 1963 2183 l 257,4,-1
1582 2285 m 257,8,-1
 1498 2056 l 257,9,-1
 1746 2056 l 257,10,-1
 1830 2285 l 257,11,-1
 1582 2285 l 257,8,-1
1645 2183 m 257,12,-1
 1424 1902 l 257,13,-1
 1544 1842 l 257,14,-1
 1743 2052 l 257,15,-1
 1645 2183 l 257,12,-1
EndSplineSet
EndChar

StartChar: quoteleft
Encoding: 8216 8216 277
GlifName: quoteleft
Width: 2048
VWidth: 0
GlyphClass: 2
Flags: W
LayerCount: 2
Fore
SplineSet
1808 1842 m 257,0,-1
 1892 2071 l 257,1,-1
 1644 2071 l 257,2,-1
 1560 1842 l 257,3,-1
 1808 1842 l 257,0,-1
1748 1944 m 257,4,-1
 1968 2225 l 257,5,-1
 1846 2285 l 257,6,-1
 1647 2075 l 257,7,-1
 1748 1944 l 257,4,-1
EndSplineSet
EndChar

StartChar: quoteright
Encoding: 8217 8217 278
GlifName: quoteright
Width: 2048
VWidth: 0
GlyphClass: 2
Flags: W
LayerCount: 2
Fore
SplineSet
1742 2285 m 257,0,-1
 1658 2056 l 257,1,-1
 1906 2056 l 257,2,-1
 1990 2285 l 257,3,-1
 1742 2285 l 257,0,-1
1803 2183 m 257,4,-1
 1582 1902 l 257,5,-1
 1704 1842 l 257,6,-1
 1903 2052 l 257,7,-1
 1803 2183 l 257,4,-1
EndSplineSet
EndChar

StartChar: quotesinglbase
Encoding: 8218 8218 279
GlifName: quotesinglbase
Width: 2048
VWidth: 0
GlyphClass: 2
Flags: W
LayerCount: 2
Fore
SplineSet
996 237 m 257,0,-1
 913 8 l 257,1,-1
 1161 8 l 257,2,-1
 1244 237 l 257,3,-1
 996 237 l 257,0,-1
1057 135 m 257,4,-1
 837 -146 l 257,5,-1
 959 -206 l 257,6,-1
 1156 0 l 257,7,-1
 1057 135 l 257,4,-1
EndSplineSet
EndChar

StartChar: quotesingle
Encoding: 39 39 280
GlifName: quotesingle
Width: 2048
VWidth: 0
GlyphClass: 2
Flags: W
LayerCount: 2
Fore
SplineSet
1504 1496 m 257,0,-1
 1419 1264 l 257,1,-1
 1549 1264 l 257,2,-1
 1634 1496 l 257,3,-1
 1504 1496 l 257,0,-1
EndSplineSet
EndChar

StartChar: r
Encoding: 114 114 281
GlifName: r
Width: 2048
VWidth: 0
GlyphClass: 2
Flags: W
AnchorPoint: "top" 1391 1122 basechar 0
AnchorPoint: "base" 989 -94 basechar 0
LayerCount: 2
Fore
SplineSet
530 1023 m 257,0,-1
 457 821 l 257,1,-1
 2189 821 l 257,2,-1
 2262 1023 l 257,3,-1
 530 1023 l 257,0,-1
1219 954 m 257,4,-1
 872 0 l 257,5,-1
 1072 0 l 257,6,-1
 1419 954 l 257,7,-1
 1219 954 l 257,4,-1
2045 976 m 257,8,-1
 1927 650 l 257,9,-1
 2127 650 l 257,10,-1
 2245 976 l 257,11,-1
 2045 976 l 257,8,-1
EndSplineSet
EndChar

StartChar: registered
Encoding: 174 174 284
GlifName: registered
Width: 2048
VWidth: 0
GlyphClass: 2
Flags: W
LayerCount: 2
Fore
SplineSet
985 1032 m 257,0,-1
 791 501 l 257,1,-1
 859 501 l 257,2,-1
 1053 1032 l 257,3,-1
 985 1032 l 257,0,-1
1010 1032 m 257,4,-1
 985 963 l 257,5,-1
 1814 963 l 257,6,-1
 1839 1032 l 257,7,-1
 1010 1032 l 257,4,-1
1779 1032 m 257,8,-1
 1695 802 l 257,9,-1
 1764 802 l 257,10,-1
 1848 1032 l 257,11,-1
 1779 1032 l 257,8,-1
948 875 m 257,12,-1
 922 801 l 257,13,-1
 1760 801 l 257,14,-1
 1786 875 l 257,15,-1
 948 875 l 257,12,-1
971 809 m 257,16,-1
 1593 485 l 257,17,-1
 1728 485 l 257,18,-1
 1093 809 l 257,19,-1
 971 809 l 257,16,-1
712 1537 m 257,20,-1
 153 0 l 257,21,-1
 354 0 l 257,22,-1
 913 1537 l 257,23,-1
 712 1537 l 257,20,-1
2251 1537 m 257,24,-1
 1692 0 l 257,25,-1
 1895 0 l 257,26,-1
 2454 1537 l 257,27,-1
 2251 1537 l 257,24,-1
853 1537 m 257,28,-1
 781 1337 l 257,29,-1
 2224 1337 l 257,30,-1
 2296 1537 l 257,31,-1
 853 1537 l 257,28,-1
344 204 m 257,32,-1
 270 0 l 257,33,-1
 1743 0 l 257,34,-1
 1817 204 l 257,35,-1
 344 204 l 257,32,-1
EndSplineSet
EndChar

StartChar: ring
Encoding: 730 730 285
GlifName: ring
Width: 2048
VWidth: 0
GlyphClass: 2
Flags: W
LayerCount: 2
Fore
SplineSet
1405 1252 m 257,0,-1
 1553 1252 l 257,1,-1
 1505 1122 l 257,2,-1
 1357 1122 l 257,3,-1
 1405 1252 l 257,0,-1
1333 1343 m 257,4,-1
 1220 1034 l 257,5,-1
 1580 1034 l 257,6,-1
 1693 1343 l 257,7,-1
 1333 1343 l 257,4,-1
EndSplineSet
EndChar

StartChar: s
Encoding: 115 115 286
GlifName: s
Width: 2048
VWidth: 0
GlyphClass: 2
Flags: W
AnchorPoint: "top" 1422 1117 basechar 0
AnchorPoint: "base" 1021 -76 basechar 0
LayerCount: 2
Fore
SplineSet
591 1023 m 257,0,-1
 520 826 l 257,1,-1
 2129 826 l 257,2,-1
 2200 1023 l 257,3,-1
 591 1023 l 257,0,-1
591 1023 m 257,4,-1
 487 736 l 257,5,-1
 687 736 l 257,6,-1
 791 1023 l 257,7,-1
 591 1023 l 257,4,-1
293 201 m 257,8,-1
 220 0 l 257,9,-1
 1825 0 l 257,10,-1
 1898 201 l 257,11,-1
 293 201 l 257,8,-1
1731 293 m 257,12,-1
 1628 12 l 257,13,-1
 1828 12 l 257,14,-1
 1931 293 l 257,15,-1
 1731 293 l 257,12,-1
488 736 m 257,16,-1
 1731 293 l 257,17,-1
 1931 293 l 257,18,-1
 688 736 l 257,19,-1
 488 736 l 257,16,-1
EndSplineSet
EndChar

StartChar: section
Encoding: 167 167 291
GlifName: section
Width: 2048
VWidth: 0
GlyphClass: 2
Flags: W
LayerCount: 2
Fore
SplineSet
1085 1238 m 257,0,-1
 1011 1035 l 257,1,-1
 1609 1035 l 257,2,-1
 1683 1238 l 257,3,-1
 1085 1238 l 257,0,-1
1086 1241 m 257,4,-1
 854 605 l 257,5,-1
 1056 605 l 257,6,-1
 1288 1241 l 257,7,-1
 1086 1241 l 257,4,-1
648 -61 m 257,8,-1
 575 -260 l 257,9,-1
 1283 -260 l 257,10,-1
 1356 -61 l 257,11,-1
 648 -61 l 257,8,-1
1120 -259 m 257,12,-1
 1320 -259 l 257,13,-1
 1449 95 l 257,14,-1
 1249 95 l 257,15,-1
 1120 -259 l 257,12,-1
854 605 m 257,16,-1
 1249 95 l 257,17,-1
 1449 95 l 257,18,-1
 1056 605 l 257,19,-1
 854 605 l 257,16,-1
1226 1626 m 257,20,-1
 1152 1423 l 257,21,-1
 1750 1423 l 257,22,-1
 1824 1626 l 257,23,-1
 1226 1626 l 257,20,-1
1227 1629 m 257,24,-1
 1084 1237 l 257,25,-1
 1286 1237 l 257,26,-1
 1429 1629 l 257,27,-1
 1227 1629 l 257,24,-1
766 286 m 257,28,-1
 694 87 l 257,29,-1
 1402 87 l 257,30,-1
 1474 286 l 257,31,-1
 766 286 l 257,28,-1
1236 88 m 257,32,-1
 1438 88 l 257,33,-1
 1567 442 l 257,34,-1
 1365 442 l 257,35,-1
 1236 88 l 257,32,-1
1084 1237 m 257,36,-1
 1365 442 l 257,37,-1
 1567 442 l 257,38,-1
 1286 1237 l 257,39,-1
 1084 1237 l 257,36,-1
EndSplineSet
EndChar

StartChar: semicolon
Encoding: 59 59 292
GlifName: semicolon
Width: 2048
VWidth: 0
GlyphClass: 2
Flags: W
LayerCount: 2
Fore
SplineSet
1069 430 m 257,0,-1
 985 201 l 257,1,-1
 1233 201 l 257,2,-1
 1317 430 l 257,3,-1
 1069 430 l 257,0,-1
1129 328 m 257,4,-1
 909 47 l 257,5,-1
 1031 -13 l 257,6,-1
 1230 197 l 257,7,-1
 1129 328 l 257,4,-1
1205 871 m 257,8,-1
 1115 624 l 257,9,-1
 1381 624 l 257,10,-1
 1471 871 l 257,11,-1
 1205 871 l 257,8,-1
EndSplineSet
EndChar

StartChar: seven
Encoding: 55 55 293
GlifName: seven
Width: 2048
VWidth: 0
GlyphClass: 2
Flags: W
LayerCount: 2
Fore
SplineSet
547 1355 m 257,0,-1
 2281 1355 l 257,1,-1
 1788 0 l 257,2,-1
 1991 0 l 257,3,-1
 2558 1557 l 257,4,-1
 621 1557 l 257,5,-1
 547 1355 l 257,0,-1
EndSplineSet
EndChar

StartChar: six
Encoding: 54 54 294
GlifName: six
Width: 2048
VWidth: 0
GlyphClass: 2
Flags: W
LayerCount: 2
Fore
SplineSet
604 1548 m 257,0,-1
 114 201 l 257,1,-1
 41 0 l 257,2,-1
 2004 0 l 257,3,-1
 2353 959 l 257,4,-1
 593 959 l 257,5,-1
 735 1348 l 257,6,-1
 2500 1348 l 257,7,-1
 2572 1548 l 257,8,-1
 604 1548 l 257,0,-1
2072 759 m 257,9,-1
 1870 203 l 257,10,-1
 324 203 l 257,11,-1
 526 759 l 257,12,-1
 2072 759 l 257,9,-1
EndSplineSet
EndChar

StartChar: slash
Encoding: 47 47 295
GlifName: slash
Width: 2048
VWidth: 0
GlyphClass: 2
Flags: W
LayerCount: 2
Fore
SplineSet
1755 1483 m 257,0,-1
 647 6 l 257,1,-1
 809 -67 l 257,2,-1
 1916 1410 l 257,3,-1
 1755 1483 l 257,0,-1
EndSplineSet
EndChar

StartChar: sterling
Encoding: 163 163 297
GlifName: sterling
Width: 2048
VWidth: 0
GlyphClass: 2
Flags: W
LayerCount: 2
Fore
SplineSet
1496 1543 m 257,0,-1
 1423 1344 l 257,1,-1
 1714 1344 l 257,2,-1
 1787 1543 l 257,3,-1
 1496 1543 l 257,0,-1
887 770 m 257,4,-1
 815 571 l 257,5,-1
 1541 571 l 257,6,-1
 1613 770 l 257,7,-1
 887 770 l 257,4,-1
1451 1542 m 257,8,-1
 890 0 l 257,9,-1
 1088 0 l 257,10,-1
 1649 1542 l 257,11,-1
 1451 1542 l 257,8,-1
789 202 m 257,12,-1
 715 0 l 257,13,-1
 1441 0 l 257,14,-1
 1515 202 l 257,15,-1
 789 202 l 257,12,-1
EndSplineSet
EndChar

StartChar: t
Encoding: 116 116 298
GlifName: t
Width: 2048
VWidth: 0
GlyphClass: 2
Flags: W
AnchorPoint: "top" 1612 1652 basechar 0
AnchorPoint: "base" 1020 -92 basechar 0
LayerCount: 2
Fore
SplineSet
1485 1548 m 257,0,-1
 922 0 l 257,1,-1
 1122 0 l 257,2,-1
 1685 1548 l 257,3,-1
 1485 1548 l 257,0,-1
1002 199 m 257,4,-1
 930 0 l 257,5,-1
 1822 0 l 257,6,-1
 1894 199 l 257,7,-1
 1002 199 l 257,4,-1
558 1023 m 257,8,-1
 486 824 l 257,9,-1
 2160 824 l 257,10,-1
 2232 1023 l 257,11,-1
 558 1023 l 257,8,-1
EndSplineSet
EndChar

StartChar: tcaron
Encoding: 357 357 299
GlifName: tcaron
Width: 2048
VWidth: 0
GlyphClass: 2
Flags: W
LayerCount: 2
Fore
SplineSet
1411 1529 m 257,0,-1
 854 0 l 257,1,-1
 1055 0 l 257,2,-1
 1612 1529 l 257,3,-1
 1411 1529 l 257,0,-1
1079 199 m 257,4,-1
 1007 0 l 257,5,-1
 1910 0 l 257,6,-1
 1982 199 l 257,7,-1
 1079 199 l 257,4,-1
442 1023 m 257,8,-1
 370 824 l 257,9,-1
 2173 824 l 257,10,-1
 2245 1023 l 257,11,-1
 442 1023 l 257,8,-1
1940 1496 m 257,12,-1
 1866 1291 l 257,13,-1
 1996 1291 l 257,14,-1
 2070 1496 l 257,15,-1
 1940 1496 l 257,12,-1
EndSplineSet
EndChar

StartChar: thorn
Encoding: 254 254 300
GlifName: thorn
Width: 2048
VWidth: 0
GlyphClass: 2
Flags: W
LayerCount: 2
Fore
SplineSet
549 1034 m 257,0,-1
 25 -406 l 257,1,-1
 225 -406 l 257,2,-1
 749 1034 l 257,3,-1
 549 1034 l 257,0,-1
603 667 m 257,4,-1
 530 468 l 257,5,-1
 2110 468 l 257,6,-1
 2183 667 l 257,7,-1
 603 667 l 257,4,-1
370 6 m 257,8,-1
 297 -195 l 257,9,-1
 1867 -195 l 257,10,-1
 1940 6 l 257,11,-1
 370 6 l 257,8,-1
1957 597 m 257,12,-1
 1702 -104 l 257,13,-1
 1900 -104 l 257,14,-1
 2155 597 l 257,15,-1
 1957 597 l 257,12,-1
EndSplineSet
EndChar

StartChar: three
Encoding: 51 51 301
GlifName: three
Width: 2048
VWidth: 0
GlyphClass: 2
Flags: W
LayerCount: 2
Fore
SplineSet
369 736 m 257,0,-1
 2051 736 l 257,1,-1
 1853 192 l 257,2,-1
 129 192 l 257,3,-1
 56 -8 l 257,4,-1
 1984 -8 l 257,5,-1
 2552 1553 l 257,6,-1
 654 1553 l 257,7,-1
 581 1353 l 257,8,-1
 2273 1353 l 257,9,-1
 2122 936 l 257,10,-1
 442 936 l 257,11,-1
 369 736 l 257,0,-1
EndSplineSet
EndChar

StartChar: threequarters
Encoding: 190 190 302
GlifName: threequarters
Width: 2048
VWidth: 0
GlyphClass: 2
Flags: W
LayerCount: 2
Fore
SplineSet
1928 1483 m 257,0,-1
 214 6 l 257,1,-1
 308 -67 l 257,2,-1
 2021 1410 l 257,3,-1
 1928 1483 l 257,0,-1
559 1272 m 257,4,-1
 1133 1272 l 257,5,-1
 1065 1084 l 257,6,-1
 454 1084 l 257,7,-1
 436 1015 l 257,8,-1
 1216 1015 l 257,9,-1
 1412 1553 l 257,10,-1
 651 1553 l 257,11,-1
 626 1484 l 257,12,-1
 1208 1484 l 257,13,-1
 1156 1340 l 257,14,-1
 584 1340 l 257,15,-1
 559 1272 l 257,4,-1
1388 340 m 257,16,-1
 1935 340 l 257,17,-1
 1814 7 l 257,18,-1
 1981 7 l 257,19,-1
 2228 687 l 257,20,-1
 2059 687 l 257,21,-1
 1965 428 l 257,22,-1
 1589 428 l 257,23,-1
 1684 689 l 257,24,-1
 1515 689 l 257,25,-1
 1388 340 l 257,16,-1
EndSplineSet
EndChar

StartChar: tilde
Encoding: 732 732 303
GlifName: tilde
Width: 2048
VWidth: 0
GlyphClass: 2
Flags: W
LayerCount: 2
Fore
SplineSet
1142 781 m 257,0,-1
 1106 682 l 257,1,-1
 1434 621 l 257,2,-1
 1470 720 l 257,3,-1
 1142 781 l 257,0,-1
883 723 m 257,4,-1
 863 625 l 257,5,-1
 1106 682 l 257,6,-1
 1142 781 l 257,7,-1
 883 723 l 257,4,-1
1470 720 m 257,8,-1
 1434 621 l 257,9,-1
 1667 762 l 257,10,-1
 1678 858 l 257,11,-1
 1470 720 l 257,8,-1
EndSplineSet
EndChar

StartChar: tildecomb
Encoding: 771 771 304
GlifName: tildecomb
Width: 0
VWidth: 0
GlyphClass: 4
Flags: W
AnchorPoint: "top" -4 767 mark 0
LayerCount: 2
Fore
SplineSet
-177 975 m 257,0,-1
 -213 876 l 257,1,-1
 114 815 l 257,2,-1
 150 914 l 257,3,-1
 -177 975 l 257,0,-1
-436 917 m 257,4,-1
 -458 819 l 257,5,-1
 -213 876 l 257,6,-1
 -177 975 l 257,7,-1
 -436 917 l 257,4,-1
150 914 m 257,8,-1
 114 815 l 257,9,-1
 346 956 l 257,10,-1
 357 1052 l 257,11,-1
 150 914 l 257,8,-1
EndSplineSet
EndChar

StartChar: two
Encoding: 50 50 306
GlifName: two
Width: 2048
VWidth: 0
GlyphClass: 2
Flags: W
LayerCount: 2
Fore
SplineSet
598 1344 m 257,0,-1
 2231 1344 l 257,1,-1
 2072 908 l 257,2,-1
 446 908 l 257,3,-1
 116 0 l 257,4,-1
 1928 0 l 257,5,-1
 2001 200 l 257,6,-1
 392 200 l 257,7,-1
 576 707 l 257,8,-1
 2199 707 l 257,9,-1
 2505 1548 l 257,10,-1
 672 1548 l 257,11,-1
 598 1344 l 257,0,-1
EndSplineSet
EndChar

StartChar: u
Encoding: 117 117 307
GlifName: u
Width: 2048
VWidth: 0
GlyphClass: 2
Flags: W
AnchorPoint: "top" 1404 1129 basechar 0
AnchorPoint: "base" 1025 -78 basechar 0
LayerCount: 2
Fore
SplineSet
522 1023 m 257,0,-1
 150 0 l 257,1,-1
 350 0 l 257,2,-1
 722 1023 l 257,3,-1
 522 1023 l 257,0,-1
1754 1023 m 257,4,-1
 1382 0 l 257,5,-1
 1582 0 l 257,6,-1
 1954 1023 l 257,7,-1
 1754 1023 l 257,4,-1
269 200 m 257,8,-1
 196 0 l 257,9,-1
 1898 0 l 257,10,-1
 1971 200 l 257,11,-1
 269 200 l 257,8,-1
EndSplineSet
EndChar

StartChar: underscore
Encoding: 95 95 315
GlifName: underscore
Width: 2048
VWidth: 0
GlyphClass: 2
Flags: W
LayerCount: 2
Fore
SplineSet
-2 -5 m 257,0,-1
 -26 -71 l 257,1,-1
 2026 -71 l 257,2,-1
 2050 -5 l 257,3,-1
 -2 -5 l 257,0,-1
EndSplineSet
EndChar

StartChar: uni00B2
Encoding: 178 178 317
GlifName: uni00B_2
Width: 2048
VWidth: 0
GlyphClass: 2
Flags: W
LayerCount: 2
Fore
SplineSet
915 1455 m 257,0,-1
 1805 1455 l 257,1,-1
 1733 1259 l 257,2,-1
 852 1259 l 257,3,-1
 704 851 l 257,4,-1
 1671 851 l 257,5,-1
 1703 940 l 257,6,-1
 856 940 l 257,7,-1
 939 1168 l 257,8,-1
 1806 1168 l 257,9,-1
 1944 1548 l 257,10,-1
 948 1548 l 257,11,-1
 915 1455 l 257,0,-1
EndSplineSet
EndChar

StartChar: uni00B3
Encoding: 179 179 318
GlifName: uni00B_3
Width: 2048
VWidth: 0
GlyphClass: 2
Flags: W
LayerCount: 2
Fore
SplineSet
887 1184 m 257,0,-1
 1839 1184 l 257,1,-1
 1749 938 l 257,2,-1
 773 938 l 257,3,-1
 741 849 l 257,4,-1
 1833 849 l 257,5,-1
 2089 1553 l 257,6,-1
 1014 1553 l 257,7,-1
 981 1463 l 257,8,-1
 1939 1463 l 257,9,-1
 1871 1275 l 257,10,-1
 920 1275 l 257,11,-1
 887 1184 l 257,0,-1
EndSplineSet
EndChar

StartChar: uni00B9
Encoding: 185 185 319
GlifName: uni00B_9
Width: 2048
VWidth: 0
GlyphClass: 2
Flags: W
LayerCount: 2
Fore
SplineSet
1346 887 m 257,0,-1
 1445 887 l 257,1,-1
 1727 1661 l 257,2,-1
 1627 1661 l 257,3,-1
 1346 887 l 257,0,-1
1629 1661 m 257,4,-1
 1476 1513 l 257,5,-1
 1533 1463 l 257,6,-1
 1686 1612 l 257,7,-1
 1629 1661 l 257,4,-1
EndSplineSet
EndChar

StartChar: uni0192
Encoding: 402 402 332
GlifName: uni0192
Width: 2048
VWidth: 0
GlyphClass: 2
Flags: W
LayerCount: 2
Fore
SplineSet
1135 1023 m 257,0,-1
 615 -406 l 257,1,-1
 815 -406 l 257,2,-1
 1335 1023 l 257,3,-1
 1135 1023 l 257,0,-1
1197 1023 m 257,4,-1
 1127 831 l 257,5,-1
 1905 831 l 257,6,-1
 1975 1023 l 257,7,-1
 1197 1023 l 257,4,-1
432 559 m 257,8,-1
 359 356 l 257,9,-1
 1636 356 l 257,10,-1
 1709 559 l 257,11,-1
 432 559 l 257,8,-1
94 -201 m 257,12,-1
 19 -406 l 257,13,-1
 817 -406 l 257,14,-1
 892 -201 l 257,15,-1
 94 -201 l 257,12,-1
EndSplineSet
EndChar

StartChar: uni0237
Encoding: 567 567 340
GlifName: uni0237
Width: 2048
VWidth: 0
GlyphClass: 2
Flags: W
AnchorPoint: "top" 720 1182 basechar 0
LayerCount: 2
Fore
SplineSet
2012 1023 m 257,0,-1
 1490 -411 l 257,1,-1
 1688 -411 l 257,2,-1
 2210 1023 l 257,3,-1
 2012 1023 l 257,0,-1
134 -209 m 257,4,-1
 62 -406 l 257,5,-1
 1592 -406 l 257,6,-1
 1664 -209 l 257,7,-1
 134 -209 l 257,4,-1
208 -6 m 257,8,-1
 82 -351 l 257,9,-1
 282 -351 l 257,10,-1
 408 -6 l 257,11,-1
 208 -6 l 257,8,-1
EndSplineSet
EndChar

StartChar: uni02C9
Encoding: 713 713 344
GlifName: uni02C_9
Width: 2048
VWidth: 0
GlyphClass: 2
Flags: W
LayerCount: 2
Fore
SplineSet
1337 1630 m 257,0,-1
 1307 1548 l 257,1,-1
 1867 1548 l 257,2,-1
 1897 1630 l 257,3,-1
 1337 1630 l 257,0,-1
EndSplineSet
EndChar

StartChar: uni02CA
Encoding: 714 714 345
GlifName: uni02C_A_
Width: 2048
VWidth: 0
GlyphClass: 2
Flags: W
LayerCount: 2
Fore
SplineSet
1554 1330 m 257,0,-1
 1332 1076 l 257,1,-1
 1403 1030 l 257,2,-1
 1628 1285 l 257,3,-1
 1554 1330 l 257,0,-1
EndSplineSet
EndChar

StartChar: uni02CB
Encoding: 715 715 346
GlifName: uni02C_B_
Width: 2048
VWidth: 0
GlyphClass: 2
Flags: W
LayerCount: 2
Fore
SplineSet
1685 2107 m 257,0,-1
 1719 1871 l 257,1,-1
 1828 1917 l 257,2,-1
 1794 2154 l 257,3,-1
 1685 2107 l 257,0,-1
EndSplineSet
EndChar

StartChar: uni0302
Encoding: 770 770 347
GlifName: uni0302
Width: 0
VWidth: 0
GlyphClass: 4
Flags: W
AnchorPoint: "top" 2 782 mark 0
LayerCount: 2
Fore
SplineSet
158 1083 m 257,0,-1
 83 1083 l 257,1,-1
 -162 775 l 257,2,-1
 -98 743 l 257,3,-1
 158 1083 l 257,0,-1
64 1023 m 257,4,-1
 90 743 l 257,5,-1
 175 771 l 257,6,-1
 158 1083 l 257,7,-1
 64 1023 l 257,4,-1
EndSplineSet
EndChar

StartChar: uni0304
Encoding: 772 772 348
GlifName: uni0304
Width: 0
VWidth: 0
GlyphClass: 4
Flags: W
AnchorPoint: "top" -1 781 mark 0
LayerCount: 2
Fore
SplineSet
-260 907 m 257,0,-1
 -290 825 l 257,1,-1
 270 825 l 257,2,-1
 300 907 l 257,3,-1
 -260 907 l 257,0,-1
EndSplineSet
EndChar

StartChar: uni0305
Encoding: 773 773 349
GlifName: uni0305
Width: 0
VWidth: 0
GlyphClass: 4
Flags: W
AnchorPoint: "top" 18 1480 mark 0
LayerCount: 2
Fore
SplineSet
195 1602 m 257,0,-1
 195 1542 l 257,1,-1
 949 1542 l 257,2,-1
 949 1602 l 257,3,-1
 195 1602 l 257,0,-1
EndSplineSet
EndChar

StartChar: uni0306
Encoding: 774 774 350
GlifName: uni0306
Width: 0
VWidth: 0
GlyphClass: 4
Flags: W
AnchorPoint: "top" -12 782 mark 0
LayerCount: 2
Fore
SplineSet
144 862 m 257,0,-1
 119 794 l 257,1,-1
 309 862 l 257,2,-1
 344 959 l 257,3,-1
 144 862 l 257,0,-1
-180 862 m 257,4,-1
 -205 794 l 257,5,-1
 119 794 l 257,6,-1
 144 862 l 257,7,-1
 -180 862 l 257,4,-1
-322 944 m 257,8,-1
 -351 862 l 257,9,-1
 -205 794 l 257,10,-1
 -180 862 l 257,11,-1
 -322 944 l 257,8,-1
EndSplineSet
EndChar

StartChar: uni0307
Encoding: 775 775 351
GlifName: uni0307
Width: 0
VWidth: 0
GlyphClass: 4
Flags: W
AnchorPoint: "top" 4 774 mark 0
LayerCount: 2
Fore
SplineSet
-46 1008 m 257,0,-1
 -119 806 l 257,1,-1
 105 806 l 257,2,-1
 178 1008 l 257,3,-1
 -46 1008 l 257,0,-1
EndSplineSet
EndChar

StartChar: uni0308
Encoding: 776 776 352
GlifName: uni0308
Width: 0
VWidth: 0
GlyphClass: 4
Flags: W
AnchorPoint: "top" 524 1404 mark 0
LayerCount: 2
Fore
SplineSet
325 1625 m 257,0,-1
 270 1474 l 257,1,-1
 438 1474 l 257,2,-1
 493 1625 l 257,3,-1
 325 1625 l 257,0,-1
689 1625 m 257,4,-1
 634 1474 l 257,5,-1
 802 1474 l 257,6,-1
 857 1625 l 257,7,-1
 689 1625 l 257,4,-1
EndSplineSet
EndChar

StartChar: uni030A
Encoding: 778 778 353
GlifName: uni030A_
Width: 0
VWidth: 0
GlyphClass: 4
Flags: W
AnchorPoint: "top" 5 796 mark 0
LayerCount: 2
Fore
SplineSet
6 1051 m 257,0,-1
 154 1051 l 257,1,-1
 107 921 l 257,2,-1
 -41 921 l 257,3,-1
 6 1051 l 257,0,-1
-66 1142 m 257,4,-1
 -179 832 l 257,5,-1
 181 832 l 257,6,-1
 294 1142 l 257,7,-1
 -66 1142 l 257,4,-1
EndSplineSet
EndChar

StartChar: uni030B
Encoding: 779 779 354
GlifName: uni030B_
Width: 0
VWidth: 0
GlyphClass: 4
Flags: W
AnchorPoint: "top" 6 769 mark 0
LayerCount: 2
Fore
SplineSet
-286 771 m 257,0,-1
 -142 771 l 257,1,-1
 39 1019 l 257,2,-1
 -105 1019 l 257,3,-1
 -286 771 l 257,0,-1
114 771 m 257,4,-1
 258 771 l 257,5,-1
 439 1019 l 257,6,-1
 295 1019 l 257,7,-1
 114 771 l 257,4,-1
EndSplineSet
EndChar

StartChar: uni030C
Encoding: 780 780 355
GlifName: uni030C_
Width: 0
VWidth: 0
GlyphClass: 4
Flags: W
AnchorPoint: "top" -9 741 mark 0
LayerCount: 2
Fore
SplineSet
36 815 m 257,0,-1
 50 1096 l 257,1,-1
 -9 1071 l 257,2,-1
 -15 814 l 257,3,-1
 36 815 l 257,0,-1
5 864 m 257,4,-1
 36 815 l 257,5,-1
 217 1073 l 257,6,-1
 175 1097 l 257,7,-1
 5 864 l 257,4,-1
EndSplineSet
EndChar

StartChar: uni0326
Encoding: 806 806 356
GlifName: uni0326
Width: 0
VWidth: 0
GlyphClass: 4
Flags: W
AnchorPoint: "base" 22 -5 mark 0
LayerCount: 2
Fore
SplineSet
-114 0 m 257,0,-1
 -198 -230 l 257,1,-1
 50 -230 l 257,2,-1
 134 0 l 257,3,-1
 -114 0 l 257,0,-1
-53 -103 m 257,4,-1
 -274 -384 l 257,5,-1
 -152 -444 l 257,6,-1
 47 -234 l 257,7,-1
 -53 -103 l 257,4,-1
EndSplineSet
EndChar

StartChar: uni0327
Encoding: 807 807 357
GlifName: uni0327
Width: 0
VWidth: 0
GlyphClass: 4
Flags: W
AnchorPoint: "base" -446 90 mark 0
LayerCount: 2
Fore
SplineSet
-158 180 m 257,0,-1
 -276 -144 l 257,1,-1
 -120 -144 l 257,2,-1
 -2 180 l 257,3,-1
 -158 180 l 257,0,-1
-327 -288 m 257,4,-1
 -370 -406 l 257,5,-1
 76 -406 l 257,6,-1
 119 -288 l 257,7,-1
 -327 -288 l 257,4,-1
72 0 m 257,8,-1
 -63 -372 l 257,9,-1
 89 -372 l 257,10,-1
 224 0 l 257,11,-1
 72 0 l 257,8,-1
-222 0 m 257,12,-1
 -279 -156 l 257,13,-1
 167 -156 l 257,14,-1
 224 0 l 257,15,-1
 -222 0 l 257,12,-1
EndSplineSet
EndChar

StartChar: uni0328
Encoding: 808 808 358
GlifName: uni0328
Width: 0
VWidth: 0
GlyphClass: 4
Flags: W
AnchorPoint: "base" -167 0 mark 0
LayerCount: 2
Fore
SplineSet
-376 -288 m 257,0,-1
 -419 -406 l 257,1,-1
 123 -406 l 257,2,-1
 166 -288 l 257,3,-1
 -376 -288 l 257,0,-1
-271 0 m 257,4,-1
 -419 -406 l 257,5,-1
 -301 -406 l 257,6,-1
 -153 0 l 257,7,-1
 -271 0 l 257,4,-1
-271 0 m 257,8,-1
 -315 -121 l 257,9,-1
 227 -121 l 257,10,-1
 271 0 l 257,11,-1
 -271 0 l 257,8,-1
EndSplineSet
EndChar

StartChar: uni0331
Encoding: 817 817 359
GlifName: uni0331
Width: 0
VWidth: 0
GlyphClass: 4
Flags: W
AnchorPoint: "base" 4 -163 mark 0
LayerCount: 2
Fore
SplineSet
-342 -170 m 257,0,-1
 -370 -248 l 257,1,-1
 190 -248 l 257,2,-1
 218 -170 l 257,3,-1
 -342 -170 l 257,0,-1
EndSplineSet
EndChar

StartChar: uni0900
Encoding: 2304 2304 360
GlifName: uni0900
Width: 0
VWidth: 0
GlyphClass: 4
Flags: W
AnchorPoint: "abvm_deva" 819 1611 mark 0
LayerCount: 2
Fore
SplineSet
887 2124 m 257,0,-1
 711 1639 l 257,1,-1
 909 1639 l 257,2,-1
 1085 2124 l 257,3,-1
 887 2124 l 257,0,-1
934 2126 m 257,4,-1
 861 1925 l 257,5,-1
 2495 1925 l 257,6,-1
 2568 2126 l 257,7,-1
 934 2126 l 257,4,-1
1093 1865 m 257,8,-1
 1020 1665 l 257,9,-1
 2220 1665 l 257,10,-1
 2293 1865 l 257,11,-1
 1093 1865 l 257,8,-1
2492 2127 m 257,12,-1
 2313 1636 l 257,13,-1
 2513 1636 l 257,14,-1
 2692 2127 l 257,15,-1
 2492 2127 l 257,12,-1
EndSplineSet
EndChar

StartChar: uni0901
Encoding: 2305 2305 361
GlifName: uni0901
Width: 0
VWidth: 0
GlyphClass: 4
Flags: W
AnchorPoint: "abvm_deva" 1270 1584 mark 0
LayerCount: 2
Fore
SplineSet
927 2124 m 257,0,-1
 751 1639 l 257,1,-1
 951 1639 l 257,2,-1
 1127 2124 l 257,3,-1
 927 2124 l 257,0,-1
870 1842 m 257,4,-1
 797 1641 l 257,5,-1
 2431 1641 l 257,6,-1
 2504 1842 l 257,7,-1
 870 1842 l 257,4,-1
1219 2095 m 257,8,-1
 1146 1895 l 257,9,-1
 2346 1895 l 257,10,-1
 2419 2095 l 257,11,-1
 1219 2095 l 257,8,-1
2534 2132 m 257,12,-1
 2355 1641 l 257,13,-1
 2555 1641 l 257,14,-1
 2734 2132 l 257,15,-1
 2534 2132 l 257,12,-1
EndSplineSet
EndChar

StartChar: uni0902
Encoding: 2306 2306 362
GlifName: uni0902
Width: 0
VWidth: 0
GlyphClass: 4
Flags: W
AnchorPoint: "abvm_deva" 505 1570 mark 0
LayerCount: 2
Fore
SplineSet
762 1839 m 257,0,-1
 690 1639 l 257,1,-1
 890 1639 l 257,2,-1
 962 1839 l 257,3,-1
 762 1839 l 257,0,-1
EndSplineSet
EndChar

StartChar: uni0903
Encoding: 2307 2307 363
GlifName: uni0903
Width: 2048
VWidth: 0
GlyphClass: 2
Flags: W
LayerCount: 2
Fore
SplineSet
1160 649 m 257,0,-1
 1087 449 l 257,1,-1
 1287 449 l 257,2,-1
 1360 649 l 257,3,-1
 1160 649 l 257,0,-1
1403 1317 m 257,4,-1
 1331 1117 l 257,5,-1
 1531 1117 l 257,6,-1
 1603 1317 l 257,7,-1
 1403 1317 l 257,4,-1
EndSplineSet
EndChar

StartChar: uni0904
Encoding: 2308 2308 364
GlifName: uni0904
Width: 2048
VWidth: 0
GlyphClass: 2
Flags: W
AnchorPoint: "abvm_deva" 1625 1952 basechar 0
LayerCount: 2
Fore
SplineSet
1550 2155 m 257,0,-1
 1434 1836 l 257,1,-1
 1632 1836 l 257,2,-1
 1748 2155 l 257,3,-1
 1550 2155 l 257,0,-1
1480 1967 m 257,4,-1
 1408 1768 l 257,5,-1
 2580 1768 l 257,6,-1
 2652 1967 l 257,7,-1
 1480 1967 l 257,4,-1
2448 1956 m 257,8,-1
 2288 1516 l 257,9,-1
 2490 1516 l 257,10,-1
 2650 1956 l 257,11,-1
 2448 1956 l 257,8,-1
2267 1548 m 257,12,-1
 2195 1348 l 257,13,-1
 2542 1348 l 257,14,-1
 2614 1548 l 257,15,-1
 2267 1548 l 257,12,-1
2280 1419 m 257,16,-1
 1764 0 l 257,17,-1
 1964 0 l 257,18,-1
 2480 1419 l 257,19,-1
 2280 1419 l 257,16,-1
601 1548 m 257,20,-1
 529 1348 l 257,21,-1
 1563 1348 l 257,22,-1
 1635 1548 l 257,23,-1
 601 1548 l 257,20,-1
1461 1548 m 257,24,-1
 949 140 l 257,25,-1
 1149 140 l 257,26,-1
 1661 1548 l 257,27,-1
 1461 1548 l 257,24,-1
447 894 m 257,28,-1
 374 693 l 257,29,-1
 2070 693 l 257,30,-1
 2143 894 l 257,31,-1
 447 894 l 257,28,-1
85 201 m 257,32,-1
 12 0 l 257,33,-1
 1098 0 l 257,34,-1
 1171 201 l 257,35,-1
 85 201 l 257,32,-1
EndSplineSet
EndChar

StartChar: uni0905
Encoding: 2309 2309 365
GlifName: uni0905
Width: 2048
VWidth: 0
GlyphClass: 2
Flags: W
AnchorPoint: "abvm_deva" 2198 1589 basechar 0
LayerCount: 2
Fore
SplineSet
2234 1548 m 257,0,-1
 2161 1347 l 257,1,-1
 2540 1347 l 257,2,-1
 2613 1548 l 257,3,-1
 2234 1548 l 257,0,-1
2316 1419 m 257,4,-1
 1800 0 l 257,5,-1
 1998 0 l 257,6,-1
 2514 1419 l 257,7,-1
 2316 1419 l 257,4,-1
601 1548 m 257,8,-1
 529 1348 l 257,9,-1
 1563 1348 l 257,10,-1
 1635 1548 l 257,11,-1
 601 1548 l 257,8,-1
1461 1548 m 257,12,-1
 949 140 l 257,13,-1
 1149 140 l 257,14,-1
 1661 1548 l 257,15,-1
 1461 1548 l 257,12,-1
447 894 m 257,16,-1
 374 693 l 257,17,-1
 2106 693 l 257,18,-1
 2179 894 l 257,19,-1
 447 894 l 257,16,-1
85 201 m 257,20,-1
 12 0 l 257,21,-1
 1098 0 l 257,22,-1
 1171 201 l 257,23,-1
 85 201 l 257,20,-1
EndSplineSet
EndChar

StartChar: uni0906
Encoding: 2310 2310 366
GlifName: uni0906
Width: 2048
VWidth: 0
GlyphClass: 2
Flags: W
AnchorPoint: "abvm_deva" 2158 1602 basechar 0
LayerCount: 2
Fore
SplineSet
1891 1548 m 257,0,-1
 1819 1348 l 257,1,-1
 2541 1348 l 257,2,-1
 2613 1548 l 257,3,-1
 1891 1548 l 257,0,-1
1860 1419 m 257,4,-1
 1344 0 l 257,5,-1
 1543 0 l 257,6,-1
 2059 1419 l 257,7,-1
 1860 1419 l 257,4,-1
588 1548 m 257,8,-1
 516 1348 l 257,9,-1
 1388 1348 l 257,10,-1
 1460 1548 l 257,11,-1
 588 1548 l 257,8,-1
1286 1548 m 257,12,-1
 774 140 l 257,13,-1
 974 140 l 257,14,-1
 1486 1548 l 257,15,-1
 1286 1548 l 257,12,-1
434 894 m 257,16,-1
 361 693 l 257,17,-1
 1695 693 l 257,18,-1
 1768 894 l 257,19,-1
 434 894 l 257,16,-1
73 201 m 257,20,-1
 0 0 l 257,21,-1
 923 0 l 257,22,-1
 996 201 l 257,23,-1
 73 201 l 257,20,-1
2279 1420 m 257,24,-1
 1762 0 l 257,25,-1
 1961 0 l 257,26,-1
 2478 1420 l 257,27,-1
 2279 1420 l 257,24,-1
EndSplineSet
EndChar

StartChar: uni0907
Encoding: 2311 2311 367
GlifName: uni0907
Width: 2048
VWidth: 0
GlyphClass: 2
Flags: W
AnchorPoint: "abvm_deva" 1843 1543 basechar 0
LayerCount: 2
Fore
SplineSet
557 1548 m 257,0,-1
 485 1349 l 257,1,-1
 2545 1349 l 257,2,-1
 2617 1548 l 257,3,-1
 557 1548 l 257,0,-1
1623 1537 m 257,4,-1
 1468 1110 l 257,5,-1
 1668 1110 l 257,6,-1
 1823 1537 l 257,7,-1
 1623 1537 l 257,4,-1
610 1205 m 257,8,-1
 536 1004 l 257,9,-1
 1629 1004 l 257,10,-1
 1703 1205 l 257,11,-1
 610 1205 l 257,8,-1
601 1181 m 257,12,-1
 440 738 l 257,13,-1
 610 738 l 257,14,-1
 771 1181 l 257,15,-1
 601 1181 l 257,12,-1
492 881 m 257,16,-1
 419 681 l 257,17,-1
 1526 681 l 257,18,-1
 1599 881 l 257,19,-1
 492 881 l 257,16,-1
1478 881 m 257,20,-1
 1252 262 l 257,21,-1
 1451 262 l 257,22,-1
 1677 881 l 257,23,-1
 1478 881 l 257,20,-1
257 298 m 257,24,-1
 184 97 l 257,25,-1
 1391 97 l 257,26,-1
 1464 298 l 257,27,-1
 257 298 l 257,24,-1
373 298 m 257,28,-1
 176 -244 l 257,29,-1
 376 -244 l 257,30,-1
 573 298 l 257,31,-1
 373 298 l 257,28,-1
EndSplineSet
EndChar

StartChar: uni0908
Encoding: 2312 2312 368
GlifName: uni0908
Width: 2048
VWidth: 0
GlyphClass: 2
Flags: W
AnchorPoint: "abvm_deva" 2213 1587 basechar 0
LayerCount: 2
Fore
SplineSet
560 1556 m 257,0,-1
 487 1355 l 257,1,-1
 2547 1355 l 257,2,-1
 2620 1556 l 257,3,-1
 560 1556 l 257,0,-1
1629 1553 m 257,4,-1
 1468 1110 l 257,5,-1
 1668 1110 l 257,6,-1
 1829 1553 l 257,7,-1
 1629 1553 l 257,4,-1
610 1205 m 257,8,-1
 536 1004 l 257,9,-1
 1629 1004 l 257,10,-1
 1703 1205 l 257,11,-1
 610 1205 l 257,8,-1
601 1181 m 257,12,-1
 440 738 l 257,13,-1
 640 738 l 257,14,-1
 801 1181 l 257,15,-1
 601 1181 l 257,12,-1
492 881 m 257,16,-1
 419 681 l 257,17,-1
 1526 681 l 257,18,-1
 1599 881 l 257,19,-1
 492 881 l 257,16,-1
1496 881 m 257,20,-1
 1279 285 l 257,21,-1
 1460 285 l 257,22,-1
 1677 881 l 257,23,-1
 1496 881 l 257,20,-1
257 298 m 257,24,-1
 184 97 l 257,25,-1
 1394 97 l 257,26,-1
 1467 298 l 257,27,-1
 257 298 l 257,24,-1
373 298 m 257,28,-1
 176 -244 l 257,29,-1
 399 -244 l 257,30,-1
 596 298 l 257,31,-1
 373 298 l 257,28,-1
918 1770 m 257,32,-1
 1551 1423 l 257,33,-1
 1755 1537 l 257,34,-1
 1122 1886 l 257,35,-1
 918 1770 l 257,32,-1
EndSplineSet
EndChar

StartChar: uni0909
Encoding: 2313 2313 369
GlifName: uni0909
Width: 2048
VWidth: 0
GlyphClass: 2
Flags: W
AnchorPoint: "abvm_deva" 2164 1627 basechar 0
LayerCount: 2
Fore
SplineSet
563 1548 m 257,0,-1
 491 1348 l 257,1,-1
 2541 1348 l 257,2,-1
 2613 1548 l 257,3,-1
 563 1548 l 257,0,-1
1451 1530 m 257,4,-1
 1258 1001 l 257,5,-1
 1457 1001 l 257,6,-1
 1650 1530 l 257,7,-1
 1451 1530 l 257,4,-1
617 1044 m 257,8,-1
 545 845 l 257,9,-1
 1899 845 l 257,10,-1
 1971 1044 l 257,11,-1
 617 1044 l 257,8,-1
1754 994 m 257,12,-1
 1395 8 l 257,13,-1
 1595 8 l 257,14,-1
 1954 994 l 257,15,-1
 1754 994 l 257,12,-1
205 201 m 257,16,-1
 132 0 l 257,17,-1
 1581 0 l 257,18,-1
 1654 201 l 257,19,-1
 205 201 l 257,16,-1
264 363 m 257,20,-1
 145 36 l 257,21,-1
 345 36 l 257,22,-1
 464 363 l 257,23,-1
 264 363 l 257,20,-1
EndSplineSet
EndChar

StartChar: uni090A
Encoding: 2314 2314 370
GlifName: uni090A_
Width: 2048
VWidth: 0
GlyphClass: 2
Flags: W
AnchorPoint: "abvm_deva" 2277 1617 basechar 0
LayerCount: 2
Fore
SplineSet
557 1548 m 257,0,-1
 484 1347 l 257,1,-1
 2545 1347 l 257,2,-1
 2618 1548 l 257,3,-1
 557 1548 l 257,0,-1
1375 1530 m 257,4,-1
 1182 1001 l 257,5,-1
 1380 1001 l 257,6,-1
 1573 1530 l 257,7,-1
 1375 1530 l 257,4,-1
528 1044 m 257,8,-1
 456 845 l 257,9,-1
 2180 845 l 257,10,-1
 2252 1044 l 257,11,-1
 528 1044 l 257,8,-1
1546 994 m 257,12,-1
 1188 11 l 257,13,-1
 1388 11 l 257,14,-1
 1746 994 l 257,15,-1
 1546 994 l 257,12,-1
118 204 m 257,16,-1
 46 5 l 257,17,-1
 1384 5 l 257,18,-1
 1456 204 l 257,19,-1
 118 204 l 257,16,-1
177 366 m 257,20,-1
 58 39 l 257,21,-1
 258 39 l 257,22,-1
 377 366 l 257,23,-1
 177 366 l 257,20,-1
2016 946 m 257,24,-1
 1751 217 l 257,25,-1
 1951 217 l 257,26,-1
 2216 946 l 257,27,-1
 2016 946 l 257,24,-1
EndSplineSet
EndChar

StartChar: uni090B
Encoding: 2315 2315 371
GlifName: uni090B_
Width: 2048
VWidth: 0
GlyphClass: 2
Flags: W
AnchorPoint: "abvm_deva" 2182 1561 basechar 0
LayerCount: 2
Fore
SplineSet
563 1548 m 257,0,-1
 490 1347 l 257,1,-1
 2543 1347 l 257,2,-1
 2616 1548 l 257,3,-1
 563 1548 l 257,0,-1
1577 1537 m 257,4,-1
 1018 0 l 257,5,-1
 1217 0 l 257,6,-1
 1776 1537 l 257,7,-1
 1577 1537 l 257,4,-1
408 1044 m 257,8,-1
 336 845 l 257,9,-1
 640 845 l 257,10,-1
 712 1044 l 257,11,-1
 408 1044 l 257,8,-1
1198 496 m 257,12,-1
 244 329 l 257,13,-1
 256 136 l 257,14,-1
 1209 303 l 257,15,-1
 1198 496 l 257,12,-1
712 1044 m 257,16,-1
 640 846 l 257,17,-1
 1384 742 l 257,18,-1
 1458 944 l 257,19,-1
 712 1044 l 257,16,-1
1527 897 m 257,20,-1
 1455 699 l 257,21,-1
 2270 699 l 257,22,-1
 2342 897 l 257,23,-1
 1527 897 l 257,20,-1
2020 897 m 257,24,-1
 1789 262 l 257,25,-1
 1988 262 l 257,26,-1
 2219 897 l 257,27,-1
 2020 897 l 257,24,-1
1939 464 m 257,28,-1
 1866 264 l 257,29,-1
 2130 264 l 257,30,-1
 2203 464 l 257,31,-1
 1939 464 l 257,28,-1
EndSplineSet
EndChar

StartChar: uni090C
Encoding: 2316 2316 372
GlifName: uni090C_
Width: 2048
VWidth: 0
GlyphClass: 2
Flags: W
AnchorPoint: "abvm_deva" 2275 1588 basechar 0
LayerCount: 2
Fore
SplineSet
555 1548 m 257,0,-1
 483 1348 l 257,1,-1
 2547 1348 l 257,2,-1
 2619 1548 l 257,3,-1
 555 1548 l 257,0,-1
1628 1548 m 257,4,-1
 1316 689 l 257,5,-1
 1516 689 l 257,6,-1
 1828 1548 l 257,7,-1
 1628 1548 l 257,4,-1
2052 791 m 257,8,-1
 338 791 l 257,9,-1
 265 590 l 257,10,-1
 1979 590 l 257,11,-1
 2052 791 l 257,8,-1
333 777 m 257,12,-1
 142 252 l 257,13,-1
 343 252 l 257,14,-1
 534 777 l 257,15,-1
 333 777 l 257,12,-1
989 791 m 257,16,-1
 859 433 l 257,17,-1
 1060 433 l 257,18,-1
 1190 791 l 257,19,-1
 989 791 l 257,16,-1
1841 792 m 257,20,-1
 1580 73 l 257,21,-1
 1780 73 l 257,22,-1
 2041 792 l 257,23,-1
 1841 792 l 257,20,-1
1722 259 m 257,24,-1
 1654 71 l 257,25,-1
 2080 71 l 257,26,-1
 2148 259 l 257,27,-1
 1722 259 l 257,24,-1
EndSplineSet
EndChar

StartChar: uni090D
Encoding: 2317 2317 373
GlifName: uni090D_
Width: 2048
VWidth: 0
GlyphClass: 2
Flags: W
AnchorPoint: "abvm_deva" 474 2104 basechar 0
LayerCount: 2
Fore
SplineSet
558 1548 m 257,0,-1
 486 1348 l 257,1,-1
 2540 1348 l 257,2,-1
 2612 1548 l 257,3,-1
 558 1548 l 257,0,-1
2311 1548 m 257,4,-1
 2032 779 l 257,5,-1
 2231 779 l 257,6,-1
 2510 1548 l 257,7,-1
 2311 1548 l 257,4,-1
1494 839 m 257,8,-1
 1422 639 l 257,9,-1
 2180 639 l 257,10,-1
 2252 839 l 257,11,-1
 1494 839 l 257,8,-1
703 1542 m 257,12,-1
 265 338 l 257,13,-1
 464 338 l 257,14,-1
 902 1542 l 257,15,-1
 703 1542 l 257,12,-1
323 496 m 257,16,-1
 250 297 l 257,17,-1
 1232 297 l 257,18,-1
 1305 496 l 257,19,-1
 323 496 l 257,16,-1
1055 358 m 257,20,-1
 889 -98 l 257,21,-1
 1088 -98 l 257,22,-1
 1254 358 l 257,23,-1
 1055 358 l 257,20,-1
424 101 m 257,24,-1
 351 -98 l 257,25,-1
 1086 -98 l 257,26,-1
 1159 101 l 257,27,-1
 424 101 l 257,24,-1
930 2124 m 257,28,-1
 754 1639 l 257,29,-1
 953 1639 l 257,30,-1
 1129 2124 l 257,31,-1
 930 2124 l 257,28,-1
873 1840 m 257,32,-1
 800 1641 l 257,33,-1
 2413 1641 l 257,34,-1
 2486 1840 l 257,35,-1
 873 1840 l 257,32,-1
2417 2132 m 257,36,-1
 2238 1641 l 257,37,-1
 2437 1641 l 257,38,-1
 2616 2132 l 257,39,-1
 2417 2132 l 257,36,-1
EndSplineSet
EndChar

StartChar: uni090E
Encoding: 2318 2318 374
GlifName: uni090E_
Width: 2048
VWidth: 0
GlyphClass: 2
Flags: W
AnchorPoint: "abvm_deva" 2655 1660 basechar 0
LayerCount: 2
Fore
SplineSet
558 1548 m 257,0,-1
 486 1348 l 257,1,-1
 2540 1348 l 257,2,-1
 2612 1548 l 257,3,-1
 558 1548 l 257,0,-1
2311 1548 m 257,4,-1
 1983 645 l 257,5,-1
 2182 645 l 257,6,-1
 2510 1548 l 257,7,-1
 2311 1548 l 257,4,-1
1529 845 m 257,8,-1
 1456 645 l 257,9,-1
 2182 645 l 257,10,-1
 2255 845 l 257,11,-1
 1529 845 l 257,8,-1
703 1542 m 257,12,-1
 265 338 l 257,13,-1
 464 338 l 257,14,-1
 902 1542 l 257,15,-1
 703 1542 l 257,12,-1
272 358 m 257,16,-1
 200 159 l 257,17,-1
 1175 159 l 257,18,-1
 1247 358 l 257,19,-1
 272 358 l 257,16,-1
1053 358 m 257,20,-1
 887 -98 l 257,21,-1
 1088 -98 l 257,22,-1
 1254 358 l 257,23,-1
 1053 358 l 257,20,-1
373 -38 m 257,24,-1
 300 -238 l 257,25,-1
 1035 -238 l 257,26,-1
 1108 -38 l 257,27,-1
 373 -38 l 257,24,-1
1021 2062 m 257,28,-1
 934 1823 l 257,29,-1
 1134 1823 l 257,30,-1
 1221 2062 l 257,31,-1
 1021 2062 l 257,28,-1
949 1868 m 257,32,-1
 876 1667 l 257,33,-1
 2578 1667 l 257,34,-1
 2651 1868 l 257,35,-1
 949 1868 l 257,32,-1
2445 1858 m 257,36,-1
 2328 1537 l 257,37,-1
 2530 1537 l 257,38,-1
 2647 1858 l 257,39,-1
 2445 1858 l 257,36,-1
EndSplineSet
EndChar

StartChar: uni090F
Encoding: 2319 2319 375
GlifName: uni090F_
Width: 2048
VWidth: 0
GlyphClass: 2
Flags: W
AnchorPoint: "abvm_deva" 1461 1556 basechar 0
LayerCount: 2
Fore
SplineSet
573 1548 m 257,0,-1
 501 1348 l 257,1,-1
 2529 1348 l 257,2,-1
 2601 1548 l 257,3,-1
 573 1548 l 257,0,-1
2299 1548 m 257,4,-1
 2021 782 l 257,5,-1
 2221 782 l 257,6,-1
 2499 1548 l 257,7,-1
 2299 1548 l 257,4,-1
1498 979 m 257,8,-1
 1426 779 l 257,9,-1
 2220 779 l 257,10,-1
 2292 979 l 257,11,-1
 1498 979 l 257,8,-1
711 1542 m 257,12,-1
 273 338 l 257,13,-1
 473 338 l 257,14,-1
 911 1542 l 257,15,-1
 711 1542 l 257,12,-1
331 497 m 257,16,-1
 258 297 l 257,17,-1
 1358 297 l 257,18,-1
 1431 497 l 257,19,-1
 331 497 l 257,16,-1
1228 473 m 257,20,-1
 1020 -98 l 257,21,-1
 1220 -98 l 257,22,-1
 1428 473 l 257,23,-1
 1228 473 l 257,20,-1
431 102 m 257,24,-1
 358 -98 l 257,25,-1
 1218 -98 l 257,26,-1
 1291 102 l 257,27,-1
 431 102 l 257,24,-1
EndSplineSet
EndChar

StartChar: uni0910
Encoding: 2320 2320 376
GlifName: uni0910
Width: 2048
VWidth: 0
GlyphClass: 2
Flags: W
AnchorPoint: "abvm_deva" 2171 1556 basechar 0
LayerCount: 2
Fore
SplineSet
563 1548 m 257,0,-1
 491 1348 l 257,1,-1
 2537 1348 l 257,2,-1
 2609 1548 l 257,3,-1
 563 1548 l 257,0,-1
2307 1548 m 257,4,-1
 2028 779 l 257,5,-1
 2228 779 l 257,6,-1
 2507 1548 l 257,7,-1
 2307 1548 l 257,4,-1
1508 979 m 257,8,-1
 1436 779 l 257,9,-1
 2228 779 l 257,10,-1
 2300 979 l 257,11,-1
 1508 979 l 257,8,-1
697 1542 m 257,12,-1
 259 338 l 257,13,-1
 459 338 l 257,14,-1
 897 1542 l 257,15,-1
 697 1542 l 257,12,-1
317 497 m 257,16,-1
 244 297 l 257,17,-1
 1344 297 l 257,18,-1
 1417 497 l 257,19,-1
 317 497 l 257,16,-1
1216 473 m 257,20,-1
 1008 -98 l 257,21,-1
 1208 -98 l 257,22,-1
 1416 473 l 257,23,-1
 1216 473 l 257,20,-1
419 102 m 257,24,-1
 346 -98 l 257,25,-1
 1206 -98 l 257,26,-1
 1279 102 l 257,27,-1
 419 102 l 257,24,-1
1125 1883 m 257,28,-1
 2300 1433 l 257,29,-1
 2505 1548 l 257,30,-1
 1331 1998 l 257,31,-1
 1125 1883 l 257,28,-1
EndSplineSet
EndChar

StartChar: uni0911
Encoding: 2321 2321 377
GlifName: uni0911
Width: 2048
VWidth: 0
GlyphClass: 2
Flags: W
AnchorPoint: "abvm_deva" 2716 1580 basechar 0
LayerCount: 2
Fore
SplineSet
1894 1548 m 257,0,-1
 1822 1348 l 257,1,-1
 2539 1348 l 257,2,-1
 2611 1548 l 257,3,-1
 1894 1548 l 257,0,-1
1860 1419 m 257,4,-1
 1344 0 l 257,5,-1
 1544 0 l 257,6,-1
 2060 1419 l 257,7,-1
 1860 1419 l 257,4,-1
589 1548 m 257,8,-1
 517 1348 l 257,9,-1
 1389 1348 l 257,10,-1
 1461 1548 l 257,11,-1
 589 1548 l 257,8,-1
1287 1548 m 257,12,-1
 775 140 l 257,13,-1
 975 140 l 257,14,-1
 1487 1548 l 257,15,-1
 1287 1548 l 257,12,-1
435 894 m 257,16,-1
 362 693 l 257,17,-1
 1696 693 l 257,18,-1
 1769 894 l 257,19,-1
 435 894 l 257,16,-1
73 201 m 257,20,-1
 0 0 l 257,21,-1
 924 0 l 257,22,-1
 997 201 l 257,23,-1
 73 201 l 257,20,-1
2353 1420 m 257,24,-1
 1836 0 l 257,25,-1
 2034 0 l 257,26,-1
 2551 1420 l 257,27,-1
 2353 1420 l 257,24,-1
2085 2085 m 257,28,-1
 1923 1639 l 257,29,-1
 2123 1639 l 257,30,-1
 2285 2085 l 257,31,-1
 2085 2085 l 257,28,-1
2002 1842 m 257,32,-1
 1929 1641 l 257,33,-1
 2645 1641 l 257,34,-1
 2718 1842 l 257,35,-1
 2002 1842 l 257,32,-1
2606 2083 m 257,36,-1
 2445 1641 l 257,37,-1
 2645 1641 l 257,38,-1
 2806 2083 l 257,39,-1
 2606 2083 l 257,36,-1
EndSplineSet
EndChar

StartChar: uni0912
Encoding: 2322 2322 378
GlifName: uni0912
Width: 2048
VWidth: 0
GlyphClass: 2
Flags: W
AnchorPoint: "abvm_deva" 2703 1578 basechar 0
LayerCount: 2
Fore
SplineSet
1891 1548 m 257,0,-1
 1819 1348 l 257,1,-1
 2539 1348 l 257,2,-1
 2611 1548 l 257,3,-1
 1891 1548 l 257,0,-1
1865 1419 m 257,4,-1
 1349 0 l 257,5,-1
 1548 0 l 257,6,-1
 2064 1419 l 257,7,-1
 1865 1419 l 257,4,-1
588 1548 m 257,8,-1
 516 1348 l 257,9,-1
 1388 1348 l 257,10,-1
 1460 1548 l 257,11,-1
 588 1548 l 257,8,-1
1286 1548 m 257,12,-1
 774 140 l 257,13,-1
 974 140 l 257,14,-1
 1486 1548 l 257,15,-1
 1286 1548 l 257,12,-1
434 894 m 257,16,-1
 361 693 l 257,17,-1
 1695 693 l 257,18,-1
 1768 894 l 257,19,-1
 434 894 l 257,16,-1
73 201 m 257,20,-1
 0 0 l 257,21,-1
 923 0 l 257,22,-1
 996 201 l 257,23,-1
 73 201 l 257,20,-1
2360 1420 m 257,24,-1
 1843 0 l 257,25,-1
 2042 0 l 257,26,-1
 2559 1420 l 257,27,-1
 2360 1420 l 257,24,-1
1850 2155 m 257,28,-1
 1734 1836 l 257,29,-1
 1932 1836 l 257,30,-1
 2048 2155 l 257,31,-1
 1850 2155 l 257,28,-1
1781 1967 m 257,32,-1
 1708 1768 l 257,33,-1
 2624 1768 l 257,34,-1
 2696 1967 l 257,35,-1
 1781 1967 l 257,32,-1
2493 1956 m 257,36,-1
 2333 1516 l 257,37,-1
 2534 1516 l 257,38,-1
 2694 1956 l 257,39,-1
 2493 1956 l 257,36,-1
EndSplineSet
EndChar

StartChar: uni0913
Encoding: 2323 2323 379
GlifName: uni0913
Width: 2048
VWidth: 0
GlyphClass: 2
Flags: W
AnchorPoint: "abvm_deva" 2674 1561 basechar 0
LayerCount: 2
Fore
SplineSet
1907 1548 m 257,0,-1
 1835 1348 l 257,1,-1
 2523 1348 l 257,2,-1
 2595 1548 l 257,3,-1
 1907 1548 l 257,0,-1
1876 1419 m 257,4,-1
 1360 0 l 257,5,-1
 1559 0 l 257,6,-1
 2075 1419 l 257,7,-1
 1876 1419 l 257,4,-1
604 1548 m 257,8,-1
 532 1348 l 257,9,-1
 1392 1348 l 257,10,-1
 1464 1548 l 257,11,-1
 604 1548 l 257,8,-1
1290 1548 m 257,12,-1
 778 140 l 257,13,-1
 978 140 l 257,14,-1
 1490 1548 l 257,15,-1
 1290 1548 l 257,12,-1
450 894 m 257,16,-1
 377 693 l 257,17,-1
 1711 693 l 257,18,-1
 1784 894 l 257,19,-1
 450 894 l 257,16,-1
89 201 m 257,20,-1
 16 0 l 257,21,-1
 927 0 l 257,22,-1
 1000 201 l 257,23,-1
 89 201 l 257,20,-1
2345 1423 m 257,24,-1
 1829 5 l 257,25,-1
 2028 5 l 257,26,-1
 2544 1423 l 257,27,-1
 2345 1423 l 257,24,-1
2098 1768 m 257,28,-1
 2347 1458 l 257,29,-1
 2557 1548 l 257,30,-1
 2309 1861 l 257,31,-1
 2098 1768 l 257,28,-1
EndSplineSet
EndChar

StartChar: uni0914
Encoding: 2324 2324 380
GlifName: uni0914
Width: 2048
VWidth: 0
GlyphClass: 2
Flags: W
AnchorPoint: "abvm_deva" 2643 1617 basechar 0
LayerCount: 2
Fore
SplineSet
1907 1548 m 257,0,-1
 1833 1343 l 257,1,-1
 2521 1343 l 257,2,-1
 2595 1548 l 257,3,-1
 1907 1548 l 257,0,-1
1876 1419 m 257,4,-1
 1360 0 l 257,5,-1
 1559 0 l 257,6,-1
 2075 1419 l 257,7,-1
 1876 1419 l 257,4,-1
604 1548 m 257,8,-1
 532 1348 l 257,9,-1
 1392 1348 l 257,10,-1
 1464 1548 l 257,11,-1
 604 1548 l 257,8,-1
1290 1548 m 257,12,-1
 778 140 l 257,13,-1
 978 140 l 257,14,-1
 1490 1548 l 257,15,-1
 1290 1548 l 257,12,-1
450 894 m 257,16,-1
 377 693 l 257,17,-1
 1711 693 l 257,18,-1
 1784 894 l 257,19,-1
 450 894 l 257,16,-1
89 201 m 257,20,-1
 16 0 l 257,21,-1
 927 0 l 257,22,-1
 1000 201 l 257,23,-1
 89 201 l 257,20,-1
2344 1420 m 257,24,-1
 1827 0 l 257,25,-1
 2026 0 l 257,26,-1
 2543 1420 l 257,27,-1
 2344 1420 l 257,24,-1
1792 1750 m 257,28,-1
 1989 1523 l 257,29,-1
 2320 1523 l 257,30,-1
 1984 1903 l 257,31,-1
 1792 1750 l 257,28,-1
2453 1949 m 257,32,-1
 2361 1522 l 257,33,-1
 2582 1548 l 257,34,-1
 2665 1988 l 257,35,-1
 2453 1949 l 257,32,-1
EndSplineSet
EndChar

StartChar: uni0915
Encoding: 2325 2325 381
GlifName: uni0915
Width: 2048
VWidth: 0
GlyphClass: 2
Flags: W
AnchorPoint: "abvm_deva" 1783 1635 basechar 0
AnchorPoint: "blwm_deva" 1196 -64 basechar 0
LayerCount: 2
Fore
SplineSet
568 1548 m 257,0,-1
 494 1343 l 257,1,-1
 2532 1343 l 257,2,-1
 2606 1548 l 257,3,-1
 568 1548 l 257,0,-1
1660 1516 m 257,4,-1
 1112 10 l 257,5,-1
 1314 10 l 257,6,-1
 1862 1516 l 257,7,-1
 1660 1516 l 257,4,-1
512 1029 m 257,8,-1
 439 829 l 257,9,-1
 1326 829 l 257,10,-1
 1399 1029 l 257,11,-1
 512 1029 l 257,8,-1
512 1029 m 257,12,-1
 286 408 l 257,13,-1
 452 408 l 257,14,-1
 678 1029 l 257,15,-1
 512 1029 l 257,12,-1
375 604 m 257,16,-1
 301 401 l 257,17,-1
 1308 401 l 257,18,-1
 1382 604 l 257,19,-1
 375 604 l 257,16,-1
1559 947 m 257,20,-1
 1486 746 l 257,21,-1
 2222 746 l 257,22,-1
 2295 947 l 257,23,-1
 1559 947 l 257,20,-1
2071 879 m 257,24,-1
 1965 587 l 257,25,-1
 2164 587 l 257,26,-1
 2270 879 l 257,27,-1
 2071 879 l 257,24,-1
EndSplineSet
EndChar

StartChar: uni0915_uni0930_uni094D.vatu
Encoding: 65536 -1 382
GlifName: uni0915_uni0930_uni094D_.vatu
Width: 2048
VWidth: 0
GlyphClass: 3
Flags: W
LayerCount: 2
Fore
SplineSet
568 1548 m 257,0,-1
 494 1343 l 257,1,-1
 2532 1343 l 257,2,-1
 2606 1548 l 257,3,-1
 568 1548 l 257,0,-1
1660 1516 m 257,4,-1
 1112 10 l 257,5,-1
 1314 10 l 257,6,-1
 1862 1516 l 257,7,-1
 1660 1516 l 257,4,-1
512 1029 m 257,8,-1
 439 829 l 257,9,-1
 1317 829 l 257,10,-1
 1390 1029 l 257,11,-1
 512 1029 l 257,8,-1
497 989 m 257,12,-1
 298 443 l 257,13,-1
 464 443 l 257,14,-1
 663 989 l 257,15,-1
 497 989 l 257,12,-1
352 604 m 257,16,-1
 278 401 l 257,17,-1
 1308 401 l 257,18,-1
 1382 604 l 257,19,-1
 352 604 l 257,16,-1
1559 947 m 257,20,-1
 1486 746 l 257,21,-1
 2222 746 l 257,22,-1
 2295 947 l 257,23,-1
 1559 947 l 257,20,-1
2071 879 m 257,24,-1
 1965 587 l 257,25,-1
 2164 587 l 257,26,-1
 2270 879 l 257,27,-1
 2071 879 l 257,24,-1
52 0 m 257,28,-1
 476 0 l 257,29,-1
 1323 134 l 257,30,-1
 1396 335 l 257,31,-1
 52 0 l 257,28,-1
EndSplineSet
Ligature2: "rkrfRakarVariantsinDevanagari2lookup0 subtable" uni0915 uni094D uni0930
EndChar

StartChar: uni0915_uni094D.half
Encoding: 65537 -1 383
GlifName: uni0915_uni094D_.half
Width: 2048
VWidth: 0
GlyphClass: 2
Flags: W
LayerCount: 2
Fore
SplineSet
568 1548 m 257,0,-1
 494 1343 l 257,1,-1
 2532 1343 l 257,2,-1
 2606 1548 l 257,3,-1
 568 1548 l 257,0,-1
1660 1516 m 257,4,-1
 1112 10 l 257,5,-1
 1314 10 l 257,6,-1
 1862 1516 l 257,7,-1
 1660 1516 l 257,4,-1
512 1029 m 257,8,-1
 439 829 l 257,9,-1
 1316 829 l 257,10,-1
 1389 1029 l 257,11,-1
 512 1029 l 257,8,-1
497 989 m 257,12,-1
 298 443 l 257,13,-1
 464 443 l 257,14,-1
 663 989 l 257,15,-1
 497 989 l 257,12,-1
375 604 m 257,16,-1
 301 401 l 257,17,-1
 1308 401 l 257,18,-1
 1382 604 l 257,19,-1
 375 604 l 257,16,-1
1547 947 m 257,20,-1
 1474 746 l 257,21,-1
 2362 746 l 257,22,-1
 2435 947 l 257,23,-1
 1547 947 l 257,20,-1
EndSplineSet
Ligature2: "halfHalfFormsinDevanagari2lookup0 subtable" uni0915 uni094D
EndChar

StartChar: uni0915_uni094D.haln
Encoding: 65538 -1 384
GlifName: uni0915_uni094D_.haln
Width: 2048
VWidth: 0
GlyphClass: 3
Flags: W
LayerCount: 2
Fore
SplineSet
568 1548 m 257,0,-1
 494 1343 l 257,1,-1
 2532 1343 l 257,2,-1
 2606 1548 l 257,3,-1
 568 1548 l 257,0,-1
1660 1516 m 257,4,-1
 1112 10 l 257,5,-1
 1314 10 l 257,6,-1
 1862 1516 l 257,7,-1
 1660 1516 l 257,4,-1
512 1029 m 257,8,-1
 439 829 l 257,9,-1
 1326 829 l 257,10,-1
 1399 1029 l 257,11,-1
 512 1029 l 257,8,-1
512 1029 m 257,12,-1
 286 408 l 257,13,-1
 452 408 l 257,14,-1
 678 1029 l 257,15,-1
 512 1029 l 257,12,-1
375 604 m 257,16,-1
 301 401 l 257,17,-1
 1308 401 l 257,18,-1
 1382 604 l 257,19,-1
 375 604 l 257,16,-1
1559 947 m 257,20,-1
 1486 746 l 257,21,-1
 2222 746 l 257,22,-1
 2295 947 l 257,23,-1
 1559 947 l 257,20,-1
2071 879 m 257,24,-1
 1965 587 l 257,25,-1
 2164 587 l 257,26,-1
 2270 879 l 257,27,-1
 2071 879 l 257,24,-1
963 -22 m 257,28,-1
 892 -218 l 257,29,-1
 1249 -218 l 257,30,-1
 1320 -22 l 257,31,-1
 963 -22 l 257,28,-1
1120 -183 m 257,32,-1
 1443 -588 l 257,33,-1
 1646 -425 l 257,34,-1
 1322 -21 l 257,35,-1
 1120 -183 l 257,32,-1
EndSplineSet
Ligature2: "halnHalantFormsinDevanagari2lookup0 subtable" uni0915 uni094D
EndChar

StartChar: uni0915_uni094D_uni0937.akhn
Encoding: 65539 -1 385
GlifName: uni0915_uni094D__uni0937.akhn
Width: 2048
VWidth: 0
GlyphClass: 3
Flags: W
LayerCount: 2
Fore
SplineSet
2252 1548 m 257,0,-1
 2181 1351 l 257,1,-1
 2540 1351 l 257,2,-1
 2611 1548 l 257,3,-1
 2252 1548 l 257,0,-1
2296 1511 m 257,4,-1
 1746 0 l 257,5,-1
 1945 0 l 257,6,-1
 2495 1511 l 257,7,-1
 2296 1511 l 257,4,-1
440 1078 m 257,8,-1
 368 878 l 257,9,-1
 2265 878 l 257,10,-1
 2337 1078 l 257,11,-1
 440 1078 l 257,8,-1
419 1023 m 257,12,-1
 620 1023 l 257,13,-1
 766 1422 l 257,14,-1
 565 1422 l 257,15,-1
 419 1023 l 257,12,-1
570 1435 m 257,16,-1
 498 1235 l 257,17,-1
 1528 1235 l 257,18,-1
 1601 1435 l 257,19,-1
 570 1435 l 257,16,-1
1398 1422 m 257,20,-1
 1201 882 l 257,21,-1
 1399 882 l 257,22,-1
 1596 1422 l 257,23,-1
 1398 1422 l 257,20,-1
389 635 m 257,24,-1
 586 635 l 257,25,-1
 1397 880 l 257,26,-1
 1199 880 l 257,27,-1
 389 635 l 257,24,-1
389 635 m 257,28,-1
 231 200 l 257,29,-1
 430 200 l 257,30,-1
 588 635 l 257,31,-1
 389 635 l 257,28,-1
292 367 m 257,32,-1
 218 166 l 257,33,-1
 1966 166 l 257,34,-1
 2040 367 l 257,35,-1
 292 367 l 257,32,-1
EndSplineSet
Ligature2: "akhnAkhandinDevanagari2lookup0 subtable" uni0915 uni094D uni0937
EndChar

StartChar: uni0915_uni094D_uni0937.half
Encoding: 65540 -1 386
GlifName: uni0915_uni094D__uni0937.half
Width: 2048
VWidth: 0
GlyphClass: 3
Flags: W
LayerCount: 2
Fore
SplineSet
2252 1548 m 257,0,-1
 2181 1351 l 257,1,-1
 2540 1351 l 257,2,-1
 2611 1548 l 257,3,-1
 2252 1548 l 257,0,-1
440 1078 m 257,4,-1
 368 878 l 257,5,-1
 2385 878 l 257,6,-1
 2457 1078 l 257,7,-1
 440 1078 l 257,4,-1
419 1023 m 257,8,-1
 620 1023 l 257,9,-1
 766 1422 l 257,10,-1
 565 1422 l 257,11,-1
 419 1023 l 257,8,-1
570 1435 m 257,12,-1
 498 1235 l 257,13,-1
 1528 1235 l 257,14,-1
 1601 1435 l 257,15,-1
 570 1435 l 257,12,-1
1398 1422 m 257,16,-1
 1201 882 l 257,17,-1
 1399 882 l 257,18,-1
 1596 1422 l 257,19,-1
 1398 1422 l 257,16,-1
389 635 m 257,20,-1
 586 635 l 257,21,-1
 1397 880 l 257,22,-1
 1199 880 l 257,23,-1
 389 635 l 257,20,-1
389 635 m 257,24,-1
 231 200 l 257,25,-1
 430 200 l 257,26,-1
 588 635 l 257,27,-1
 389 635 l 257,24,-1
292 367 m 257,28,-1
 218 166 l 257,29,-1
 2086 166 l 257,30,-1
 2160 367 l 257,31,-1
 292 367 l 257,28,-1
EndSplineSet
Ligature2: "halfHalfFormsinDevanagari2lookup0 subtable" uni0915_uni094D_uni0937.akhn uni094D
EndChar

StartChar: uni0915_uni094D_uni0937_uni094D
Encoding: 65541 -1 387
GlifName: uni0915_uni094D__uni0937_uni094D_
Width: 2048
VWidth: 0
GlyphClass: 2
Flags: W
LayerCount: 2
Fore
SplineSet
2252 1548 m 257,0,-1
 2181 1351 l 257,1,-1
 2540 1351 l 257,2,-1
 2611 1548 l 257,3,-1
 2252 1548 l 257,0,-1
2296 1511 m 257,4,-1
 1746 0 l 257,5,-1
 1945 0 l 257,6,-1
 2495 1511 l 257,7,-1
 2296 1511 l 257,4,-1
440 1078 m 257,8,-1
 368 878 l 257,9,-1
 2265 878 l 257,10,-1
 2337 1078 l 257,11,-1
 440 1078 l 257,8,-1
419 1023 m 257,12,-1
 620 1023 l 257,13,-1
 766 1422 l 257,14,-1
 565 1422 l 257,15,-1
 419 1023 l 257,12,-1
570 1435 m 257,16,-1
 498 1235 l 257,17,-1
 1529 1235 l 257,18,-1
 1601 1435 l 257,19,-1
 570 1435 l 257,16,-1
1398 1422 m 257,20,-1
 1201 882 l 257,21,-1
 1399 882 l 257,22,-1
 1596 1422 l 257,23,-1
 1398 1422 l 257,20,-1
389 635 m 257,24,-1
 586 635 l 257,25,-1
 1397 880 l 257,26,-1
 1199 880 l 257,27,-1
 389 635 l 257,24,-1
389 635 m 257,28,-1
 231 200 l 257,29,-1
 430 200 l 257,30,-1
 588 635 l 257,31,-1
 389 635 l 257,28,-1
292 367 m 257,32,-1
 218 166 l 257,33,-1
 1966 166 l 257,34,-1
 2040 367 l 257,35,-1
 292 367 l 257,32,-1
1463 -22 m 257,36,-1
 1392 -218 l 257,37,-1
 1749 -218 l 257,38,-1
 1820 -22 l 257,39,-1
 1463 -22 l 257,36,-1
1620 -183 m 257,40,-1
 1943 -588 l 257,41,-1
 2146 -425 l 257,42,-1
 1822 -21 l 257,43,-1
 1620 -183 l 257,40,-1
EndSplineSet
Ligature2: "halnHalantFormsinDevanagari2lookup0 subtable" uni0915_uni094D_uni0937.akhn uni094D
EndChar

StartChar: uni0916
Encoding: 2326 2326 388
GlifName: uni0916
Width: 2048
VWidth: 0
GlyphClass: 2
Flags: W
AnchorPoint: "abvm_deva" 2367 1635 basechar 0
AnchorPoint: "blwm_deva" 1780 -64 basechar 0
LayerCount: 2
Fore
SplineSet
563 1548 m 257,0,-1
 491 1349 l 257,1,-1
 2543 1349 l 257,2,-1
 2615 1548 l 257,3,-1
 563 1548 l 257,0,-1
2271 1514 m 257,4,-1
 1720 0 l 257,5,-1
 1920 0 l 257,6,-1
 2471 1514 l 257,7,-1
 2271 1514 l 257,4,-1
1389 979 m 257,8,-1
 1317 779 l 257,9,-1
 1745 779 l 257,10,-1
 1817 979 l 257,11,-1
 1389 979 l 257,8,-1
1359 979 m 257,12,-1
 1169 457 l 257,13,-1
 1369 457 l 257,14,-1
 1559 979 l 257,15,-1
 1359 979 l 257,12,-1
1210 568 m 257,16,-1
 1137 368 l 257,17,-1
 1906 368 l 257,18,-1
 1979 568 l 257,19,-1
 1210 568 l 257,16,-1
842 1441 m 257,20,-1
 362 120 l 257,21,-1
 562 120 l 257,22,-1
 1042 1441 l 257,23,-1
 842 1441 l 257,20,-1
280 734 m 257,24,-1
 207 534 l 257,25,-1
 711 534 l 257,26,-1
 784 734 l 257,27,-1
 280 734 l 257,24,-1
415 270 m 257,28,-1
 342 70 l 257,29,-1
 1882 70 l 257,30,-1
 1955 270 l 257,31,-1
 415 270 l 257,28,-1
EndSplineSet
EndChar

StartChar: uni0916_uni0930_uni094D.vatu
Encoding: 65542 -1 389
GlifName: uni0916_uni0930_uni094D_.vatu
Width: 2048
VWidth: 0
GlyphClass: 3
Flags: W
LayerCount: 2
Fore
SplineSet
52 0 m 257,0,-1
 476 0 l 257,1,-1
 1856 215 l 257,2,-1
 1929 416 l 257,3,-1
 52 0 l 257,0,-1
563 1548 m 257,4,-1
 491 1349 l 257,5,-1
 2543 1349 l 257,6,-1
 2615 1548 l 257,7,-1
 563 1548 l 257,4,-1
2271 1514 m 257,8,-1
 1720 0 l 257,9,-1
 1920 0 l 257,10,-1
 2471 1514 l 257,11,-1
 2271 1514 l 257,8,-1
1499 1279 m 257,12,-1
 1426 1079 l 257,13,-1
 1854 1079 l 257,14,-1
 1927 1279 l 257,15,-1
 1499 1279 l 257,12,-1
1469 1279 m 257,16,-1
 1279 757 l 257,17,-1
 1479 757 l 257,18,-1
 1669 1279 l 257,19,-1
 1469 1279 l 257,16,-1
1319 868 m 257,20,-1
 1246 668 l 257,21,-1
 2015 668 l 257,22,-1
 2088 868 l 257,23,-1
 1319 868 l 257,20,-1
842 1441 m 257,24,-1
 471 420 l 257,25,-1
 671 420 l 257,26,-1
 1042 1441 l 257,27,-1
 842 1441 l 257,24,-1
389 1034 m 257,28,-1
 317 834 l 257,29,-1
 821 834 l 257,30,-1
 893 1034 l 257,31,-1
 389 1034 l 257,28,-1
524 570 m 257,32,-1
 452 370 l 257,33,-1
 1992 370 l 257,34,-1
 2064 570 l 257,35,-1
 524 570 l 257,32,-1
EndSplineSet
Ligature2: "rkrfRakarVariantsinDevanagari2lookup0 subtable" uni0916 uni094D uni0930
EndChar

StartChar: uni0916_uni094D.half
Encoding: 65543 -1 390
GlifName: uni0916_uni094D_.half
Width: 2048
VWidth: 0
GlyphClass: 2
Flags: W
LayerCount: 2
Fore
SplineSet
563 1548 m 257,0,-1
 491 1349 l 257,1,-1
 2543 1349 l 257,2,-1
 2615 1548 l 257,3,-1
 563 1548 l 257,0,-1
1389 979 m 257,4,-1
 1317 779 l 257,5,-1
 1745 779 l 257,6,-1
 1817 979 l 257,7,-1
 1389 979 l 257,4,-1
1359 979 m 257,8,-1
 1169 457 l 257,9,-1
 1369 457 l 257,10,-1
 1559 979 l 257,11,-1
 1359 979 l 257,8,-1
1210 568 m 257,12,-1
 1137 368 l 257,13,-1
 2106 368 l 257,14,-1
 2179 568 l 257,15,-1
 1210 568 l 257,12,-1
842 1441 m 257,16,-1
 362 120 l 257,17,-1
 562 120 l 257,18,-1
 1042 1441 l 257,19,-1
 842 1441 l 257,16,-1
280 734 m 257,20,-1
 207 534 l 257,21,-1
 711 534 l 257,22,-1
 784 734 l 257,23,-1
 280 734 l 257,20,-1
415 270 m 257,24,-1
 342 70 l 257,25,-1
 2082 70 l 257,26,-1
 2155 270 l 257,27,-1
 415 270 l 257,24,-1
EndSplineSet
Ligature2: "halfHalfFormsinDevanagari2lookup0 subtable" uni0916 uni094D
EndChar

StartChar: uni0916_uni094D.haln
Encoding: 65544 -1 391
GlifName: uni0916_uni094D_.haln
Width: 2048
VWidth: 0
GlyphClass: 3
Flags: W
LayerCount: 2
Fore
SplineSet
563 1548 m 257,0,-1
 491 1349 l 257,1,-1
 2543 1349 l 257,2,-1
 2615 1548 l 257,3,-1
 563 1548 l 257,0,-1
2271 1514 m 257,4,-1
 1720 0 l 257,5,-1
 1920 0 l 257,6,-1
 2471 1514 l 257,7,-1
 2271 1514 l 257,4,-1
1389 979 m 257,8,-1
 1317 779 l 257,9,-1
 1745 779 l 257,10,-1
 1817 979 l 257,11,-1
 1389 979 l 257,8,-1
1359 979 m 257,12,-1
 1169 457 l 257,13,-1
 1369 457 l 257,14,-1
 1559 979 l 257,15,-1
 1359 979 l 257,12,-1
1210 568 m 257,16,-1
 1137 368 l 257,17,-1
 1906 368 l 257,18,-1
 1979 568 l 257,19,-1
 1210 568 l 257,16,-1
842 1441 m 257,20,-1
 362 120 l 257,21,-1
 562 120 l 257,22,-1
 1042 1441 l 257,23,-1
 842 1441 l 257,20,-1
280 734 m 257,24,-1
 207 534 l 257,25,-1
 711 534 l 257,26,-1
 784 734 l 257,27,-1
 280 734 l 257,24,-1
415 270 m 257,28,-1
 342 70 l 257,29,-1
 1882 70 l 257,30,-1
 1955 270 l 257,31,-1
 415 270 l 257,28,-1
1487 -22 m 257,32,-1
 1416 -218 l 257,33,-1
 1773 -218 l 257,34,-1
 1844 -22 l 257,35,-1
 1487 -22 l 257,32,-1
1644 -183 m 257,36,-1
 1967 -588 l 257,37,-1
 2170 -425 l 257,38,-1
 1846 -21 l 257,39,-1
 1644 -183 l 257,36,-1
EndSplineSet
Ligature2: "halnHalantFormsinDevanagari2lookup0 subtable" uni0916 uni094D
EndChar

StartChar: uni0917
Encoding: 2327 2327 392
GlifName: uni0917
Width: 2048
VWidth: 0
GlyphClass: 2
Flags: W
AnchorPoint: "abvm_deva" 2406 1667 basechar 0
AnchorPoint: "blwm_deva" 1819 -32 basechar 0
LayerCount: 2
Fore
SplineSet
361 853 m 257,0,-1
 560 853 l 257,1,-1
 630 1044 l 257,2,-1
 431 1044 l 257,3,-1
 361 853 l 257,0,-1
372 882 m 257,4,-1
 300 683 l 257,5,-1
 1288 683 l 257,6,-1
 1360 882 l 257,7,-1
 372 882 l 257,4,-1
1403 1548 m 257,8,-1
 1136 812 l 257,9,-1
 1335 812 l 257,10,-1
 1602 1548 l 257,11,-1
 1403 1548 l 257,8,-1
2560 1548 m 257,12,-1
 773 1548 l 257,13,-1
 701 1348 l 257,14,-1
 2488 1348 l 257,15,-1
 2560 1548 l 257,12,-1
2271 1523 m 257,16,-1
 1717 0 l 257,17,-1
 1916 0 l 257,18,-1
 2470 1523 l 257,19,-1
 2271 1523 l 257,16,-1
EndSplineSet
EndChar

StartChar: uni0917_uni0930_uni094D.vatu
Encoding: 65545 -1 393
GlifName: uni0917_uni0930_uni094D_.vatu
Width: 2048
VWidth: 0
GlyphClass: 3
Flags: W
LayerCount: 2
Fore
SplineSet
52 0 m 257,0,-1
 476 0 l 257,1,-1
 1856 215 l 257,2,-1
 1929 416 l 257,3,-1
 52 0 l 257,0,-1
361 853 m 257,4,-1
 560 853 l 257,5,-1
 630 1044 l 257,6,-1
 431 1044 l 257,7,-1
 361 853 l 257,4,-1
372 882 m 257,8,-1
 300 683 l 257,9,-1
 1288 683 l 257,10,-1
 1360 882 l 257,11,-1
 372 882 l 257,8,-1
1403 1548 m 257,12,-1
 1136 812 l 257,13,-1
 1335 812 l 257,14,-1
 1602 1548 l 257,15,-1
 1403 1548 l 257,12,-1
2560 1548 m 257,16,-1
 773 1548 l 257,17,-1
 701 1348 l 257,18,-1
 2488 1348 l 257,19,-1
 2560 1548 l 257,16,-1
2271 1523 m 257,20,-1
 1717 0 l 257,21,-1
 1916 0 l 257,22,-1
 2470 1523 l 257,23,-1
 2271 1523 l 257,20,-1
EndSplineSet
Ligature2: "rkrfRakarVariantsinDevanagari2lookup0 subtable" uni0917 uni094D uni0930
EndChar

StartChar: uni0917_uni094D.half
Encoding: 65546 -1 394
GlifName: uni0917_uni094D_.half
Width: 2048
VWidth: 0
GlyphClass: 3
Flags: W
LayerCount: 2
Fore
SplineSet
361 853 m 257,0,-1
 560 853 l 257,1,-1
 630 1044 l 257,2,-1
 431 1044 l 257,3,-1
 361 853 l 257,0,-1
372 882 m 257,4,-1
 300 683 l 257,5,-1
 1288 683 l 257,6,-1
 1360 882 l 257,7,-1
 372 882 l 257,4,-1
1403 1548 m 257,8,-1
 1136 812 l 257,9,-1
 1335 812 l 257,10,-1
 1602 1548 l 257,11,-1
 1403 1548 l 257,8,-1
2660 1548 m 257,12,-1
 773 1548 l 257,13,-1
 701 1348 l 257,14,-1
 2588 1348 l 257,15,-1
 2660 1548 l 257,12,-1
EndSplineSet
Ligature2: "halfHalfFormsinDevanagari2lookup0 subtable" uni0917 uni094D
EndChar

StartChar: uni0917_uni094D.haln
Encoding: 65547 -1 395
GlifName: uni0917_uni094D_.haln
Width: 2048
VWidth: 0
GlyphClass: 3
Flags: W
LayerCount: 2
Fore
SplineSet
361 853 m 257,0,-1
 560 853 l 257,1,-1
 630 1044 l 257,2,-1
 431 1044 l 257,3,-1
 361 853 l 257,0,-1
372 882 m 257,4,-1
 300 683 l 257,5,-1
 1288 683 l 257,6,-1
 1360 882 l 257,7,-1
 372 882 l 257,4,-1
1403 1548 m 257,8,-1
 1136 812 l 257,9,-1
 1335 812 l 257,10,-1
 1602 1548 l 257,11,-1
 1403 1548 l 257,8,-1
2560 1548 m 257,12,-1
 773 1548 l 257,13,-1
 701 1348 l 257,14,-1
 2488 1348 l 257,15,-1
 2560 1548 l 257,12,-1
2271 1523 m 257,16,-1
 1717 0 l 257,17,-1
 1916 0 l 257,18,-1
 2470 1523 l 257,19,-1
 2271 1523 l 257,16,-1
1487 -22 m 257,20,-1
 1416 -218 l 257,21,-1
 1773 -218 l 257,22,-1
 1844 -22 l 257,23,-1
 1487 -22 l 257,20,-1
1644 -183 m 257,24,-1
 1967 -588 l 257,25,-1
 2170 -425 l 257,26,-1
 1846 -21 l 257,27,-1
 1644 -183 l 257,24,-1
EndSplineSet
Ligature2: "halnHalantFormsinDevanagari2lookup0 subtable" uni0917 uni094D
EndChar

StartChar: uni0918
Encoding: 2328 2328 396
GlifName: uni0918
Width: 2048
VWidth: 0
GlyphClass: 2
Flags: W
AnchorPoint: "abvm_deva" 2089 1556 basechar 0
AnchorPoint: "blwm_deva" 1819 -32 basechar 0
LayerCount: 2
Fore
SplineSet
566 1554 m 257,0,-1
 493 1354 l 257,1,-1
 2541 1354 l 257,2,-1
 2614 1554 l 257,3,-1
 566 1554 l 257,0,-1
2280 1522 m 257,4,-1
 1731 13 l 257,5,-1
 1931 13 l 257,6,-1
 2480 1522 l 257,7,-1
 2280 1522 l 257,4,-1
723 1515 m 257,8,-1
 493 883 l 257,9,-1
 693 883 l 257,10,-1
 923 1515 l 257,11,-1
 723 1515 l 257,8,-1
600 917 m 257,12,-1
 527 717 l 257,13,-1
 1283 717 l 257,14,-1
 1356 917 l 257,15,-1
 600 917 l 257,12,-1
349 469 m 257,16,-1
 276 269 l 257,17,-1
 2000 269 l 257,18,-1
 2073 469 l 257,19,-1
 349 469 l 257,16,-1
270 269 m 257,20,-1
 470 269 l 257,21,-1
 650 764 l 257,22,-1
 450 764 l 257,23,-1
 270 269 l 257,20,-1
EndSplineSet
EndChar

StartChar: uni0918_uni0930_uni094D.vatu
Encoding: 65548 -1 397
GlifName: uni0918_uni0930_uni094D_.vatu
Width: 2048
VWidth: 0
GlyphClass: 3
Flags: W
LayerCount: 2
Fore
SplineSet
52 0 m 257,0,-1
 476 0 l 257,1,-1
 1856 215 l 257,2,-1
 1929 416 l 257,3,-1
 52 0 l 257,0,-1
566 1554 m 257,4,-1
 493 1354 l 257,5,-1
 2541 1354 l 257,6,-1
 2614 1554 l 257,7,-1
 566 1554 l 257,4,-1
2280 1522 m 257,8,-1
 1731 13 l 257,9,-1
 1931 13 l 257,10,-1
 2480 1522 l 257,11,-1
 2280 1522 l 257,8,-1
723 1515 m 257,12,-1
 566 1083 l 257,13,-1
 766 1083 l 257,14,-1
 923 1515 l 257,15,-1
 723 1515 l 257,12,-1
673 1117 m 257,16,-1
 600 917 l 257,17,-1
 1356 917 l 257,18,-1
 1429 1117 l 257,19,-1
 673 1117 l 257,16,-1
421 669 m 257,20,-1
 349 469 l 257,21,-1
 2073 469 l 257,22,-1
 2146 669 l 257,23,-1
 421 669 l 257,20,-1
343 469 m 257,24,-1
 543 469 l 257,25,-1
 723 964 l 257,26,-1
 523 964 l 257,27,-1
 343 469 l 257,24,-1
EndSplineSet
Ligature2: "rkrfRakarVariantsinDevanagari2lookup0 subtable" uni0918 uni094D uni0930
EndChar

StartChar: uni0918_uni094D.half
Encoding: 65549 -1 398
GlifName: uni0918_uni094D_.half
Width: 2048
VWidth: 0
GlyphClass: 3
Flags: W
LayerCount: 2
Fore
SplineSet
566 1554 m 257,0,-1
 493 1354 l 257,1,-1
 2541 1354 l 257,2,-1
 2614 1554 l 257,3,-1
 566 1554 l 257,0,-1
723 1515 m 257,4,-1
 493 883 l 257,5,-1
 693 883 l 257,6,-1
 923 1515 l 257,7,-1
 723 1515 l 257,4,-1
600 917 m 257,8,-1
 527 717 l 257,9,-1
 1283 717 l 257,10,-1
 1356 917 l 257,11,-1
 600 917 l 257,8,-1
349 469 m 257,12,-1
 276 269 l 257,13,-1
 2200 269 l 257,14,-1
 2273 469 l 257,15,-1
 349 469 l 257,12,-1
270 269 m 257,16,-1
 470 269 l 257,17,-1
 650 764 l 257,18,-1
 450 764 l 257,19,-1
 270 269 l 257,16,-1
EndSplineSet
Ligature2: "halfHalfFormsinDevanagari2lookup0 subtable" uni0918 uni094D
EndChar

StartChar: uni0918_uni094D.haln
Encoding: 65550 -1 399
GlifName: uni0918_uni094D_.haln
Width: 2048
VWidth: 0
GlyphClass: 3
Flags: W
LayerCount: 2
Fore
SplineSet
566 1554 m 257,0,-1
 493 1354 l 257,1,-1
 2541 1354 l 257,2,-1
 2614 1554 l 257,3,-1
 566 1554 l 257,0,-1
2280 1522 m 257,4,-1
 1731 13 l 257,5,-1
 1931 13 l 257,6,-1
 2480 1522 l 257,7,-1
 2280 1522 l 257,4,-1
723 1515 m 257,8,-1
 493 883 l 257,9,-1
 693 883 l 257,10,-1
 923 1515 l 257,11,-1
 723 1515 l 257,8,-1
600 917 m 257,12,-1
 527 717 l 257,13,-1
 1283 717 l 257,14,-1
 1356 917 l 257,15,-1
 600 917 l 257,12,-1
349 469 m 257,16,-1
 276 269 l 257,17,-1
 2000 269 l 257,18,-1
 2073 469 l 257,19,-1
 349 469 l 257,16,-1
270 269 m 257,20,-1
 470 269 l 257,21,-1
 650 764 l 257,22,-1
 450 764 l 257,23,-1
 270 269 l 257,20,-1
1487 -22 m 257,24,-1
 1416 -218 l 257,25,-1
 1773 -218 l 257,26,-1
 1844 -22 l 257,27,-1
 1487 -22 l 257,24,-1
1644 -183 m 257,28,-1
 1967 -588 l 257,29,-1
 2170 -425 l 257,30,-1
 1846 -21 l 257,31,-1
 1644 -183 l 257,28,-1
EndSplineSet
Ligature2: "halnHalantFormsinDevanagari2lookup0 subtable" uni0918 uni094D
EndChar

StartChar: uni0919
Encoding: 2329 2329 400
GlifName: uni0919
Width: 2048
VWidth: 0
GlyphClass: 2
Flags: W
AnchorPoint: "abvm_deva" 1753 1573 basechar 0
AnchorPoint: "blwm_deva" 1253 -51 basechar 0
LayerCount: 2
Fore
SplineSet
566 1554 m 257,0,-1
 493 1354 l 257,1,-1
 2543 1354 l 257,2,-1
 2616 1554 l 257,3,-1
 566 1554 l 257,0,-1
1585 1543 m 257,4,-1
 1395 1023 l 257,5,-1
 1595 1023 l 257,6,-1
 1785 1543 l 257,7,-1
 1585 1543 l 257,4,-1
1660 1226 m 257,8,-1
 674 1226 l 257,9,-1
 600 1023 l 257,10,-1
 1586 1023 l 257,11,-1
 1660 1226 l 257,8,-1
621 1083 m 257,12,-1
 456 629 l 257,13,-1
 661 629 l 257,14,-1
 826 1083 l 257,15,-1
 621 1083 l 257,12,-1
525 820 m 257,16,-1
 453 620 l 257,17,-1
 1526 620 l 257,18,-1
 1598 820 l 257,19,-1
 525 820 l 257,16,-1
1348 680 m 257,20,-1
 1111 29 l 257,21,-1
 1311 29 l 257,22,-1
 1548 680 l 257,23,-1
 1348 680 l 257,20,-1
187 201 m 257,24,-1
 114 0 l 257,25,-1
 1301 0 l 257,26,-1
 1374 201 l 257,27,-1
 187 201 l 257,24,-1
268 423 m 257,28,-1
 117 8 l 257,29,-1
 318 8 l 257,30,-1
 469 423 l 257,31,-1
 268 423 l 257,28,-1
1704 1037 m 257,32,-1
 1651 890 l 257,33,-1
 1808 890 l 257,34,-1
 1861 1037 l 257,35,-1
 1704 1037 l 257,32,-1
EndSplineSet
EndChar

StartChar: uni0919_uni0930_uni094D.vatu
Encoding: 65551 -1 401
GlifName: uni0919_uni0930_uni094D_.vatu
Width: 2048
VWidth: 0
GlyphClass: 3
Flags: W
LayerCount: 2
Fore
SplineSet
962 90 m 257,0,-1
 1047 -290 l 257,1,-1
 1329 -290 l 257,2,-1
 1145 259 l 257,3,-1
 962 90 l 257,0,-1
1145 259 m 257,4,-1
 535 -299 l 257,5,-1
 756 -299 l 257,6,-1
 1200 94 l 257,7,-1
 1145 259 l 257,4,-1
566 1554 m 257,8,-1
 493 1354 l 257,9,-1
 2543 1354 l 257,10,-1
 2616 1554 l 257,11,-1
 566 1554 l 257,8,-1
1585 1543 m 257,12,-1
 1433 1126 l 257,13,-1
 1633 1126 l 257,14,-1
 1785 1543 l 257,15,-1
 1585 1543 l 257,12,-1
1697 1326 m 257,16,-1
 711 1326 l 257,17,-1
 638 1126 l 257,18,-1
 1624 1126 l 257,19,-1
 1697 1326 l 257,16,-1
658 1183 m 257,20,-1
 529 829 l 257,21,-1
 734 829 l 257,22,-1
 863 1183 l 257,23,-1
 658 1183 l 257,20,-1
599 1023 m 257,24,-1
 525 820 l 257,25,-1
 1598 820 l 257,26,-1
 1672 1023 l 257,27,-1
 599 1023 l 257,24,-1
1420 880 m 257,28,-1
 1220 329 l 257,29,-1
 1420 329 l 257,30,-1
 1620 880 l 257,31,-1
 1420 880 l 257,28,-1
296 501 m 257,32,-1
 223 300 l 257,33,-1
 1410 300 l 257,34,-1
 1483 501 l 257,35,-1
 296 501 l 257,32,-1
377 723 m 257,36,-1
 226 308 l 257,37,-1
 427 308 l 257,38,-1
 578 723 l 257,39,-1
 377 723 l 257,36,-1
1779 1171 m 257,40,-1
 1725 1023 l 257,41,-1
 1882 1023 l 257,42,-1
 1936 1171 l 257,43,-1
 1779 1171 l 257,40,-1
EndSplineSet
Ligature2: "rkrfRakarVariantsinDevanagari2lookup0 subtable" uni0919 uni094D uni0930
EndChar

StartChar: uni0919_uni094D.half
Encoding: 65552 -1 402
GlifName: uni0919_uni094D_.half
Width: 2048
VWidth: 0
GlyphClass: 3
Flags: W
LayerCount: 2
Fore
SplineSet
566 1554 m 257,0,-1
 493 1354 l 257,1,-1
 2543 1354 l 257,2,-1
 2616 1554 l 257,3,-1
 566 1554 l 257,0,-1
1585 1543 m 257,4,-1
 1395 1023 l 257,5,-1
 1595 1023 l 257,6,-1
 1785 1543 l 257,7,-1
 1585 1543 l 257,4,-1
1660 1226 m 257,8,-1
 674 1226 l 257,9,-1
 600 1023 l 257,10,-1
 1586 1023 l 257,11,-1
 1660 1226 l 257,8,-1
621 1083 m 257,12,-1
 492 729 l 257,13,-1
 697 729 l 257,14,-1
 826 1083 l 257,15,-1
 621 1083 l 257,12,-1
562 920 m 257,16,-1
 489 720 l 257,17,-1
 1562 720 l 257,18,-1
 1635 920 l 257,19,-1
 562 920 l 257,16,-1
1384 780 m 257,20,-1
 1147 129 l 257,21,-1
 1347 129 l 257,22,-1
 1584 780 l 257,23,-1
 1384 780 l 257,20,-1
224 301 m 257,24,-1
 150 100 l 257,25,-1
 1337 100 l 257,26,-1
 1411 301 l 257,27,-1
 224 301 l 257,24,-1
304 523 m 257,28,-1
 153 108 l 257,29,-1
 354 108 l 257,30,-1
 505 523 l 257,31,-1
 304 523 l 257,28,-1
1704 1037 m 257,32,-1
 1651 890 l 257,33,-1
 1808 890 l 257,34,-1
 1861 1037 l 257,35,-1
 1704 1037 l 257,32,-1
1123 78 m 257,36,-1
 1052 -118 l 257,37,-1
 1409 -118 l 257,38,-1
 1480 78 l 257,39,-1
 1123 78 l 257,36,-1
1281 -83 m 257,40,-1
 1603 -488 l 257,41,-1
 1807 -325 l 257,42,-1
 1483 79 l 257,43,-1
 1281 -83 l 257,40,-1
EndSplineSet
Ligature2: "halfHalfFormsinDevanagari2lookup0 subtable" uni0919 uni094D
EndChar

StartChar: uni0919_uni094D.haln
Encoding: 65553 -1 403
GlifName: uni0919_uni094D_.haln
Width: 2048
VWidth: 0
GlyphClass: 3
Flags: W
LayerCount: 2
Fore
SplineSet
566 1554 m 257,0,-1
 493 1354 l 257,1,-1
 2543 1354 l 257,2,-1
 2616 1554 l 257,3,-1
 566 1554 l 257,0,-1
1585 1543 m 257,4,-1
 1395 1023 l 257,5,-1
 1595 1023 l 257,6,-1
 1785 1543 l 257,7,-1
 1585 1543 l 257,4,-1
1660 1226 m 257,8,-1
 674 1226 l 257,9,-1
 600 1023 l 257,10,-1
 1586 1023 l 257,11,-1
 1660 1226 l 257,8,-1
621 1083 m 257,12,-1
 456 629 l 257,13,-1
 661 629 l 257,14,-1
 826 1083 l 257,15,-1
 621 1083 l 257,12,-1
525 820 m 257,16,-1
 453 620 l 257,17,-1
 1526 620 l 257,18,-1
 1598 820 l 257,19,-1
 525 820 l 257,16,-1
1348 680 m 257,20,-1
 1111 29 l 257,21,-1
 1311 29 l 257,22,-1
 1548 680 l 257,23,-1
 1348 680 l 257,20,-1
187 201 m 257,24,-1
 114 0 l 257,25,-1
 1301 0 l 257,26,-1
 1374 201 l 257,27,-1
 187 201 l 257,24,-1
268 423 m 257,28,-1
 117 8 l 257,29,-1
 318 8 l 257,30,-1
 469 423 l 257,31,-1
 268 423 l 257,28,-1
1704 1037 m 257,32,-1
 1651 890 l 257,33,-1
 1808 890 l 257,34,-1
 1861 1037 l 257,35,-1
 1704 1037 l 257,32,-1
1487 -22 m 257,36,-1
 1416 -218 l 257,37,-1
 1773 -218 l 257,38,-1
 1844 -22 l 257,39,-1
 1487 -22 l 257,36,-1
1644 -183 m 257,40,-1
 1967 -588 l 257,41,-1
 2170 -425 l 257,42,-1
 1846 -21 l 257,43,-1
 1644 -183 l 257,40,-1
EndSplineSet
Ligature2: "halnHalantFormsinDevanagari2lookup0 subtable" uni0919 uni094D
EndChar

StartChar: uni091A
Encoding: 2330 2330 404
GlifName: uni091A_
Width: 2048
VWidth: 0
GlyphClass: 2
Flags: W
AnchorPoint: "abvm_deva" 2307 1603 basechar 0
AnchorPoint: "blwm_deva" 1819 -32 basechar 0
LayerCount: 2
Fore
SplineSet
566 1556 m 257,0,-1
 494 1356 l 257,1,-1
 2542 1356 l 257,2,-1
 2614 1556 l 257,3,-1
 566 1556 l 257,0,-1
2227 1553 m 257,4,-1
 1662 0 l 257,5,-1
 1862 0 l 257,6,-1
 2427 1553 l 257,7,-1
 2227 1553 l 257,4,-1
1931 280 m 257,8,-1
 2004 480 l 257,9,-1
 983 480 l 257,10,-1
 910 280 l 257,11,-1
 1931 280 l 257,8,-1
1113 837 m 257,12,-1
 961 421 l 257,13,-1
 1161 421 l 257,14,-1
 1313 837 l 257,15,-1
 1113 837 l 257,12,-1
433 991 m 257,16,-1
 360 791 l 257,17,-1
 1368 791 l 257,18,-1
 1441 991 l 257,19,-1
 433 991 l 257,16,-1
EndSplineSet
EndChar

StartChar: uni091A_uni0930_uni094D.vatu
Encoding: 65554 -1 405
GlifName: uni091A__uni0930_uni094D_.vatu
Width: 2048
VWidth: 0
GlyphClass: 2
Flags: W
LayerCount: 2
Fore
SplineSet
52 0 m 257,0,-1
 476 0 l 257,1,-1
 1856 215 l 257,2,-1
 1929 416 l 257,3,-1
 52 0 l 257,0,-1
566 1556 m 257,4,-1
 494 1356 l 257,5,-1
 2542 1356 l 257,6,-1
 2614 1556 l 257,7,-1
 566 1556 l 257,4,-1
2227 1553 m 257,8,-1
 1662 0 l 257,9,-1
 1862 0 l 257,10,-1
 2427 1553 l 257,11,-1
 2227 1553 l 257,8,-1
2004 480 m 257,12,-1
 2076 680 l 257,13,-1
 1056 680 l 257,14,-1
 983 480 l 257,15,-1
 2004 480 l 257,12,-1
1185 1037 m 257,16,-1
 1034 621 l 257,17,-1
 1234 621 l 257,18,-1
 1385 1037 l 257,19,-1
 1185 1037 l 257,16,-1
505 1191 m 257,20,-1
 433 991 l 257,21,-1
 1441 991 l 257,22,-1
 1513 1191 l 257,23,-1
 505 1191 l 257,20,-1
EndSplineSet
Ligature2: "rkrfRakarVariantsinDevanagari2lookup0 subtable" uni091A uni094D uni0930
EndChar

StartChar: uni091A_uni094D.half
Encoding: 65555 -1 406
GlifName: uni091A__uni094D_.half
Width: 2048
VWidth: 0
GlyphClass: 3
Flags: W
LayerCount: 2
Fore
SplineSet
566 1556 m 257,0,-1
 494 1356 l 257,1,-1
 2542 1356 l 257,2,-1
 2614 1556 l 257,3,-1
 566 1556 l 257,0,-1
2231 280 m 257,4,-1
 2304 480 l 257,5,-1
 1283 480 l 257,6,-1
 1210 280 l 257,7,-1
 2231 280 l 257,4,-1
1413 837 m 257,8,-1
 1261 421 l 257,9,-1
 1461 421 l 257,10,-1
 1613 837 l 257,11,-1
 1413 837 l 257,8,-1
733 991 m 257,12,-1
 660 791 l 257,13,-1
 1668 791 l 257,14,-1
 1741 991 l 257,15,-1
 733 991 l 257,12,-1
EndSplineSet
Ligature2: "halfHalfFormsinDevanagari2lookup0 subtable" uni091A uni094D
EndChar

StartChar: uni091A_uni094D.haln
Encoding: 65556 -1 407
GlifName: uni091A__uni094D_.haln
Width: 2048
VWidth: 0
GlyphClass: 3
Flags: W
LayerCount: 2
Fore
SplineSet
566 1556 m 257,0,-1
 494 1356 l 257,1,-1
 2542 1356 l 257,2,-1
 2614 1556 l 257,3,-1
 566 1556 l 257,0,-1
2227 1553 m 257,4,-1
 1662 0 l 257,5,-1
 1862 0 l 257,6,-1
 2427 1553 l 257,7,-1
 2227 1553 l 257,4,-1
1931 280 m 257,8,-1
 2004 480 l 257,9,-1
 983 480 l 257,10,-1
 910 280 l 257,11,-1
 1931 280 l 257,8,-1
1113 837 m 257,12,-1
 961 421 l 257,13,-1
 1161 421 l 257,14,-1
 1313 837 l 257,15,-1
 1113 837 l 257,12,-1
433 991 m 257,16,-1
 360 791 l 257,17,-1
 1368 791 l 257,18,-1
 1441 991 l 257,19,-1
 433 991 l 257,16,-1
1487 -22 m 257,20,-1
 1416 -218 l 257,21,-1
 1773 -218 l 257,22,-1
 1844 -22 l 257,23,-1
 1487 -22 l 257,20,-1
1644 -183 m 257,24,-1
 1967 -588 l 257,25,-1
 2170 -425 l 257,26,-1
 1846 -21 l 257,27,-1
 1644 -183 l 257,24,-1
EndSplineSet
Ligature2: "halnHalantFormsinDevanagari2lookup0 subtable" uni091A uni094D
EndChar

StartChar: uni091B
Encoding: 2331 2331 408
GlifName: uni091B_
Width: 2048
VWidth: 0
GlyphClass: 2
Flags: W
AnchorPoint: "abvm_deva" 1961 1570 basechar 0
AnchorPoint: "blwm_deva" 1449 -58 basechar 0
LayerCount: 2
Fore
SplineSet
566 1555 m 257,0,-1
 493 1355 l 257,1,-1
 2544 1355 l 257,2,-1
 2617 1555 l 257,3,-1
 566 1555 l 257,0,-1
1647 1130 m 257,4,-1
 506 1130 l 257,5,-1
 434 931 l 257,6,-1
 1575 931 l 257,7,-1
 1647 1130 l 257,4,-1
503 1130 m 257,8,-1
 305 584 l 257,9,-1
 505 584 l 257,10,-1
 703 1130 l 257,11,-1
 503 1130 l 257,8,-1
403 639 m 257,12,-1
 330 439 l 257,13,-1
 980 439 l 257,14,-1
 1053 639 l 257,15,-1
 403 639 l 257,12,-1
266 493 m 257,16,-1
 87 0 l 257,17,-1
 287 0 l 257,18,-1
 466 493 l 257,19,-1
 266 493 l 257,16,-1
159 199 m 257,20,-1
 87 0 l 257,21,-1
 1522 0 l 257,22,-1
 1594 199 l 257,23,-1
 159 199 l 257,20,-1
1323 6 m 257,24,-1
 1524 6 l 257,25,-1
 2073 1515 l 257,26,-1
 1872 1515 l 257,27,-1
 1323 6 l 257,24,-1
1829 1007 m 257,28,-1
 1756 808 l 257,29,-1
 2326 808 l 257,30,-1
 2399 1007 l 257,31,-1
 1829 1007 l 257,28,-1
2147 868 m 257,32,-1
 2002 471 l 257,33,-1
 2203 471 l 257,34,-1
 2348 868 l 257,35,-1
 2147 868 l 257,32,-1
EndSplineSet
EndChar

StartChar: uni091B_uni0930_uni094D.vatu
Encoding: 65557 -1 409
GlifName: uni091B__uni0930_uni094D_.vatu
Width: 2048
VWidth: 0
GlyphClass: 3
Flags: W
LayerCount: 2
Fore
SplineSet
536 0 m 257,0,-1
 960 0 l 257,1,-1
 1550 70 l 257,2,-1
 1624 271 l 257,3,-1
 536 0 l 257,0,-1
566 1555 m 257,4,-1
 493 1355 l 257,5,-1
 2544 1355 l 257,6,-1
 2617 1555 l 257,7,-1
 566 1555 l 257,4,-1
1694 1258 m 257,8,-1
 553 1258 l 257,9,-1
 485 1072 l 257,10,-1
 1626 1072 l 257,11,-1
 1694 1258 l 257,8,-1
552 1264 m 257,12,-1
 389 815 l 257,13,-1
 589 815 l 257,14,-1
 752 1264 l 257,15,-1
 552 1264 l 257,12,-1
487 870 m 257,16,-1
 414 670 l 257,17,-1
 1064 670 l 257,18,-1
 1137 870 l 257,19,-1
 487 870 l 257,16,-1
351 724 m 257,20,-1
 171 231 l 257,21,-1
 371 231 l 257,22,-1
 551 724 l 257,23,-1
 351 724 l 257,20,-1
244 430 m 257,24,-1
 171 231 l 257,25,-1
 1606 231 l 257,26,-1
 1679 430 l 257,27,-1
 244 430 l 257,24,-1
1323 6 m 257,28,-1
 1524 6 l 257,29,-1
 2073 1515 l 257,30,-1
 1872 1515 l 257,31,-1
 1323 6 l 257,28,-1
1864 1104 m 257,32,-1
 1791 905 l 257,33,-1
 2361 905 l 257,34,-1
 2434 1104 l 257,35,-1
 1864 1104 l 257,32,-1
2182 965 m 257,36,-1
 2038 568 l 257,37,-1
 2239 568 l 257,38,-1
 2383 965 l 257,39,-1
 2182 965 l 257,36,-1
EndSplineSet
Ligature2: "rkrfRakarVariantsinDevanagari2lookup0 subtable" uni091B uni094D uni0930
EndChar

StartChar: uni091B_uni094D.half
Encoding: 65558 -1 410
GlifName: uni091B__uni094D_.half
Width: 2048
VWidth: 0
GlyphClass: 3
Flags: W
LayerCount: 2
Fore
SplineSet
566 1555 m 257,0,-1
 493 1355 l 257,1,-1
 2544 1355 l 257,2,-1
 2617 1555 l 257,3,-1
 566 1555 l 257,0,-1
2247 1130 m 257,4,-1
 1106 1130 l 257,5,-1
 1034 931 l 257,6,-1
 2175 931 l 257,7,-1
 2247 1130 l 257,4,-1
1103 1130 m 257,8,-1
 905 584 l 257,9,-1
 1105 584 l 257,10,-1
 1303 1130 l 257,11,-1
 1103 1130 l 257,8,-1
1003 639 m 257,12,-1
 930 439 l 257,13,-1
 1580 439 l 257,14,-1
 1653 639 l 257,15,-1
 1003 639 l 257,12,-1
866 493 m 257,16,-1
 687 0 l 257,17,-1
 887 0 l 257,18,-1
 1066 493 l 257,19,-1
 866 493 l 257,16,-1
759 199 m 257,20,-1
 687 0 l 257,21,-1
 2122 0 l 257,22,-1
 2194 199 l 257,23,-1
 759 199 l 257,20,-1
EndSplineSet
Ligature2: "halfHalfFormsinDevanagari2lookup0 subtable" uni091B uni094D
EndChar

StartChar: uni091B_uni094D.haln
Encoding: 65559 -1 411
GlifName: uni091B__uni094D_.haln
Width: 2048
VWidth: 0
GlyphClass: 3
Flags: W
LayerCount: 2
Fore
SplineSet
566 1555 m 257,0,-1
 493 1355 l 257,1,-1
 2544 1355 l 257,2,-1
 2617 1555 l 257,3,-1
 566 1555 l 257,0,-1
1647 1130 m 257,4,-1
 506 1130 l 257,5,-1
 434 931 l 257,6,-1
 1575 931 l 257,7,-1
 1647 1130 l 257,4,-1
503 1130 m 257,8,-1
 305 584 l 257,9,-1
 505 584 l 257,10,-1
 703 1130 l 257,11,-1
 503 1130 l 257,8,-1
403 639 m 257,12,-1
 330 439 l 257,13,-1
 980 439 l 257,14,-1
 1053 639 l 257,15,-1
 403 639 l 257,12,-1
266 493 m 257,16,-1
 87 0 l 257,17,-1
 287 0 l 257,18,-1
 466 493 l 257,19,-1
 266 493 l 257,16,-1
159 199 m 257,20,-1
 87 0 l 257,21,-1
 1522 0 l 257,22,-1
 1594 199 l 257,23,-1
 159 199 l 257,20,-1
1323 6 m 257,24,-1
 1524 6 l 257,25,-1
 2073 1515 l 257,26,-1
 1872 1515 l 257,27,-1
 1323 6 l 257,24,-1
1829 1007 m 257,28,-1
 1756 808 l 257,29,-1
 2326 808 l 257,30,-1
 2399 1007 l 257,31,-1
 1829 1007 l 257,28,-1
2147 868 m 257,32,-1
 2002 471 l 257,33,-1
 2203 471 l 257,34,-1
 2348 868 l 257,35,-1
 2147 868 l 257,32,-1
1282 -22 m 257,36,-1
 1211 -218 l 257,37,-1
 1568 -218 l 257,38,-1
 1639 -22 l 257,39,-1
 1282 -22 l 257,36,-1
1439 -183 m 257,40,-1
 1762 -588 l 257,41,-1
 1965 -425 l 257,42,-1
 1641 -21 l 257,43,-1
 1439 -183 l 257,40,-1
EndSplineSet
Ligature2: "halnHalantFormsinDevanagari2lookup0 subtable" uni091B uni094D
EndChar

StartChar: uni091C
Encoding: 2332 2332 412
GlifName: uni091C_
Width: 2048
VWidth: 0
GlyphClass: 2
Flags: W
AnchorPoint: "abvm_deva" 2361 1611 basechar 0
AnchorPoint: "blwm_deva" 1819 -32 basechar 0
LayerCount: 2
Fore
SplineSet
546 1548 m 257,0,-1
 474 1350 l 257,1,-1
 2556 1350 l 257,2,-1
 2628 1548 l 257,3,-1
 546 1548 l 257,0,-1
2282 1548 m 257,4,-1
 1715 -12 l 257,5,-1
 1914 -12 l 257,6,-1
 2481 1548 l 257,7,-1
 2282 1548 l 257,4,-1
1239 860 m 257,8,-1
 1167 663 l 257,9,-1
 2093 663 l 257,10,-1
 2165 860 l 257,11,-1
 1239 860 l 257,8,-1
1193 860 m 257,12,-1
 1030 413 l 257,13,-1
 1230 413 l 257,14,-1
 1393 860 l 257,15,-1
 1193 860 l 257,12,-1
264 567 m 257,16,-1
 192 367 l 257,17,-1
 1214 367 l 257,18,-1
 1286 567 l 257,19,-1
 264 567 l 257,16,-1
369 855 m 257,20,-1
 243 509 l 257,21,-1
 443 509 l 257,22,-1
 569 855 l 257,23,-1
 369 855 l 257,20,-1
EndSplineSet
EndChar

StartChar: uni091C_uni0930_uni094D.vatu
Encoding: 65560 -1 413
GlifName: uni091C__uni0930_uni094D_.vatu
Width: 2048
VWidth: 0
GlyphClass: 2
Flags: W
LayerCount: 2
Fore
SplineSet
52 0 m 257,0,-1
 476 0 l 257,1,-1
 1856 215 l 257,2,-1
 1929 416 l 257,3,-1
 52 0 l 257,0,-1
546 1548 m 257,4,-1
 474 1350 l 257,5,-1
 2556 1350 l 257,6,-1
 2628 1548 l 257,7,-1
 546 1548 l 257,4,-1
2282 1548 m 257,8,-1
 1715 -12 l 257,9,-1
 1914 -12 l 257,10,-1
 2481 1548 l 257,11,-1
 2282 1548 l 257,8,-1
1239 860 m 257,12,-1
 1167 663 l 257,13,-1
 2093 663 l 257,14,-1
 2165 860 l 257,15,-1
 1239 860 l 257,12,-1
1193 860 m 257,16,-1
 1030 413 l 257,17,-1
 1230 413 l 257,18,-1
 1393 860 l 257,19,-1
 1193 860 l 257,16,-1
264 567 m 257,20,-1
 192 367 l 257,21,-1
 1214 367 l 257,22,-1
 1286 567 l 257,23,-1
 264 567 l 257,20,-1
369 855 m 257,24,-1
 243 509 l 257,25,-1
 443 509 l 257,26,-1
 569 855 l 257,27,-1
 369 855 l 257,24,-1
EndSplineSet
Ligature2: "rkrfRakarVariantsinDevanagari2lookup0 subtable" uni091C uni094D uni0930
EndChar

StartChar: uni091C_uni094D.half
Encoding: 65561 -1 414
GlifName: uni091C__uni094D_.half
Width: 2048
VWidth: 0
GlyphClass: 3
Flags: W
LayerCount: 2
Fore
SplineSet
546 1548 m 257,0,-1
 474 1350 l 257,1,-1
 2556 1350 l 257,2,-1
 2628 1548 l 257,3,-1
 546 1548 l 257,0,-1
1539 860 m 257,4,-1
 1467 663 l 257,5,-1
 2393 663 l 257,6,-1
 2465 860 l 257,7,-1
 1539 860 l 257,4,-1
1493 860 m 257,8,-1
 1330 413 l 257,9,-1
 1530 413 l 257,10,-1
 1693 860 l 257,11,-1
 1493 860 l 257,8,-1
564 567 m 257,12,-1
 492 367 l 257,13,-1
 1514 367 l 257,14,-1
 1586 567 l 257,15,-1
 564 567 l 257,12,-1
669 855 m 257,16,-1
 543 509 l 257,17,-1
 743 509 l 257,18,-1
 869 855 l 257,19,-1
 669 855 l 257,16,-1
EndSplineSet
Ligature2: "halfHalfFormsinDevanagari2lookup0 subtable" uni091C uni094D
EndChar

StartChar: uni091C_uni094D.haln
Encoding: 65562 -1 415
GlifName: uni091C__uni094D_.haln
Width: 2048
VWidth: 0
GlyphClass: 3
Flags: W
LayerCount: 2
Fore
SplineSet
546 1548 m 257,0,-1
 474 1350 l 257,1,-1
 2556 1350 l 257,2,-1
 2628 1548 l 257,3,-1
 546 1548 l 257,0,-1
2282 1548 m 257,4,-1
 1715 -12 l 257,5,-1
 1914 -12 l 257,6,-1
 2481 1548 l 257,7,-1
 2282 1548 l 257,4,-1
1239 860 m 257,8,-1
 1167 663 l 257,9,-1
 2093 663 l 257,10,-1
 2165 860 l 257,11,-1
 1239 860 l 257,8,-1
1193 860 m 257,12,-1
 1030 413 l 257,13,-1
 1230 413 l 257,14,-1
 1393 860 l 257,15,-1
 1193 860 l 257,12,-1
264 567 m 257,16,-1
 192 367 l 257,17,-1
 1214 367 l 257,18,-1
 1286 567 l 257,19,-1
 264 567 l 257,16,-1
369 855 m 257,20,-1
 243 509 l 257,21,-1
 443 509 l 257,22,-1
 569 855 l 257,23,-1
 369 855 l 257,20,-1
1487 -22 m 257,24,-1
 1416 -218 l 257,25,-1
 1773 -218 l 257,26,-1
 1844 -22 l 257,27,-1
 1487 -22 l 257,24,-1
1644 -183 m 257,28,-1
 1967 -588 l 257,29,-1
 2170 -425 l 257,30,-1
 1846 -21 l 257,31,-1
 1644 -183 l 257,28,-1
EndSplineSet
Ligature2: "halnHalantFormsinDevanagari2lookup0 subtable" uni091C uni094D
EndChar

StartChar: uni091C_uni094D_uni091E.akhn
Encoding: 65563 -1 416
GlifName: uni091C__uni094D__uni091E_.akhn
Width: 2048
VWidth: 0
GlyphClass: 3
Flags: W
LayerCount: 2
Fore
SplineSet
529 1548 m 257,0,-1
 457 1350 l 257,1,-1
 2539 1350 l 257,2,-1
 2611 1548 l 257,3,-1
 529 1548 l 257,0,-1
2265 1548 m 257,4,-1
 1698 -12 l 257,5,-1
 1897 -12 l 257,6,-1
 2464 1548 l 257,7,-1
 2265 1548 l 257,4,-1
1222 860 m 257,8,-1
 1150 663 l 257,9,-1
 2076 663 l 257,10,-1
 2148 860 l 257,11,-1
 1222 860 l 257,8,-1
1176 860 m 257,12,-1
 1013 413 l 257,13,-1
 1213 413 l 257,14,-1
 1376 860 l 257,15,-1
 1176 860 l 257,12,-1
247 567 m 257,16,-1
 175 367 l 257,17,-1
 1197 367 l 257,18,-1
 1269 567 l 257,19,-1
 247 567 l 257,16,-1
175 368 m 257,20,-1
 340 75 l 257,21,-1
 598 75 l 257,22,-1
 418 368 l 257,23,-1
 175 368 l 257,20,-1
EndSplineSet
Ligature2: "akhnAkhandinDevanagari2lookup0 subtable" uni091C uni094D uni091E
EndChar

StartChar: uni091C_uni094D_uni091E.half
Encoding: 65564 -1 417
GlifName: uni091C__uni094D__uni091E_.half
Width: 2048
VWidth: 0
GlyphClass: 3
Flags: W
LayerCount: 2
Fore
SplineSet
529 1548 m 257,0,-1
 457 1350 l 257,1,-1
 2539 1350 l 257,2,-1
 2611 1548 l 257,3,-1
 529 1548 l 257,0,-1
1422 860 m 257,4,-1
 1350 663 l 257,5,-1
 2276 663 l 257,6,-1
 2348 860 l 257,7,-1
 1422 860 l 257,4,-1
1376 860 m 257,8,-1
 1213 413 l 257,9,-1
 1413 413 l 257,10,-1
 1576 860 l 257,11,-1
 1376 860 l 257,8,-1
447 567 m 257,12,-1
 375 367 l 257,13,-1
 1397 367 l 257,14,-1
 1469 567 l 257,15,-1
 447 567 l 257,12,-1
375 368 m 257,16,-1
 540 75 l 257,17,-1
 798 75 l 257,18,-1
 618 368 l 257,19,-1
 375 368 l 257,16,-1
EndSplineSet
Ligature2: "halfHalfFormsinDevanagari2lookup0 subtable" uni091C_uni094D_uni091E.akhn uni094D
EndChar

StartChar: uni091C_uni094D_uni091E_uni094D
Encoding: 65565 -1 418
GlifName: uni091C__uni094D__uni091E__uni094D_
Width: 2048
VWidth: 0
GlyphClass: 2
Flags: W
LayerCount: 2
Fore
SplineSet
529 1548 m 257,0,-1
 457 1350 l 257,1,-1
 2539 1350 l 257,2,-1
 2611 1548 l 257,3,-1
 529 1548 l 257,0,-1
2265 1548 m 257,4,-1
 1698 -12 l 257,5,-1
 1897 -12 l 257,6,-1
 2464 1548 l 257,7,-1
 2265 1548 l 257,4,-1
1222 860 m 257,8,-1
 1150 663 l 257,9,-1
 2076 663 l 257,10,-1
 2148 860 l 257,11,-1
 1222 860 l 257,8,-1
1176 860 m 257,12,-1
 1013 413 l 257,13,-1
 1213 413 l 257,14,-1
 1376 860 l 257,15,-1
 1176 860 l 257,12,-1
247 567 m 257,16,-1
 175 367 l 257,17,-1
 1197 367 l 257,18,-1
 1269 567 l 257,19,-1
 247 567 l 257,16,-1
175 368 m 257,20,-1
 340 75 l 257,21,-1
 598 75 l 257,22,-1
 418 368 l 257,23,-1
 175 368 l 257,20,-1
1463 -22 m 257,24,-1
 1392 -218 l 257,25,-1
 1749 -218 l 257,26,-1
 1820 -22 l 257,27,-1
 1463 -22 l 257,24,-1
1620 -183 m 257,28,-1
 1943 -588 l 257,29,-1
 2146 -425 l 257,30,-1
 1822 -21 l 257,31,-1
 1620 -183 l 257,28,-1
EndSplineSet
Ligature2: "halnHalantFormsinDevanagari2lookup0 subtable" uni091C_uni094D_uni091E.akhn uni094D
EndChar

StartChar: uni091D
Encoding: 2333 2333 419
GlifName: uni091D_
Width: 2048
VWidth: 0
GlyphClass: 2
Flags: W
AnchorPoint: "abvm_deva" 2352 1585 basechar 0
AnchorPoint: "blwm_deva" 1819 -32 basechar 0
LayerCount: 2
Fore
SplineSet
555 1548 m 257,0,-1
 483 1349 l 257,1,-1
 2547 1349 l 257,2,-1
 2619 1548 l 257,3,-1
 555 1548 l 257,0,-1
2271 1537 m 257,4,-1
 1710 -5 l 257,5,-1
 1912 -5 l 257,6,-1
 2473 1537 l 257,7,-1
 2271 1537 l 257,4,-1
1527 1537 m 257,8,-1
 1340 1023 l 257,9,-1
 1540 1023 l 257,10,-1
 1727 1537 l 257,11,-1
 1527 1537 l 257,8,-1
579 1223 m 257,12,-1
 506 1023 l 257,13,-1
 1540 1023 l 257,14,-1
 1613 1223 l 257,15,-1
 579 1223 l 257,12,-1
529 1085 m 257,16,-1
 371 651 l 257,17,-1
 571 651 l 257,18,-1
 729 1085 l 257,19,-1
 529 1085 l 257,16,-1
439 837 m 257,20,-1
 366 638 l 257,21,-1
 2140 638 l 257,22,-1
 2213 837 l 257,23,-1
 439 837 l 257,20,-1
1192 691 m 257,24,-1
 943 7 l 257,25,-1
 1143 7 l 257,26,-1
 1392 691 l 257,27,-1
 1192 691 l 257,24,-1
208 203 m 257,28,-1
 134 0 l 257,29,-1
 1140 0 l 257,30,-1
 1214 203 l 257,31,-1
 208 203 l 257,28,-1
157 63 m 257,32,-1
 80 -148 l 257,33,-1
 280 -148 l 257,34,-1
 357 63 l 257,35,-1
 157 63 l 257,32,-1
EndSplineSet
EndChar

StartChar: uni091D_uni0930_uni094D.vatu
Encoding: 65566 -1 420
GlifName: uni091D__uni0930_uni094D_.vatu
Width: 2048
VWidth: 0
GlyphClass: 3
Flags: W
LayerCount: 2
Fore
SplineSet
902 0 m 257,0,-1
 1416 0 l 257,1,-1
 1856 215 l 257,2,-1
 1929 416 l 257,3,-1
 902 0 l 257,0,-1
555 1548 m 257,4,-1
 483 1349 l 257,5,-1
 2547 1349 l 257,6,-1
 2619 1548 l 257,7,-1
 555 1548 l 257,4,-1
2271 1537 m 257,8,-1
 1710 -5 l 257,9,-1
 1912 -5 l 257,10,-1
 2473 1537 l 257,11,-1
 2271 1537 l 257,8,-1
1527 1537 m 257,12,-1
 1340 1023 l 257,13,-1
 1540 1023 l 257,14,-1
 1727 1537 l 257,15,-1
 1527 1537 l 257,12,-1
579 1223 m 257,16,-1
 506 1023 l 257,17,-1
 1540 1023 l 257,18,-1
 1613 1223 l 257,19,-1
 579 1223 l 257,16,-1
529 1085 m 257,20,-1
 371 651 l 257,21,-1
 571 651 l 257,22,-1
 729 1085 l 257,23,-1
 529 1085 l 257,20,-1
439 837 m 257,24,-1
 366 638 l 257,25,-1
 2140 638 l 257,26,-1
 2213 837 l 257,27,-1
 439 837 l 257,24,-1
902 691 m 257,28,-1
 653 7 l 257,29,-1
 853 7 l 257,30,-1
 1102 691 l 257,31,-1
 902 691 l 257,28,-1
208 203 m 257,32,-1
 134 0 l 257,33,-1
 850 0 l 257,34,-1
 924 203 l 257,35,-1
 208 203 l 257,32,-1
157 63 m 257,36,-1
 80 -148 l 257,37,-1
 280 -148 l 257,38,-1
 357 63 l 257,39,-1
 157 63 l 257,36,-1
EndSplineSet
Ligature2: "rkrfRakarVariantsinDevanagari2lookup0 subtable" uni091D uni094D uni0930
EndChar

StartChar: uni091D_uni094D.half
Encoding: 65567 -1 421
GlifName: uni091D__uni094D_.half
Width: 2048
VWidth: 0
GlyphClass: 3
Flags: W
LayerCount: 2
Fore
SplineSet
555 1548 m 257,0,-1
 483 1349 l 257,1,-1
 2547 1349 l 257,2,-1
 2619 1548 l 257,3,-1
 555 1548 l 257,0,-1
1827 1537 m 257,4,-1
 1640 1023 l 257,5,-1
 1840 1023 l 257,6,-1
 2027 1537 l 257,7,-1
 1827 1537 l 257,4,-1
879 1223 m 257,8,-1
 806 1023 l 257,9,-1
 1840 1023 l 257,10,-1
 1913 1223 l 257,11,-1
 879 1223 l 257,8,-1
829 1085 m 257,12,-1
 671 651 l 257,13,-1
 871 651 l 257,14,-1
 1029 1085 l 257,15,-1
 829 1085 l 257,12,-1
739 837 m 257,16,-1
 666 638 l 257,17,-1
 2440 638 l 257,18,-1
 2513 837 l 257,19,-1
 739 837 l 257,16,-1
1492 691 m 257,20,-1
 1243 7 l 257,21,-1
 1443 7 l 257,22,-1
 1692 691 l 257,23,-1
 1492 691 l 257,20,-1
508 203 m 257,24,-1
 434 0 l 257,25,-1
 1440 0 l 257,26,-1
 1514 203 l 257,27,-1
 508 203 l 257,24,-1
457 63 m 257,28,-1
 380 -148 l 257,29,-1
 580 -148 l 257,30,-1
 657 63 l 257,31,-1
 457 63 l 257,28,-1
EndSplineSet
Ligature2: "halfHalfFormsinDevanagari2lookup0 subtable" uni091D uni094D
EndChar

StartChar: uni091D_uni094D.haln
Encoding: 65568 -1 422
GlifName: uni091D__uni094D_.haln
Width: 2048
VWidth: 0
GlyphClass: 3
Flags: W
LayerCount: 2
Fore
SplineSet
555 1548 m 257,0,-1
 483 1349 l 257,1,-1
 2547 1349 l 257,2,-1
 2619 1548 l 257,3,-1
 555 1548 l 257,0,-1
2271 1537 m 257,4,-1
 1710 -5 l 257,5,-1
 1912 -5 l 257,6,-1
 2473 1537 l 257,7,-1
 2271 1537 l 257,4,-1
1527 1537 m 257,8,-1
 1340 1023 l 257,9,-1
 1540 1023 l 257,10,-1
 1727 1537 l 257,11,-1
 1527 1537 l 257,8,-1
579 1223 m 257,12,-1
 506 1023 l 257,13,-1
 1540 1023 l 257,14,-1
 1613 1223 l 257,15,-1
 579 1223 l 257,12,-1
529 1085 m 257,16,-1
 371 651 l 257,17,-1
 571 651 l 257,18,-1
 729 1085 l 257,19,-1
 529 1085 l 257,16,-1
439 837 m 257,20,-1
 366 638 l 257,21,-1
 2140 638 l 257,22,-1
 2213 837 l 257,23,-1
 439 837 l 257,20,-1
1192 691 m 257,24,-1
 943 7 l 257,25,-1
 1143 7 l 257,26,-1
 1392 691 l 257,27,-1
 1192 691 l 257,24,-1
208 203 m 257,28,-1
 134 0 l 257,29,-1
 1140 0 l 257,30,-1
 1214 203 l 257,31,-1
 208 203 l 257,28,-1
157 63 m 257,32,-1
 80 -148 l 257,33,-1
 280 -148 l 257,34,-1
 357 63 l 257,35,-1
 157 63 l 257,32,-1
1487 -22 m 257,36,-1
 1416 -218 l 257,37,-1
 1773 -218 l 257,38,-1
 1844 -22 l 257,39,-1
 1487 -22 l 257,36,-1
1644 -183 m 257,40,-1
 1967 -588 l 257,41,-1
 2170 -425 l 257,42,-1
 1846 -21 l 257,43,-1
 1644 -183 l 257,40,-1
EndSplineSet
Ligature2: "halnHalantFormsinDevanagari2lookup0 subtable" uni091D uni094D
EndChar

StartChar: uni091E
Encoding: 2334 2334 423
GlifName: uni091E_
Width: 2048
VWidth: 0
GlyphClass: 2
Flags: W
AnchorPoint: "abvm_deva" 2417 1574 basechar 0
AnchorPoint: "blwm_deva" 1819 -32 basechar 0
LayerCount: 2
Fore
SplineSet
563 1548 m 257,0,-1
 491 1348 l 257,1,-1
 2541 1348 l 257,2,-1
 2613 1548 l 257,3,-1
 563 1548 l 257,0,-1
2315 1537 m 257,4,-1
 1753 -8 l 257,5,-1
 1953 -8 l 257,6,-1
 2515 1537 l 257,7,-1
 2315 1537 l 257,4,-1
1248 737 m 257,8,-1
 1175 537 l 257,9,-1
 2049 537 l 257,10,-1
 2122 737 l 257,11,-1
 1248 737 l 257,8,-1
435 960 m 257,12,-1
 363 760 l 257,13,-1
 1233 760 l 257,14,-1
 1305 960 l 257,15,-1
 435 960 l 257,12,-1
1275 960 m 257,16,-1
 1041 316 l 257,17,-1
 1241 316 l 257,18,-1
 1475 960 l 257,19,-1
 1275 960 l 257,16,-1
231 460 m 257,20,-1
 159 260 l 257,21,-1
 1221 260 l 257,22,-1
 1293 460 l 257,23,-1
 231 460 l 257,20,-1
EndSplineSet
EndChar

StartChar: uni091E_uni0930_uni094D.vatu
Encoding: 65569 -1 424
GlifName: uni091E__uni0930_uni094D_.vatu
Width: 2048
VWidth: 0
GlyphClass: 3
Flags: W
LayerCount: 2
Fore
SplineSet
52 0 m 257,0,-1
 476 0 l 257,1,-1
 1856 215 l 257,2,-1
 1929 416 l 257,3,-1
 52 0 l 257,0,-1
563 1548 m 257,4,-1
 491 1348 l 257,5,-1
 2541 1348 l 257,6,-1
 2613 1548 l 257,7,-1
 563 1548 l 257,4,-1
2315 1537 m 257,8,-1
 1753 -8 l 257,9,-1
 1953 -8 l 257,10,-1
 2515 1537 l 257,11,-1
 2315 1537 l 257,8,-1
1248 737 m 257,12,-1
 1175 537 l 257,13,-1
 2049 537 l 257,14,-1
 2122 737 l 257,15,-1
 1248 737 l 257,12,-1
435 960 m 257,16,-1
 363 760 l 257,17,-1
 1233 760 l 257,18,-1
 1305 960 l 257,19,-1
 435 960 l 257,16,-1
1275 960 m 257,20,-1
 1041 316 l 257,21,-1
 1241 316 l 257,22,-1
 1475 960 l 257,23,-1
 1275 960 l 257,20,-1
239 482 m 257,24,-1
 167 282 l 257,25,-1
 1229 282 l 257,26,-1
 1301 482 l 257,27,-1
 239 482 l 257,24,-1
EndSplineSet
Ligature2: "rkrfRakarVariantsinDevanagari2lookup0 subtable" uni091E uni094D uni0930
EndChar

StartChar: uni091E_uni094D.half
Encoding: 65570 -1 425
GlifName: uni091E__uni094D_.half
Width: 2048
VWidth: 0
GlyphClass: 3
Flags: W
LayerCount: 2
Fore
SplineSet
563 1548 m 257,0,-1
 491 1348 l 257,1,-1
 2541 1348 l 257,2,-1
 2613 1548 l 257,3,-1
 563 1548 l 257,0,-1
1508 737 m 257,4,-1
 1435 537 l 257,5,-1
 2309 537 l 257,6,-1
 2382 737 l 257,7,-1
 1508 737 l 257,4,-1
695 960 m 257,8,-1
 623 760 l 257,9,-1
 1493 760 l 257,10,-1
 1565 960 l 257,11,-1
 695 960 l 257,8,-1
1535 960 m 257,12,-1
 1301 316 l 257,13,-1
 1501 316 l 257,14,-1
 1735 960 l 257,15,-1
 1535 960 l 257,12,-1
491 460 m 257,16,-1
 419 260 l 257,17,-1
 1481 260 l 257,18,-1
 1553 460 l 257,19,-1
 491 460 l 257,16,-1
EndSplineSet
Ligature2: "halfHalfFormsinDevanagari2lookup0 subtable" uni091E uni094D
EndChar

StartChar: uni091E_uni094D.haln
Encoding: 65571 -1 426
GlifName: uni091E__uni094D_.haln
Width: 2048
VWidth: 0
GlyphClass: 3
Flags: W
LayerCount: 2
Fore
SplineSet
563 1548 m 257,0,-1
 491 1348 l 257,1,-1
 2541 1348 l 257,2,-1
 2613 1548 l 257,3,-1
 563 1548 l 257,0,-1
2315 1537 m 257,4,-1
 1753 -8 l 257,5,-1
 1953 -8 l 257,6,-1
 2515 1537 l 257,7,-1
 2315 1537 l 257,4,-1
1248 737 m 257,8,-1
 1175 537 l 257,9,-1
 2049 537 l 257,10,-1
 2122 737 l 257,11,-1
 1248 737 l 257,8,-1
435 960 m 257,12,-1
 363 760 l 257,13,-1
 1233 760 l 257,14,-1
 1305 960 l 257,15,-1
 435 960 l 257,12,-1
1275 960 m 257,16,-1
 1041 316 l 257,17,-1
 1241 316 l 257,18,-1
 1475 960 l 257,19,-1
 1275 960 l 257,16,-1
231 460 m 257,20,-1
 159 260 l 257,21,-1
 1221 260 l 257,22,-1
 1293 460 l 257,23,-1
 231 460 l 257,20,-1
1487 -22 m 257,24,-1
 1416 -218 l 257,25,-1
 1773 -218 l 257,26,-1
 1844 -22 l 257,27,-1
 1487 -22 l 257,24,-1
1644 -183 m 257,28,-1
 1967 -588 l 257,29,-1
 2170 -425 l 257,30,-1
 1846 -21 l 257,31,-1
 1644 -183 l 257,28,-1
EndSplineSet
Ligature2: "halnHalantFormsinDevanagari2lookup0 subtable" uni091E uni094D
EndChar

StartChar: uni091F
Encoding: 2335 2335 427
GlifName: uni091F_
Width: 2048
VWidth: 0
GlyphClass: 2
Flags: W
AnchorPoint: "abvm_deva" 2285 1578 basechar 0
AnchorPoint: "blwm_deva" 1098 -70 basechar 0
LayerCount: 2
Fore
SplineSet
563 1548 m 257,0,-1
 491 1348 l 257,1,-1
 2543 1348 l 257,2,-1
 2615 1548 l 257,3,-1
 563 1548 l 257,0,-1
2153 1528 m 257,4,-1
 1957 988 l 257,5,-1
 2157 988 l 257,6,-1
 2353 1528 l 257,7,-1
 2153 1528 l 257,4,-1
2169 1023 m 257,8,-1
 478 1023 l 257,9,-1
 405 822 l 257,10,-1
 2096 822 l 257,11,-1
 2169 1023 l 257,8,-1
457 1023 m 257,12,-1
 87 5 l 257,13,-1
 287 5 l 257,14,-1
 657 1023 l 257,15,-1
 457 1023 l 257,12,-1
158 201 m 257,16,-1
 85 0 l 257,17,-1
 1840 0 l 257,18,-1
 1913 201 l 257,19,-1
 158 201 l 257,16,-1
EndSplineSet
EndChar

StartChar: uni091F_uni0930_uni094D.vatu
Encoding: 65572 -1 428
GlifName: uni091F__uni0930_uni094D_.vatu
Width: 2048
VWidth: 0
GlyphClass: 3
Flags: W
LayerCount: 2
Fore
SplineSet
962 90 m 257,0,-1
 1047 -290 l 257,1,-1
 1329 -290 l 257,2,-1
 1145 259 l 257,3,-1
 962 90 l 257,0,-1
1145 259 m 257,4,-1
 535 -299 l 257,5,-1
 756 -299 l 257,6,-1
 1200 94 l 257,7,-1
 1145 259 l 257,4,-1
563 1548 m 257,8,-1
 491 1348 l 257,9,-1
 2543 1348 l 257,10,-1
 2615 1548 l 257,11,-1
 563 1548 l 257,8,-1
2153 1528 m 257,12,-1
 1957 988 l 257,13,-1
 2157 988 l 257,14,-1
 2353 1528 l 257,15,-1
 2153 1528 l 257,12,-1
2169 1023 m 257,16,-1
 478 1023 l 257,17,-1
 405 822 l 257,18,-1
 2096 822 l 257,19,-1
 2169 1023 l 257,16,-1
457 1023 m 257,20,-1
 196 305 l 257,21,-1
 396 305 l 257,22,-1
 657 1023 l 257,23,-1
 457 1023 l 257,20,-1
267 501 m 257,24,-1
 194 300 l 257,25,-1
 1949 300 l 257,26,-1
 2022 501 l 257,27,-1
 267 501 l 257,24,-1
EndSplineSet
Ligature2: "rkrfRakarVariantsinDevanagari2lookup0 subtable" uni091F uni094D uni0930
EndChar

StartChar: uni091F_uni094D.haln
Encoding: 65573 -1 429
GlifName: uni091F__uni094D_.haln
Width: 2048
VWidth: 0
GlyphClass: 3
Flags: W
LayerCount: 2
Fore
SplineSet
563 1548 m 257,0,-1
 491 1348 l 257,1,-1
 2543 1348 l 257,2,-1
 2615 1548 l 257,3,-1
 563 1548 l 257,0,-1
2153 1528 m 257,4,-1
 1957 988 l 257,5,-1
 2157 988 l 257,6,-1
 2353 1528 l 257,7,-1
 2153 1528 l 257,4,-1
2169 1023 m 257,8,-1
 478 1023 l 257,9,-1
 405 822 l 257,10,-1
 2096 822 l 257,11,-1
 2169 1023 l 257,8,-1
457 1023 m 257,12,-1
 87 5 l 257,13,-1
 287 5 l 257,14,-1
 657 1023 l 257,15,-1
 457 1023 l 257,12,-1
158 201 m 257,16,-1
 85 0 l 257,17,-1
 1840 0 l 257,18,-1
 1913 201 l 257,19,-1
 158 201 l 257,16,-1
1487 -22 m 257,20,-1
 1416 -218 l 257,21,-1
 1773 -218 l 257,22,-1
 1844 -22 l 257,23,-1
 1487 -22 l 257,20,-1
1644 -183 m 257,24,-1
 1967 -588 l 257,25,-1
 2170 -425 l 257,26,-1
 1846 -21 l 257,27,-1
 1644 -183 l 257,24,-1
EndSplineSet
Ligature2: "halnHalantFormsinDevanagari2lookup0 subtable" uni091F uni094D
EndChar

StartChar: uni0920
Encoding: 2336 2336 430
GlifName: uni0920
Width: 2048
VWidth: 0
GlyphClass: 2
Flags: W
AnchorPoint: "abvm_deva" 1594 1615 basechar 0
AnchorPoint: "blwm_deva" 1023 -96 basechar 0
LayerCount: 2
Fore
SplineSet
563 1548 m 257,0,-1
 491 1350 l 257,1,-1
 2539 1350 l 257,2,-1
 2611 1548 l 257,3,-1
 563 1548 l 257,0,-1
1452 1484 m 257,4,-1
 1284 1023 l 257,5,-1
 1492 1023 l 257,6,-1
 1660 1484 l 257,7,-1
 1452 1484 l 257,4,-1
462 1035 m 257,8,-1
 389 834 l 257,9,-1
 2289 834 l 257,10,-1
 2362 1035 l 257,11,-1
 462 1035 l 257,8,-1
449 1035 m 257,12,-1
 77 13 l 257,13,-1
 277 13 l 257,14,-1
 649 1035 l 257,15,-1
 449 1035 l 257,12,-1
2162 1035 m 257,16,-1
 1785 0 l 257,17,-1
 1985 0 l 257,18,-1
 2362 1035 l 257,19,-1
 2162 1035 l 257,16,-1
145 198 m 257,20,-1
 73 0 l 257,21,-1
 1965 0 l 257,22,-1
 2037 198 l 257,23,-1
 145 198 l 257,20,-1
EndSplineSet
EndChar

StartChar: uni0920_uni0930_uni094D.vatu
Encoding: 65574 -1 431
GlifName: uni0920_uni0930_uni094D_.vatu
Width: 2048
VWidth: 0
GlyphClass: 3
Flags: W
LayerCount: 2
Fore
SplineSet
962 90 m 257,0,-1
 1047 -290 l 257,1,-1
 1329 -290 l 257,2,-1
 1145 259 l 257,3,-1
 962 90 l 257,0,-1
1145 259 m 257,4,-1
 535 -299 l 257,5,-1
 756 -299 l 257,6,-1
 1200 94 l 257,7,-1
 1145 259 l 257,4,-1
563 1548 m 257,8,-1
 491 1350 l 257,9,-1
 2539 1350 l 257,10,-1
 2611 1548 l 257,11,-1
 563 1548 l 257,8,-1
1452 1484 m 257,12,-1
 1284 1023 l 257,13,-1
 1492 1023 l 257,14,-1
 1660 1484 l 257,15,-1
 1452 1484 l 257,12,-1
462 1035 m 257,16,-1
 389 834 l 257,17,-1
 2289 834 l 257,18,-1
 2362 1035 l 257,19,-1
 462 1035 l 257,16,-1
449 1035 m 257,20,-1
 186 313 l 257,21,-1
 386 313 l 257,22,-1
 649 1035 l 257,23,-1
 449 1035 l 257,20,-1
2162 1035 m 257,24,-1
 1893 298 l 257,25,-1
 2093 298 l 257,26,-1
 2362 1035 l 257,27,-1
 2162 1035 l 257,24,-1
254 498 m 257,28,-1
 181 297 l 257,29,-1
 2073 297 l 257,30,-1
 2146 498 l 257,31,-1
 254 498 l 257,28,-1
EndSplineSet
Ligature2: "rkrfRakarVariantsinDevanagari2lookup0 subtable" uni0920 uni094D uni0930
EndChar

StartChar: uni0920_uni094D.haln
Encoding: 65575 -1 432
GlifName: uni0920_uni094D_.haln
Width: 2048
VWidth: 0
GlyphClass: 3
Flags: W
LayerCount: 2
Fore
SplineSet
563 1548 m 257,0,-1
 491 1350 l 257,1,-1
 2539 1350 l 257,2,-1
 2611 1548 l 257,3,-1
 563 1548 l 257,0,-1
1452 1484 m 257,4,-1
 1284 1023 l 257,5,-1
 1492 1023 l 257,6,-1
 1660 1484 l 257,7,-1
 1452 1484 l 257,4,-1
462 1035 m 257,8,-1
 389 834 l 257,9,-1
 2289 834 l 257,10,-1
 2362 1035 l 257,11,-1
 462 1035 l 257,8,-1
449 1035 m 257,12,-1
 77 13 l 257,13,-1
 277 13 l 257,14,-1
 649 1035 l 257,15,-1
 449 1035 l 257,12,-1
2162 1035 m 257,16,-1
 1785 0 l 257,17,-1
 1985 0 l 257,18,-1
 2362 1035 l 257,19,-1
 2162 1035 l 257,16,-1
145 198 m 257,20,-1
 73 0 l 257,21,-1
 1965 0 l 257,22,-1
 2037 198 l 257,23,-1
 145 198 l 257,20,-1
1487 -22 m 257,24,-1
 1416 -218 l 257,25,-1
 1773 -218 l 257,26,-1
 1844 -22 l 257,27,-1
 1487 -22 l 257,24,-1
1644 -183 m 257,28,-1
 1967 -588 l 257,29,-1
 2170 -425 l 257,30,-1
 1846 -21 l 257,31,-1
 1644 -183 l 257,28,-1
EndSplineSet
Ligature2: "halnHalantFormsinDevanagari2lookup0 subtable" uni0920 uni094D
EndChar

StartChar: uni0921
Encoding: 2337 2337 433
GlifName: uni0921
Width: 2048
VWidth: 0
GlyphClass: 2
Flags: W
AnchorPoint: "abvm_deva" 1868 1602 basechar 0
AnchorPoint: "blwm_deva" 1019 -58 basechar 0
LayerCount: 2
Fore
SplineSet
563 1548 m 257,0,-1
 491 1348 l 257,1,-1
 2543 1348 l 257,2,-1
 2615 1548 l 257,3,-1
 563 1548 l 257,0,-1
766 1049 m 257,4,-1
 616 638 l 257,5,-1
 815 638 l 257,6,-1
 965 1049 l 257,7,-1
 766 1049 l 257,4,-1
656 746 m 257,8,-1
 580 538 l 257,9,-1
 1777 538 l 257,10,-1
 1853 746 l 257,11,-1
 656 746 l 257,8,-1
1638 703 m 257,12,-1
 1385 5 l 257,13,-1
 1584 5 l 257,14,-1
 1837 703 l 257,15,-1
 1638 703 l 257,12,-1
135 200 m 257,16,-1
 62 0 l 257,17,-1
 1582 0 l 257,18,-1
 1653 200 l 257,19,-1
 135 200 l 257,16,-1
182 331 m 257,20,-1
 64 5 l 257,21,-1
 264 5 l 257,22,-1
 382 331 l 257,23,-1
 182 331 l 257,20,-1
797 1134 m 257,24,-1
 721 926 l 257,25,-1
 1782 926 l 257,26,-1
 1858 1134 l 257,27,-1
 797 1134 l 257,24,-1
1752 1391 m 257,28,-1
 1603 980 l 257,29,-1
 1802 980 l 257,30,-1
 1951 1391 l 257,31,-1
 1752 1391 l 257,28,-1
EndSplineSet
EndChar

StartChar: uni0921_uni0930_uni094D.vatu
Encoding: 65576 -1 434
GlifName: uni0921_uni0930_uni094D_.vatu
Width: 2048
VWidth: 0
GlyphClass: 3
Flags: W
LayerCount: 2
Fore
SplineSet
952 63 m 257,0,-1
 1072 -222 l 257,1,-1
 1354 -222 l 257,2,-1
 1120 190 l 257,3,-1
 952 63 l 257,0,-1
1120 190 m 257,4,-1
 561 -228 l 257,5,-1
 782 -228 l 257,6,-1
 1190 67 l 257,7,-1
 1120 190 l 257,4,-1
563 1548 m 257,8,-1
 491 1348 l 257,9,-1
 2543 1348 l 257,10,-1
 2615 1548 l 257,11,-1
 563 1548 l 257,8,-1
787 1106 m 257,12,-1
 649 729 l 257,13,-1
 848 729 l 257,14,-1
 986 1106 l 257,15,-1
 787 1106 l 257,12,-1
689 837 m 257,16,-1
 613 629 l 257,17,-1
 1810 629 l 257,18,-1
 1886 837 l 257,19,-1
 689 837 l 257,16,-1
1671 794 m 257,20,-1
 1443 164 l 257,21,-1
 1642 164 l 257,22,-1
 1870 794 l 257,23,-1
 1671 794 l 257,20,-1
193 359 m 257,24,-1
 120 159 l 257,25,-1
 1640 159 l 257,26,-1
 1711 359 l 257,27,-1
 193 359 l 257,24,-1
240 490 m 257,28,-1
 122 164 l 257,29,-1
 322 164 l 257,30,-1
 440 490 l 257,31,-1
 240 490 l 257,28,-1
817 1191 m 257,32,-1
 742 983 l 257,33,-1
 1803 983 l 257,34,-1
 1878 1191 l 257,35,-1
 817 1191 l 257,32,-1
1752 1391 m 257,36,-1
 1623 1037 l 257,37,-1
 1822 1037 l 257,38,-1
 1951 1391 l 257,39,-1
 1752 1391 l 257,36,-1
EndSplineSet
Ligature2: "rkrfRakarVariantsinDevanagari2lookup0 subtable" uni0921 uni094D uni0930
EndChar

StartChar: uni0921_uni094D.haln
Encoding: 65577 -1 435
GlifName: uni0921_uni094D_.haln
Width: 2048
VWidth: 0
GlyphClass: 3
Flags: W
LayerCount: 2
Fore
SplineSet
563 1548 m 257,0,-1
 491 1348 l 257,1,-1
 2543 1348 l 257,2,-1
 2615 1548 l 257,3,-1
 563 1548 l 257,0,-1
766 1049 m 257,4,-1
 616 638 l 257,5,-1
 815 638 l 257,6,-1
 965 1049 l 257,7,-1
 766 1049 l 257,4,-1
656 746 m 257,8,-1
 580 538 l 257,9,-1
 1777 538 l 257,10,-1
 1853 746 l 257,11,-1
 656 746 l 257,8,-1
1638 703 m 257,12,-1
 1385 5 l 257,13,-1
 1584 5 l 257,14,-1
 1837 703 l 257,15,-1
 1638 703 l 257,12,-1
135 200 m 257,16,-1
 62 0 l 257,17,-1
 1582 0 l 257,18,-1
 1653 200 l 257,19,-1
 135 200 l 257,16,-1
182 331 m 257,20,-1
 64 5 l 257,21,-1
 264 5 l 257,22,-1
 382 331 l 257,23,-1
 182 331 l 257,20,-1
797 1134 m 257,24,-1
 721 926 l 257,25,-1
 1782 926 l 257,26,-1
 1858 1134 l 257,27,-1
 797 1134 l 257,24,-1
1752 1391 m 257,28,-1
 1603 980 l 257,29,-1
 1802 980 l 257,30,-1
 1951 1391 l 257,31,-1
 1752 1391 l 257,28,-1
1487 -22 m 257,32,-1
 1416 -218 l 257,33,-1
 1773 -218 l 257,34,-1
 1844 -22 l 257,35,-1
 1487 -22 l 257,32,-1
1644 -183 m 257,36,-1
 1967 -588 l 257,37,-1
 2170 -425 l 257,38,-1
 1846 -21 l 257,39,-1
 1644 -183 l 257,36,-1
EndSplineSet
Ligature2: "halnHalantFormsinDevanagari2lookup0 subtable" uni0921 uni094D
EndChar

StartChar: uni0922
Encoding: 2338 2338 436
GlifName: uni0922
Width: 2048
VWidth: 0
GlyphClass: 2
Flags: W
AnchorPoint: "abvm_deva" 2270 1630 basechar 0
AnchorPoint: "blwm_deva" 1003 -56 basechar 0
LayerCount: 2
Fore
SplineSet
568 1548 m 257,0,-1
 496 1348 l 257,1,-1
 2534 1348 l 257,2,-1
 2606 1548 l 257,3,-1
 568 1548 l 257,0,-1
2144 1528 m 257,4,-1
 1948 988 l 257,5,-1
 2148 988 l 257,6,-1
 2344 1528 l 257,7,-1
 2144 1528 l 257,4,-1
2160 1023 m 257,8,-1
 487 1023 l 257,9,-1
 414 822 l 257,10,-1
 2087 822 l 257,11,-1
 2160 1023 l 257,8,-1
466 1023 m 257,12,-1
 96 5 l 257,13,-1
 296 5 l 257,14,-1
 666 1023 l 257,15,-1
 466 1023 l 257,12,-1
167 201 m 257,16,-1
 94 0 l 257,17,-1
 1831 0 l 257,18,-1
 1904 201 l 257,19,-1
 167 201 l 257,16,-1
1830 544 m 257,20,-1
 1632 0 l 257,21,-1
 1833 0 l 257,22,-1
 2031 544 l 257,23,-1
 1830 544 l 257,20,-1
1778 547 m 257,24,-1
 1705 347 l 257,25,-1
 1957 347 l 257,26,-1
 2030 547 l 257,27,-1
 1778 547 l 257,24,-1
EndSplineSet
EndChar

StartChar: uni0922_uni0930_uni094D.vatu
Encoding: 65578 -1 437
GlifName: uni0922_uni0930_uni094D_.vatu
Width: 2048
VWidth: 0
GlyphClass: 2
Flags: W
LayerCount: 2
Fore
SplineSet
967 90 m 257,0,-1
 1052 -290 l 257,1,-1
 1334 -290 l 257,2,-1
 1150 259 l 257,3,-1
 967 90 l 257,0,-1
1150 259 m 257,4,-1
 540 -299 l 257,5,-1
 761 -299 l 257,6,-1
 1205 94 l 257,7,-1
 1150 259 l 257,4,-1
573 1548 m 257,8,-1
 501 1348 l 257,9,-1
 2539 1348 l 257,10,-1
 2611 1548 l 257,11,-1
 573 1548 l 257,8,-1
2149 1528 m 257,12,-1
 1989 1088 l 257,13,-1
 2189 1088 l 257,14,-1
 2349 1528 l 257,15,-1
 2149 1528 l 257,12,-1
2202 1123 m 257,16,-1
 529 1123 l 257,17,-1
 456 922 l 257,18,-1
 2129 922 l 257,19,-1
 2202 1123 l 257,16,-1
508 1124 m 257,20,-1
 210 305 l 257,21,-1
 410 305 l 257,22,-1
 708 1124 l 257,23,-1
 508 1124 l 257,20,-1
281 501 m 257,24,-1
 208 300 l 257,25,-1
 1945 300 l 257,26,-1
 2018 501 l 257,27,-1
 281 501 l 257,24,-1
1944 844 m 257,28,-1
 1745 298 l 257,29,-1
 1946 298 l 257,30,-1
 2145 844 l 257,31,-1
 1944 844 l 257,28,-1
1892 847 m 257,32,-1
 1819 647 l 257,33,-1
 2071 647 l 257,34,-1
 2144 847 l 257,35,-1
 1892 847 l 257,32,-1
EndSplineSet
Ligature2: "rkrfRakarVariantsinDevanagari2lookup0 subtable" uni0922 uni094D uni0930
EndChar

StartChar: uni0922_uni094D.haln
Encoding: 65579 -1 438
GlifName: uni0922_uni094D_.haln
Width: 2048
VWidth: 0
GlyphClass: 3
Flags: W
LayerCount: 2
Fore
SplineSet
568 1548 m 257,0,-1
 496 1348 l 257,1,-1
 2534 1348 l 257,2,-1
 2606 1548 l 257,3,-1
 568 1548 l 257,0,-1
2144 1528 m 257,4,-1
 1948 988 l 257,5,-1
 2148 988 l 257,6,-1
 2344 1528 l 257,7,-1
 2144 1528 l 257,4,-1
2160 1023 m 257,8,-1
 487 1023 l 257,9,-1
 414 822 l 257,10,-1
 2087 822 l 257,11,-1
 2160 1023 l 257,8,-1
466 1023 m 257,12,-1
 96 5 l 257,13,-1
 296 5 l 257,14,-1
 666 1023 l 257,15,-1
 466 1023 l 257,12,-1
167 201 m 257,16,-1
 94 0 l 257,17,-1
 1831 0 l 257,18,-1
 1904 201 l 257,19,-1
 167 201 l 257,16,-1
1830 544 m 257,20,-1
 1632 0 l 257,21,-1
 1833 0 l 257,22,-1
 2031 544 l 257,23,-1
 1830 544 l 257,20,-1
1778 547 m 257,24,-1
 1705 347 l 257,25,-1
 1957 347 l 257,26,-1
 2030 547 l 257,27,-1
 1778 547 l 257,24,-1
1487 -22 m 257,28,-1
 1416 -218 l 257,29,-1
 1773 -218 l 257,30,-1
 1844 -22 l 257,31,-1
 1487 -22 l 257,28,-1
1644 -183 m 257,32,-1
 1967 -588 l 257,33,-1
 2170 -425 l 257,34,-1
 1846 -21 l 257,35,-1
 1644 -183 l 257,32,-1
EndSplineSet
Ligature2: "halnHalantFormsinDevanagari2lookup0 subtable" uni0922 uni094D
EndChar

StartChar: uni0923
Encoding: 2339 2339 439
GlifName: uni0923
Width: 2048
VWidth: 0
GlyphClass: 2
Flags: W
AnchorPoint: "abvm_deva" 2356 1601 basechar 0
AnchorPoint: "blwm_deva" 1798 -60 basechar 0
LayerCount: 2
Fore
SplineSet
563 1548 m 257,0,-1
 491 1350 l 257,1,-1
 2539 1350 l 257,2,-1
 2611 1548 l 257,3,-1
 563 1548 l 257,0,-1
2297 1530 m 257,4,-1
 1740 0 l 257,5,-1
 1940 0 l 257,6,-1
 2497 1530 l 257,7,-1
 2297 1530 l 257,4,-1
672 1543 m 257,8,-1
 421 855 l 257,9,-1
 621 855 l 257,10,-1
 872 1543 l 257,11,-1
 672 1543 l 257,8,-1
1522 1528 m 257,12,-1
 1273 844 l 257,13,-1
 1473 844 l 257,14,-1
 1722 1528 l 257,15,-1
 1522 1528 l 257,12,-1
482 1023 m 257,16,-1
 410 825 l 257,17,-1
 1466 825 l 257,18,-1
 1538 1023 l 257,19,-1
 482 1023 l 257,16,-1
EndSplineSet
EndChar

StartChar: uni0923_uni0930_uni094D.vatu
Encoding: 65580 -1 440
GlifName: uni0923_uni0930_uni094D_.vatu
Width: 2048
VWidth: 0
GlyphClass: 2
Flags: W
LayerCount: 2
Fore
SplineSet
52 0 m 257,0,-1
 476 0 l 257,1,-1
 1856 215 l 257,2,-1
 1929 416 l 257,3,-1
 52 0 l 257,0,-1
563 1548 m 257,4,-1
 491 1350 l 257,5,-1
 2539 1350 l 257,6,-1
 2611 1548 l 257,7,-1
 563 1548 l 257,4,-1
2297 1530 m 257,8,-1
 1740 0 l 257,9,-1
 1940 0 l 257,10,-1
 2497 1530 l 257,11,-1
 2297 1530 l 257,8,-1
672 1543 m 257,12,-1
 421 855 l 257,13,-1
 621 855 l 257,14,-1
 872 1543 l 257,15,-1
 672 1543 l 257,12,-1
1522 1528 m 257,16,-1
 1273 844 l 257,17,-1
 1473 844 l 257,18,-1
 1722 1528 l 257,19,-1
 1522 1528 l 257,16,-1
482 1023 m 257,20,-1
 410 825 l 257,21,-1
 1466 825 l 257,22,-1
 1538 1023 l 257,23,-1
 482 1023 l 257,20,-1
EndSplineSet
Ligature2: "rkrfRakarVariantsinDevanagari2lookup0 subtable" uni0923 uni094D uni0930
EndChar

StartChar: uni0923_uni094D.half
Encoding: 65581 -1 441
GlifName: uni0923_uni094D_.half
Width: 2048
VWidth: 0
GlyphClass: 3
Flags: W
LayerCount: 2
Fore
SplineSet
563 1548 m 257,0,-1
 491 1350 l 257,1,-1
 2539 1350 l 257,2,-1
 2611 1548 l 257,3,-1
 563 1548 l 257,0,-1
1072 1543 m 257,4,-1
 821 855 l 257,5,-1
 1021 855 l 257,6,-1
 1272 1543 l 257,7,-1
 1072 1543 l 257,4,-1
1922 1528 m 257,8,-1
 1673 844 l 257,9,-1
 1873 844 l 257,10,-1
 2122 1528 l 257,11,-1
 1922 1528 l 257,8,-1
882 1023 m 257,12,-1
 810 825 l 257,13,-1
 1866 825 l 257,14,-1
 1938 1023 l 257,15,-1
 882 1023 l 257,12,-1
EndSplineSet
Ligature2: "halfHalfFormsinDevanagari2lookup0 subtable" uni0923 uni094D
EndChar

StartChar: uni0923_uni094D.haln
Encoding: 65582 -1 442
GlifName: uni0923_uni094D_.haln
Width: 2048
VWidth: 0
GlyphClass: 3
Flags: W
AnchorPoint: "abvm_deva" 2328 1624 basechar 0
AnchorPoint: "blwm_deva" 2273 -183 basechar 0
LayerCount: 2
Fore
SplineSet
563 1548 m 257,0,-1
 491 1350 l 257,1,-1
 2539 1350 l 257,2,-1
 2611 1548 l 257,3,-1
 563 1548 l 257,0,-1
2297 1530 m 257,4,-1
 1740 0 l 257,5,-1
 1940 0 l 257,6,-1
 2497 1530 l 257,7,-1
 2297 1530 l 257,4,-1
672 1543 m 257,8,-1
 421 855 l 257,9,-1
 621 855 l 257,10,-1
 872 1543 l 257,11,-1
 672 1543 l 257,8,-1
1522 1528 m 257,12,-1
 1273 844 l 257,13,-1
 1473 844 l 257,14,-1
 1722 1528 l 257,15,-1
 1522 1528 l 257,12,-1
482 1023 m 257,16,-1
 410 825 l 257,17,-1
 1466 825 l 257,18,-1
 1538 1023 l 257,19,-1
 482 1023 l 257,16,-1
1487 -22 m 257,20,-1
 1416 -218 l 257,21,-1
 1773 -218 l 257,22,-1
 1844 -22 l 257,23,-1
 1487 -22 l 257,20,-1
1644 -183 m 257,24,-1
 1967 -588 l 257,25,-1
 2170 -425 l 257,26,-1
 1846 -21 l 257,27,-1
 1644 -183 l 257,24,-1
EndSplineSet
Ligature2: "halnHalantFormsinDevanagari2lookup0 subtable" uni0923 uni094D
EndChar

StartChar: uni0924
Encoding: 2340 2340 443
GlifName: uni0924
Width: 2048
VWidth: 0
GlyphClass: 2
Flags: W
AnchorPoint: "abvm_deva" 2331 1593 basechar 0
AnchorPoint: "blwm_deva" 1834 -73 basechar 0
LayerCount: 2
Fore
SplineSet
554 1562 m 257,0,-1
 481 1362 l 257,1,-1
 2559 1362 l 257,2,-1
 2632 1562 l 257,3,-1
 554 1562 l 257,0,-1
2242 1562 m 257,4,-1
 1673 0 l 257,5,-1
 1872 0 l 257,6,-1
 2441 1562 l 257,7,-1
 2242 1562 l 257,4,-1
2114 788 m 257,8,-1
 407 788 l 257,9,-1
 334 588 l 257,10,-1
 2041 588 l 257,11,-1
 2114 788 l 257,8,-1
399 766 m 257,12,-1
 129 26 l 257,13,-1
 329 26 l 257,14,-1
 599 766 l 257,15,-1
 399 766 l 257,12,-1
EndSplineSet
EndChar

StartChar: uni0924_uni0930_uni094D.vatu
Encoding: 65583 -1 444
GlifName: uni0924_uni0930_uni094D_.vatu
Width: 2048
VWidth: 0
GlyphClass: 3
Flags: W
AnchorPoint: "abvm_deva" 1929 1683 basechar 0
AnchorPoint: "blwm_deva" 1874 -124 basechar 0
LayerCount: 2
Fore
SplineSet
52 0 m 257,0,-1
 476 0 l 257,1,-1
 1856 215 l 257,2,-1
 1929 416 l 257,3,-1
 52 0 l 257,0,-1
554 1562 m 257,4,-1
 481 1362 l 257,5,-1
 2559 1362 l 257,6,-1
 2632 1562 l 257,7,-1
 554 1562 l 257,4,-1
2242 1562 m 257,8,-1
 1673 0 l 257,9,-1
 1872 0 l 257,10,-1
 2441 1562 l 257,11,-1
 2242 1562 l 257,8,-1
1890 348 m 257,12,-1
 721 1201 l 257,13,-1
 558 1028 l 257,14,-1
 1727 175 l 257,15,-1
 1890 348 l 257,12,-1
EndSplineSet
Ligature2: "rkrfRakarVariantsinDevanagari2lookup0 subtable" uni0924 uni094D uni0930
EndChar

StartChar: uni0924_uni094D.half
Encoding: 65584 -1 445
GlifName: uni0924_uni094D_.half
Width: 2048
VWidth: 0
GlyphClass: 3
Flags: W
LayerCount: 2
Fore
SplineSet
554 1562 m 257,0,-1
 481 1362 l 257,1,-1
 2559 1362 l 257,2,-1
 2632 1562 l 257,3,-1
 554 1562 l 257,0,-1
2359 788 m 257,4,-1
 652 788 l 257,5,-1
 579 588 l 257,6,-1
 2286 588 l 257,7,-1
 2359 788 l 257,4,-1
644 766 m 257,8,-1
 374 26 l 257,9,-1
 574 26 l 257,10,-1
 844 766 l 257,11,-1
 644 766 l 257,8,-1
EndSplineSet
Ligature2: "halfHalfFormsinDevanagari2lookup0 subtable" uni0924 uni094D
EndChar

StartChar: uni0924_uni094D.haln
Encoding: 65585 -1 446
GlifName: uni0924_uni094D_.haln
Width: 2048
VWidth: 0
GlyphClass: 3
Flags: W
LayerCount: 2
Fore
SplineSet
554 1562 m 257,0,-1
 481 1362 l 257,1,-1
 2559 1362 l 257,2,-1
 2632 1562 l 257,3,-1
 554 1562 l 257,0,-1
2242 1562 m 257,4,-1
 1673 0 l 257,5,-1
 1872 0 l 257,6,-1
 2441 1562 l 257,7,-1
 2242 1562 l 257,4,-1
2114 788 m 257,8,-1
 407 788 l 257,9,-1
 334 588 l 257,10,-1
 2041 588 l 257,11,-1
 2114 788 l 257,8,-1
399 766 m 257,12,-1
 129 26 l 257,13,-1
 329 26 l 257,14,-1
 599 766 l 257,15,-1
 399 766 l 257,12,-1
1487 -22 m 257,16,-1
 1416 -218 l 257,17,-1
 1773 -218 l 257,18,-1
 1844 -22 l 257,19,-1
 1487 -22 l 257,16,-1
1644 -183 m 257,20,-1
 1967 -588 l 257,21,-1
 2170 -425 l 257,22,-1
 1846 -21 l 257,23,-1
 1644 -183 l 257,20,-1
EndSplineSet
Ligature2: "halnHalantFormsinDevanagari2lookup0 subtable" uni0924 uni094D
EndChar

StartChar: uni0924_uni094D_uni0924.pres
Encoding: 65586 -1 447
GlifName: uni0924_uni094D__uni0924.pres
Width: 2048
VWidth: 0
GlyphClass: 3
Flags: W
LayerCount: 2
Fore
SplineSet
536 1554 m 257,0,-1
 463 1354 l 257,1,-1
 2542 1354 l 257,2,-1
 2615 1554 l 257,3,-1
 536 1554 l 257,0,-1
2209 1511 m 257,4,-1
 1659 0 l 257,5,-1
 1858 0 l 257,6,-1
 2408 1511 l 257,7,-1
 2209 1511 l 257,4,-1
2100 788 m 257,8,-1
 392 788 l 257,9,-1
 319 588 l 257,10,-1
 2027 588 l 257,11,-1
 2100 788 l 257,8,-1
319 588 m 257,12,-1
 212 0 l 257,13,-1
 412 0 l 257,14,-1
 518 588 l 257,15,-1
 319 588 l 257,12,-1
2102 1038 m 257,16,-1
 394 1038 l 257,17,-1
 321 838 l 257,18,-1
 2029 838 l 257,19,-1
 2102 1038 l 257,16,-1
EndSplineSet
Ligature2: "presPreBaseSubstitutionsinDevanagari2lookup0 subtable" uni0924_uni094D.half uni0924
EndChar

StartChar: uni0925
Encoding: 2341 2341 448
GlifName: uni0925
Width: 2048
VWidth: 0
GlyphClass: 2
Flags: W
AnchorPoint: "abvm_deva" 2381 1636 basechar 0
AnchorPoint: "blwm_deva" 1834 -73 basechar 0
LayerCount: 2
Fore
SplineSet
2210 1548 m 257,0,-1
 2138 1350 l 257,1,-1
 2522 1350 l 257,2,-1
 2594 1548 l 257,3,-1
 2210 1548 l 257,0,-1
2342 1537 m 257,4,-1
 1776 -18 l 257,5,-1
 1975 -18 l 257,6,-1
 2541 1537 l 257,7,-1
 2342 1537 l 257,4,-1
580 1548 m 257,8,-1
 508 1350 l 257,9,-1
 1465 1350 l 257,10,-1
 1537 1548 l 257,11,-1
 580 1548 l 257,8,-1
1287 1413 m 257,12,-1
 1110 927 l 257,13,-1
 1310 927 l 257,14,-1
 1487 1413 l 257,15,-1
 1287 1413 l 257,12,-1
1345 1018 m 257,16,-1
 392 1018 l 257,17,-1
 316 810 l 257,18,-1
 1269 810 l 257,19,-1
 1345 1018 l 257,16,-1
365 946 m 257,20,-1
 69 132 l 257,21,-1
 268 132 l 257,22,-1
 564 946 l 257,23,-1
 365 946 l 257,20,-1
141 331 m 257,24,-1
 69 132 l 257,25,-1
 2030 132 l 257,26,-1
 2102 331 l 257,27,-1
 141 331 l 257,24,-1
EndSplineSet
EndChar

StartChar: uni0925_uni0930_uni094D.vatu
Encoding: 65587 -1 449
GlifName: uni0925_uni0930_uni094D_.vatu
Width: 2048
VWidth: 0
GlyphClass: 3
Flags: W
LayerCount: 2
Fore
SplineSet
52 0 m 257,0,-1
 476 0 l 257,1,-1
 1856 215 l 257,2,-1
 1929 416 l 257,3,-1
 52 0 l 257,0,-1
2210 1548 m 257,4,-1
 2138 1350 l 257,5,-1
 2522 1350 l 257,6,-1
 2594 1548 l 257,7,-1
 2210 1548 l 257,4,-1
2342 1537 m 257,8,-1
 1776 -18 l 257,9,-1
 1975 -18 l 257,10,-1
 2541 1537 l 257,11,-1
 2342 1537 l 257,8,-1
580 1548 m 257,12,-1
 508 1350 l 257,13,-1
 1465 1350 l 257,14,-1
 1537 1548 l 257,15,-1
 580 1548 l 257,12,-1
1287 1413 m 257,16,-1
 1110 927 l 257,17,-1
 1310 927 l 257,18,-1
 1487 1413 l 257,19,-1
 1287 1413 l 257,16,-1
1345 1018 m 257,20,-1
 392 1018 l 257,21,-1
 316 810 l 257,22,-1
 1269 810 l 257,23,-1
 1345 1018 l 257,20,-1
365 946 m 257,24,-1
 142 332 l 257,25,-1
 341 332 l 257,26,-1
 564 946 l 257,27,-1
 365 946 l 257,24,-1
214 531 m 257,28,-1
 142 332 l 257,29,-1
 2103 332 l 257,30,-1
 2175 531 l 257,31,-1
 214 531 l 257,28,-1
EndSplineSet
Ligature2: "rkrfRakarVariantsinDevanagari2lookup0 subtable" uni0925 uni094D uni0930
EndChar

StartChar: uni0925_uni094D.half
Encoding: 65588 -1 450
GlifName: uni0925_uni094D_.half
Width: 2048
VWidth: 0
GlyphClass: 3
Flags: W
LayerCount: 2
Fore
SplineSet
2210 1548 m 257,0,-1
 2138 1350 l 257,1,-1
 2522 1350 l 257,2,-1
 2594 1548 l 257,3,-1
 2210 1548 l 257,0,-1
580 1548 m 257,4,-1
 508 1350 l 257,5,-1
 1465 1350 l 257,6,-1
 1537 1548 l 257,7,-1
 580 1548 l 257,4,-1
1287 1413 m 257,8,-1
 1110 927 l 257,9,-1
 1310 927 l 257,10,-1
 1487 1413 l 257,11,-1
 1287 1413 l 257,8,-1
1345 1018 m 257,12,-1
 392 1018 l 257,13,-1
 316 810 l 257,14,-1
 1269 810 l 257,15,-1
 1345 1018 l 257,12,-1
365 946 m 257,16,-1
 69 132 l 257,17,-1
 268 132 l 257,18,-1
 564 946 l 257,19,-1
 365 946 l 257,16,-1
141 331 m 257,20,-1
 69 132 l 257,21,-1
 2100 132 l 257,22,-1
 2172 331 l 257,23,-1
 141 331 l 257,20,-1
EndSplineSet
Ligature2: "halfHalfFormsinDevanagari2lookup0 subtable" uni0925 uni094D
EndChar

StartChar: uni0925_uni094D.haln
Encoding: 65589 -1 451
GlifName: uni0925_uni094D_.haln
Width: 2048
VWidth: 0
GlyphClass: 3
Flags: W
LayerCount: 2
Fore
SplineSet
2210 1548 m 257,0,-1
 2138 1350 l 257,1,-1
 2522 1350 l 257,2,-1
 2594 1548 l 257,3,-1
 2210 1548 l 257,0,-1
2342 1537 m 257,4,-1
 1776 -18 l 257,5,-1
 1975 -18 l 257,6,-1
 2541 1537 l 257,7,-1
 2342 1537 l 257,4,-1
580 1548 m 257,8,-1
 508 1350 l 257,9,-1
 1465 1350 l 257,10,-1
 1537 1548 l 257,11,-1
 580 1548 l 257,8,-1
1287 1413 m 257,12,-1
 1110 927 l 257,13,-1
 1310 927 l 257,14,-1
 1487 1413 l 257,15,-1
 1287 1413 l 257,12,-1
1345 1018 m 257,16,-1
 392 1018 l 257,17,-1
 316 810 l 257,18,-1
 1269 810 l 257,19,-1
 1345 1018 l 257,16,-1
365 946 m 257,20,-1
 69 132 l 257,21,-1
 268 132 l 257,22,-1
 564 946 l 257,23,-1
 365 946 l 257,20,-1
141 331 m 257,24,-1
 69 132 l 257,25,-1
 2030 132 l 257,26,-1
 2102 331 l 257,27,-1
 141 331 l 257,24,-1
1487 -22 m 257,28,-1
 1416 -218 l 257,29,-1
 1773 -218 l 257,30,-1
 1844 -22 l 257,31,-1
 1487 -22 l 257,28,-1
1644 -183 m 257,32,-1
 1967 -588 l 257,33,-1
 2170 -425 l 257,34,-1
 1846 -21 l 257,35,-1
 1644 -183 l 257,32,-1
EndSplineSet
Ligature2: "halnHalantFormsinDevanagari2lookup0 subtable" uni0925 uni094D
EndChar

StartChar: uni0926
Encoding: 2342 2342 452
GlifName: uni0926
Width: 2048
VWidth: 0
GlyphClass: 2
Flags: W
AnchorPoint: "abvm_deva" 1724 1594 basechar 0
AnchorPoint: "blwm_deva" 1237 -55 basechar 0
LayerCount: 2
Fore
SplineSet
563 1548 m 257,0,-1
 491 1350 l 257,1,-1
 2535 1350 l 257,2,-1
 2607 1548 l 257,3,-1
 563 1548 l 257,0,-1
1541 1509 m 257,4,-1
 1328 923 l 257,5,-1
 1528 923 l 257,6,-1
 1741 1509 l 257,7,-1
 1541 1509 l 257,4,-1
1564 1023 m 257,8,-1
 430 1023 l 257,9,-1
 357 821 l 257,10,-1
 1491 821 l 257,11,-1
 1564 1023 l 257,8,-1
417 996 m 257,12,-1
 134 219 l 257,13,-1
 334 219 l 257,14,-1
 617 996 l 257,15,-1
 417 996 l 257,12,-1
180 346 m 257,16,-1
 107 146 l 257,17,-1
 1371 146 l 257,18,-1
 1444 346 l 257,19,-1
 180 346 l 257,16,-1
1270 406 m 257,20,-1
 1119 -7 l 257,21,-1
 1319 -7 l 257,22,-1
 1470 406 l 257,23,-1
 1270 406 l 257,20,-1
EndSplineSet
EndChar

